<svg class="main-svg" xmlns="http://www.w3.org/2000/svg" xmlns:xlink="http://www.w3.org/1999/xlink" width="800" height="600" style="" viewBox="0 0 800 600"><rect x="0" y="0" width="800" height="600" style="fill: rgb(255, 255, 255); fill-opacity: 1;"/><defs id="defs-8b155e"><g class="clips"><clipPath id="clip8b155exyplot" class="plotclip"><rect width="640" height="420"/></clipPath><clipPath class="axesclip" id="clip8b155ex"><rect x="80" y="0" width="640" height="600"/></clipPath><clipPath class="axesclip" id="clip8b155ey"><rect x="0" y="100" width="800" height="420"/></clipPath><clipPath class="axesclip" id="clip8b155exy"><rect x="80" y="100" width="640" height="420"/></clipPath></g><g class="gradients"/><g class="patterns"/></defs><g class="bglayer"><rect class="bg" x="80" y="100" width="640" height="420" style="fill: rgb(237, 237, 237); fill-opacity: 1; stroke-width: 0;"/></g><g class="layer-below"><g class="imagelayer"/><g class="shapelayer"/></g><g class="cartesianlayer"><g class="subplot xy"><g class="layer-subplot"><g class="shapelayer"/><g class="imagelayer"/></g><g class="minor-gridlayer"><g class="x"/><g class="y"/></g><g class="gridlayer"><g class="x"><path class="xgrid crisp" transform="translate(92.7,0)" d="M0,100v420" style="stroke: rgb(255, 255, 255); stroke-opacity: 1; stroke-width: 1px;"/><path class="xgrid crisp" transform="translate(208.25,0)" d="M0,100v420" style="stroke: rgb(255, 255, 255); stroke-opacity: 1; stroke-width: 1px;"/><path class="xgrid crisp" transform="translate(325.08000000000004,0)" d="M0,100v420" style="stroke: rgb(255, 255, 255); stroke-opacity: 1; stroke-width: 1px;"/><path class="xgrid crisp" transform="translate(440,0)" d="M0,100v420" style="stroke: rgb(255, 255, 255); stroke-opacity: 1; stroke-width: 1px;"/><path class="xgrid crisp" transform="translate(556.8299999999999,0)" d="M0,100v420" style="stroke: rgb(255, 255, 255); stroke-opacity: 1; stroke-width: 1px;"/><path class="xgrid crisp" transform="translate(671.75,0)" d="M0,100v420" style="stroke: rgb(255, 255, 255); stroke-opacity: 1; stroke-width: 1px;"/></g><g class="y"><path class="ygrid crisp" transform="translate(0,437.33)" d="M80,0h640" style="stroke: rgb(255, 255, 255); stroke-opacity: 1; stroke-width: 1px;"/><path class="ygrid crisp" transform="translate(0,354.66999999999996)" d="M80,0h640" style="stroke: rgb(255, 255, 255); stroke-opacity: 1; stroke-width: 1px;"/><path class="ygrid crisp" transform="translate(0,272)" d="M80,0h640" style="stroke: rgb(255, 255, 255); stroke-opacity: 1; stroke-width: 1px;"/><path class="ygrid crisp" transform="translate(0,189.32999999999998)" d="M80,0h640" style="stroke: rgb(255, 255, 255); stroke-opacity: 1; stroke-width: 1px;"/><path class="ygrid crisp" transform="translate(0,106.66)" d="M80,0h640" style="stroke: rgb(255, 255, 255); stroke-opacity: 1; stroke-width: 1px;"/></g></g><g class="zerolinelayer"><path class="yzl zl crisp" transform="translate(0,520)" d="M80,0h640" style="stroke: rgb(255, 255, 255); stroke-opacity: 1; stroke-width: 1px;"/></g><path class="xlines-below"/><path class="ylines-below"/><g class="overlines-below"/><g class="xaxislayer-below"/><g class="yaxislayer-below"/><g class="overaxes-below"/><g class="plot" transform="translate(80,100)" clip-path="url(#clip8b155exyplot)"><g class="scatterlayer mlayer"><g class="trace scatter trace0f411f" style="stroke-miterlimit: 2;"><g class="fills"><g><path class="js-fill" d="M640,420L0,420L0,420L146.67,419.25L147.3,419.21L154.92,417.97L155.56,417.68L162.54,415.74L163.17,415.61L166.98,414.45L167.62,413.69L170.16,411.9L170.79,411.74L175.87,409.97L176.51,409.68L183.49,407.19L184.13,407.09L198.1,405.13L198.73,405.08L221.59,403.13L222.22,402.69L238.1,400.49L238.73,400.38L250.79,396.24L251.43,395.15L258.41,392L259.05,391.71L265.4,388.07L266.03,387.5L268.57,384.27L269.21,383.68L277.46,375.26L278.1,373.88L279.37,370.76L280,370.33L292.06,362.59L292.7,362.1L299.05,357.49L299.68,357.13L305.4,352.03L306.03,351.04L310.48,346.35L311.11,345.74L313.65,342.38L314.29,341.32L318.1,337.36L318.73,336.93L323.81,332.38L324.44,331.71L325.08,330.94L325.71,328.65L327.62,321.66L328.25,317.89L331.43,306.49L332.06,305.18L333.33,288.38L333.97,285.23L334.6,284.08L335.24,279.44L338.41,273.79L339.05,273.12L344.76,268.58L345.4,267.73L349.21,264.64L349.84,264.2L353.65,261.12L354.29,259.82L356.83,258.12L357.46,257.84L368.25,251.06L368.89,250.3L370.79,248.39L371.43,247.94L373.97,245.66L374.6,245.16L376.51,243.45L377.14,242.69L384.13,236.08L384.76,234.93L386.67,232.32L387.3,231.77L389.84,228.83L390.48,228.04L398.73,218.23L399.37,217.26L402.54,212.73L403.17,209.33L405.08,204.96L405.71,204.25L408.25,201.6L408.89,200.8L419.05,190.08L419.68,189.7L421.59,186.79L422.22,184.1L424.76,180.29L425.4,179.1L426.67,176.48L427.3,173.72L434.29,164.01L434.92,161.01L438.73,150.97L439.37,149.57L444.44,137.73L445.08,136.63L448.25,129.77L448.89,128.13L453.33,119.78L453.97,118.21L458.41,111.71L459.05,108.08L462.22,103L462.86,101.88L464.76,99.97L465.4,99.37L469.84,95.45L470.48,94.88L472.38,92.41L473.02,92.05L479.37,86.96L480,86.21L481.27,84.36L481.9,84.09L483.17,81.91L483.81,81.4L488.89,78.08L489.52,74.27L491.43,71.09L492.06,70.85L495.24,69.21L495.87,68.91L500.32,67L500.95,66.66L505.4,64.94L506.03,64.74L511.11,62.47L511.75,61.2L521.27,58.76L521.9,58.63L528.25,57.07L528.89,55.54L535.24,53.6L535.87,53.41L551.75,49.04L552.38,48.7L558.1,46.72L558.73,46.29L560.63,42.15L561.27,41.92L574.6,39.24L575.24,39.19L578.41,38.44L579.05,37.79L579.68,37.46L580.32,32.08L581.59,29.59L582.22,29.33L582.86,29.06L583.49,27.77L589.84,26.94L590.48,26.82L624.76,22.43L625.4,22.39L640,21" style="fill: rgb(248, 118, 109); fill-opacity: 0.5; stroke-width: 0;"/></g></g><g class="errorbars"/><g class="lines"><path class="js-line" d="M0,420L146.67,419.25L147.3,419.21L154.92,417.97L155.56,417.68L162.54,415.74L163.17,415.61L166.98,414.45L167.62,413.69L170.16,411.9L170.79,411.74L175.87,409.97L176.51,409.68L183.49,407.19L184.13,407.09L198.1,405.13L198.73,405.08L221.59,403.13L222.22,402.69L238.1,400.49L238.73,400.38L250.79,396.24L251.43,395.15L258.41,392L259.05,391.71L265.4,388.07L266.03,387.5L268.57,384.27L269.21,383.68L277.46,375.26L278.1,373.88L279.37,370.76L280,370.33L292.06,362.59L292.7,362.1L299.05,357.49L299.68,357.13L305.4,352.03L306.03,351.04L310.48,346.35L311.11,345.74L313.65,342.38L314.29,341.32L318.1,337.36L318.73,336.93L323.81,332.38L324.44,331.71L325.08,330.94L325.71,328.65L327.62,321.66L328.25,317.89L331.43,306.49L332.06,305.18L333.33,288.38L333.97,285.23L334.6,284.08L335.24,279.44L338.41,273.79L339.05,273.12L344.76,268.58L345.4,267.73L349.21,264.64L349.84,264.2L353.65,261.12L354.29,259.82L356.83,258.12L357.46,257.84L368.25,251.06L368.89,250.3L370.79,248.39L371.43,247.94L373.97,245.66L374.6,245.16L376.51,243.45L377.14,242.69L384.13,236.08L384.76,234.93L386.67,232.32L387.3,231.77L389.84,228.83L390.48,228.04L398.73,218.23L399.37,217.26L402.54,212.73L403.17,209.33L405.08,204.96L405.71,204.25L408.25,201.6L408.89,200.8L419.05,190.08L419.68,189.7L421.59,186.79L422.22,184.1L424.76,180.29L425.4,179.1L426.67,176.48L427.3,173.72L434.29,164.01L434.92,161.01L438.73,150.97L439.37,149.57L444.44,137.73L445.08,136.63L448.25,129.77L448.89,128.13L453.33,119.78L453.97,118.21L458.41,111.71L459.05,108.08L462.22,103L462.86,101.88L464.76,99.97L465.4,99.37L469.84,95.45L470.48,94.88L472.38,92.41L473.02,92.05L479.37,86.96L480,86.21L481.27,84.36L481.9,84.09L483.17,81.91L483.81,81.4L488.89,78.08L489.52,74.27L491.43,71.09L492.06,70.85L495.24,69.21L495.87,68.91L500.32,67L500.95,66.66L505.4,64.94L506.03,64.74L511.11,62.47L511.75,61.2L521.27,58.76L521.9,58.63L528.25,57.07L528.89,55.54L535.24,53.6L535.87,53.41L551.75,49.04L552.38,48.7L558.1,46.72L558.73,46.29L560.63,42.15L561.27,41.92L574.6,39.24L575.24,39.19L578.41,38.44L579.05,37.79L579.68,37.46L580.32,32.08L581.59,29.59L582.22,29.33L582.86,29.06L583.49,27.77L589.84,26.94L590.48,26.82L624.76,22.43L625.4,22.39L640,21" style="vector-effect: non-scaling-stroke; fill: none; stroke: rgb(248, 118, 109); stroke-opacity: 1; stroke-width: 2px; opacity: 1;"/></g><g class="points"/><g class="text"/></g></g></g><g class="overplot"/><path class="xlines-above crisp" d="" style="fill: none; stroke-width: 1px; stroke: rgb(0, 0, 0); stroke-opacity: 0;"/><path class="ylines-above crisp" d="" style="fill: none; stroke-width: 1px; stroke: rgb(0, 0, 0); stroke-opacity: 0;"/><g class="overlines-above"/><g class="xaxislayer-above"><path class="xtick ticks crisp" d="M0,521v5" transform="translate(92.7,0)" style="stroke: rgb(51, 51, 51); stroke-opacity: 1; stroke-width: 1px;"/><path class="xtick ticks crisp" d="M0,521v5" transform="translate(208.25,0)" style="stroke: rgb(51, 51, 51); stroke-opacity: 1; stroke-width: 1px;"/><path class="xtick ticks crisp" d="M0,521v5" transform="translate(325.08000000000004,0)" style="stroke: rgb(51, 51, 51); stroke-opacity: 1; stroke-width: 1px;"/><path class="xtick ticks crisp" d="M0,521v5" transform="translate(440,0)" style="stroke: rgb(51, 51, 51); stroke-opacity: 1; stroke-width: 1px;"/><path class="xtick ticks crisp" d="M0,521v5" transform="translate(556.8299999999999,0)" style="stroke: rgb(51, 51, 51); stroke-opacity: 1; stroke-width: 1px;"/><path class="xtick ticks crisp" d="M0,521v5" transform="translate(671.75,0)" style="stroke: rgb(51, 51, 51); stroke-opacity: 1; stroke-width: 1px;"/><g class="xtick"><text text-anchor="middle" x="0" y="540.4" transform="translate(92.7,0)" style="font-family: 'Open Sans', verdana, arial, sans-serif; font-size: 12px; fill: rgb(51, 51, 51); fill-opacity: 1; white-space: pre; opacity: 1;">Jan 2020</text></g><g class="xtick"><text text-anchor="middle" x="0" y="540.4" style="font-family: 'Open Sans', verdana, arial, sans-serif; font-size: 12px; fill: rgb(51, 51, 51); fill-opacity: 1; white-space: pre; opacity: 1;" transform="translate(208.25,0)">Jul 2020</text></g><g class="xtick"><text text-anchor="middle" x="0" y="540.4" style="font-family: 'Open Sans', verdana, arial, sans-serif; font-size: 12px; fill: rgb(51, 51, 51); fill-opacity: 1; white-space: pre; opacity: 1;" transform="translate(325.08000000000004,0)">Jan 2021</text></g><g class="xtick"><text text-anchor="middle" x="0" y="540.4" style="font-family: 'Open Sans', verdana, arial, sans-serif; font-size: 12px; fill: rgb(51, 51, 51); fill-opacity: 1; white-space: pre; opacity: 1;" transform="translate(440,0)">Jul 2021</text></g><g class="xtick"><text text-anchor="middle" x="0" y="540.4" style="font-family: 'Open Sans', verdana, arial, sans-serif; font-size: 12px; fill: rgb(51, 51, 51); fill-opacity: 1; white-space: pre; opacity: 1;" transform="translate(556.8299999999999,0)">Jan 2022</text></g><g class="xtick"><text text-anchor="middle" x="0" y="540.4" style="font-family: 'Open Sans', verdana, arial, sans-serif; font-size: 12px; fill: rgb(51, 51, 51); fill-opacity: 1; white-space: pre; opacity: 1;" transform="translate(671.75,0)">Jul 2022</text></g></g><g class="yaxislayer-above"><path class="ytick ticks crisp" d="M79,0h-5" transform="translate(0,520)" style="stroke: rgb(51, 51, 51); stroke-opacity: 1; stroke-width: 1px;"/><path class="ytick ticks crisp" d="M79,0h-5" transform="translate(0,437.33)" style="stroke: rgb(51, 51, 51); stroke-opacity: 1; stroke-width: 1px;"/><path class="ytick ticks crisp" d="M79,0h-5" transform="translate(0,354.66999999999996)" style="stroke: rgb(51, 51, 51); stroke-opacity: 1; stroke-width: 1px;"/><path class="ytick ticks crisp" d="M79,0h-5" transform="translate(0,272)" style="stroke: rgb(51, 51, 51); stroke-opacity: 1; stroke-width: 1px;"/><path class="ytick ticks crisp" d="M79,0h-5" transform="translate(0,189.32999999999998)" style="stroke: rgb(51, 51, 51); stroke-opacity: 1; stroke-width: 1px;"/><path class="ytick ticks crisp" d="M79,0h-5" transform="translate(0,106.66)" style="stroke: rgb(51, 51, 51); stroke-opacity: 1; stroke-width: 1px;"/><g class="ytick"><text text-anchor="end" x="71.6" y="4.199999999999999" transform="translate(0,520)" style="font-family: 'Open Sans', verdana, arial, sans-serif; font-size: 12px; fill: rgb(51, 51, 51); fill-opacity: 1; white-space: pre; opacity: 1;">0</text></g><g class="ytick"><text text-anchor="end" x="71.6" y="4.199999999999999" style="font-family: 'Open Sans', verdana, arial, sans-serif; font-size: 12px; fill: rgb(51, 51, 51); fill-opacity: 1; white-space: pre; opacity: 1;" transform="translate(0,437.33)">50M</text></g><g class="ytick"><text text-anchor="end" x="71.6" y="4.199999999999999" style="font-family: 'Open Sans', verdana, arial, sans-serif; font-size: 12px; fill: rgb(51, 51, 51); fill-opacity: 1; white-space: pre; opacity: 1;" transform="translate(0,354.66999999999996)">100M</text></g><g class="ytick"><text text-anchor="end" x="71.6" y="4.199999999999999" style="font-family: 'Open Sans', verdana, arial, sans-serif; font-size: 12px; fill: rgb(51, 51, 51); fill-opacity: 1; white-space: pre; opacity: 1;" transform="translate(0,272)">150M</text></g><g class="ytick"><text text-anchor="end" x="71.6" y="4.199999999999999" style="font-family: 'Open Sans', verdana, arial, sans-serif; font-size: 12px; fill: rgb(51, 51, 51); fill-opacity: 1; white-space: pre; opacity: 1;" transform="translate(0,189.32999999999998)">200M</text></g><g class="ytick"><text text-anchor="end" x="71.6" y="4.199999999999999" style="font-family: 'Open Sans', verdana, arial, sans-serif; font-size: 12px; fill: rgb(51, 51, 51); fill-opacity: 1; white-space: pre; opacity: 1;" transform="translate(0,106.66)">250M</text></g></g><g class="overaxes-above"/></g></g><g class="polarlayer"/><g class="smithlayer"/><g class="ternarylayer"/><g class="geolayer"/><g class="funnelarealayer"/><g class="pielayer"/><g class="iciclelayer"/><g class="treemaplayer"/><g class="sunburstlayer"/><g class="glimages"/><defs id="topdefs-8b155e"><g class="clips"/></defs><g class="layer-above"><g class="imagelayer"/><g class="shapelayer"/></g><g class="infolayer"><g class="g-gtitle"><text class="gtitle" x="400" y="50" text-anchor="middle" dy="0em" style="font-family: 'Open Sans', verdana, arial, sans-serif; font-size: 17px; fill: rgb(51, 51, 51); opacity: 1; font-weight: normal; white-space: pre;">Cumulative Sum of Miner Payments for MEV</text></g><g class="g-xtitle"/><g class="g-ytitle"/></g></svg>