<svg class="main-svg" xmlns="http://www.w3.org/2000/svg" xmlns:xlink="http://www.w3.org/1999/xlink" width="800" height="600" style="" viewBox="0 0 800 600"><rect x="0" y="0" width="800" height="600" style="fill: rgb(255, 255, 255); fill-opacity: 1;"/><defs id="defs-199aa0"><g class="clips"><clipPath id="clip199aa0xyplot" class="plotclip"><rect width="547.0799999999999" height="420"/></clipPath><clipPath id="clip199aa0xy2plot" class="plotclip"><rect width="547.0799999999999" height="420"/></clipPath><clipPath class="axesclip" id="clip199aa0x"><rect x="80" y="0" width="547.0799999999999" height="600"/></clipPath><clipPath class="axesclip" id="clip199aa0y"><rect x="0" y="100" width="800" height="420"/></clipPath><clipPath class="axesclip" id="clip199aa0xy"><rect x="80" y="100" width="547.0799999999999" height="420"/></clipPath><clipPath class="axesclip" id="clip199aa0y2"><rect x="0" y="100" width="800" height="420"/></clipPath><clipPath class="axesclip" id="clip199aa0xy2"><rect x="80" y="100" width="547.0799999999999" height="420"/></clipPath></g><g class="gradients"/><g class="patterns"/></defs><g class="bglayer"><rect class="bg" x="80" y="100" width="547.0799999999999" height="420" style="fill: rgb(237, 237, 237); fill-opacity: 1; stroke-width: 0;"/></g><g class="layer-below"><g class="imagelayer"/><g class="shapelayer"/></g><g class="cartesianlayer"><g class="subplot xy"><g class="layer-subplot"><g class="shapelayer"/><g class="imagelayer"/></g><g class="minor-gridlayer"><g class="x"/><g class="y"/><g class="y2"/></g><g class="gridlayer"><g class="x"><path class="xgrid crisp" transform="translate(90.85,0)" d="M0,100v420" style="stroke: rgb(255, 255, 255); stroke-opacity: 1; stroke-width: 1px;"/><path class="xgrid crisp" transform="translate(189.63,0)" d="M0,100v420" style="stroke: rgb(255, 255, 255); stroke-opacity: 1; stroke-width: 1px;"/><path class="xgrid crisp" transform="translate(289.5,0)" d="M0,100v420" style="stroke: rgb(255, 255, 255); stroke-opacity: 1; stroke-width: 1px;"/><path class="xgrid crisp" transform="translate(387.73,0)" d="M0,100v420" style="stroke: rgb(255, 255, 255); stroke-opacity: 1; stroke-width: 1px;"/><path class="xgrid crisp" transform="translate(487.6,0)" d="M0,100v420" style="stroke: rgb(255, 255, 255); stroke-opacity: 1; stroke-width: 1px;"/><path class="xgrid crisp" transform="translate(585.8299999999999,0)" d="M0,100v420" style="stroke: rgb(255, 255, 255); stroke-opacity: 1; stroke-width: 1px;"/></g><g class="y"><path class="ygrid crisp" transform="translate(0,443.04)" d="M80,0h547.0799999999999" style="stroke: rgb(255, 255, 255); stroke-opacity: 1; stroke-width: 1px;"/><path class="ygrid crisp" transform="translate(0,387.09)" d="M80,0h547.0799999999999" style="stroke: rgb(255, 255, 255); stroke-opacity: 1; stroke-width: 1px;"/><path class="ygrid crisp" transform="translate(0,331.13)" d="M80,0h547.0799999999999" style="stroke: rgb(255, 255, 255); stroke-opacity: 1; stroke-width: 1px;"/><path class="ygrid crisp" transform="translate(0,275.16999999999996)" d="M80,0h547.0799999999999" style="stroke: rgb(255, 255, 255); stroke-opacity: 1; stroke-width: 1px;"/><path class="ygrid crisp" transform="translate(0,219.22)" d="M80,0h547.0799999999999" style="stroke: rgb(255, 255, 255); stroke-opacity: 1; stroke-width: 1px;"/><path class="ygrid crisp" transform="translate(0,163.26)" d="M80,0h547.0799999999999" style="stroke: rgb(255, 255, 255); stroke-opacity: 1; stroke-width: 1px;"/><path class="ygrid crisp" transform="translate(0,107.3)" d="M80,0h547.0799999999999" style="stroke: rgb(255, 255, 255); stroke-opacity: 1; stroke-width: 1px;"/></g><g class="y2"><path class="y2grid crisp" transform="translate(0,455.87)" d="M80,0h547.0799999999999" style="stroke: rgb(255, 255, 255); stroke-opacity: 1; stroke-width: 1px;"/><path class="y2grid crisp" transform="translate(0,412.74)" d="M80,0h547.0799999999999" style="stroke: rgb(255, 255, 255); stroke-opacity: 1; stroke-width: 1px;"/><path class="y2grid crisp" transform="translate(0,369.61)" d="M80,0h547.0799999999999" style="stroke: rgb(255, 255, 255); stroke-opacity: 1; stroke-width: 1px;"/><path class="y2grid crisp" transform="translate(0,326.48)" d="M80,0h547.0799999999999" style="stroke: rgb(255, 255, 255); stroke-opacity: 1; stroke-width: 1px;"/><path class="y2grid crisp" transform="translate(0,283.35)" d="M80,0h547.0799999999999" style="stroke: rgb(255, 255, 255); stroke-opacity: 1; stroke-width: 1px;"/><path class="y2grid crisp" transform="translate(0,240.22)" d="M80,0h547.0799999999999" style="stroke: rgb(255, 255, 255); stroke-opacity: 1; stroke-width: 1px;"/><path class="y2grid crisp" transform="translate(0,197.09)" d="M80,0h547.0799999999999" style="stroke: rgb(255, 255, 255); stroke-opacity: 1; stroke-width: 1px;"/><path class="y2grid crisp" transform="translate(0,153.97)" d="M80,0h547.0799999999999" style="stroke: rgb(255, 255, 255); stroke-opacity: 1; stroke-width: 1px;"/><path class="y2grid crisp" transform="translate(0,110.84)" d="M80,0h547.0799999999999" style="stroke: rgb(255, 255, 255); stroke-opacity: 1; stroke-width: 1px;"/></g></g><g class="zerolinelayer"><path class="yzl zl crisp" transform="translate(0,499)" d="M80,0h547.0799999999999" style="stroke: rgb(255, 255, 255); stroke-opacity: 1; stroke-width: 1px;"/><path class="y2zl zl crisp" transform="translate(0,499)" d="M80,0h547.0799999999999" style="stroke: rgb(255, 255, 255); stroke-opacity: 1; stroke-width: 1px;"/></g><path class="xlines-below"/><path class="ylines-below"/><g class="overlines-below"><path class="xy2-x"/><path class="xy2-y"/></g><g class="xaxislayer-below"/><g class="yaxislayer-below"/><g class="overaxes-below"><g class="xy2-x"/><g class="xy2-y"/></g><g class="plot" transform="translate(80,100)" clip-path="url(#clip199aa0xyplot)"><g class="scatterlayer mlayer"><g class="trace scatter trace1ef7ef" style="stroke-miterlimit: 2; opacity: 1;"><g class="fills"/><g class="errorbars"/><g class="lines"><path class="js-line" d="M0,399L48.85,398.61L49.39,397.23L103.12,396.96L103.66,396.96L124.83,395.85L125.37,395.8L129.71,395.36L130.26,394.08L134.6,391.19L135.14,391L140.57,389.02L141.11,388.88L142.74,387.97L143.28,387.22L146.54,383.53L147.08,383.22L150.88,380.21L151.42,379.73L154.68,377.48L155.22,377.2L167.16,373.33L167.71,373.26L178.56,371.74L179.1,371.61L180.19,370.12L180.73,370.04L189.42,368.48L189.96,360.52L197.01,359.08L197.56,358.87L204.07,357.06L204.61,356.62L210.04,354.57L210.58,354.32L214.38,352.14L214.92,350L219.27,347.41L219.81,347.12L222.52,344.23L223.07,343.83L227.41,340.28L227.95,339.35L230.66,335.92L231.21,335.35L235.55,330.12L236.09,328.53L237.18,327.38L237.72,324.8L238.8,313.99L239.35,313.53L246.4,307.36L246.95,306.53L253.46,300.77L254,300.07L260.51,295.12L261.06,293.38L262.69,290.64L263.23,290.21L267.03,287.26L267.57,283.2L269.74,280.57L270.28,278.73L275.17,275.7L275.71,275.19L278.42,271.84L278.97,270.82L283.85,256.45L284.39,231.93L286.57,216.74L287.11,215.94L291.45,211.87L291.99,211.59L302.31,205.59L302.85,204.2L306.1,202.9L306.65,202.71L317.5,198.16L318.04,197.66L328.9,191.3L329.44,190.75L340.84,182.9L341.38,182.44L344.1,180.31L344.64,177.55L346.27,175.4L346.81,175.05L351.15,172.51L351.69,171.78L353.87,170.05L354.41,169.83L360.38,166.14L360.92,164.76L364.18,161.71L364.72,159.73L366.35,157.35L366.89,156.93L371.23,152.92L371.78,151.1L375.03,145.92L375.57,145.23L380.46,138.79L381,138.21L382.63,136.42L383.17,132.86L391.86,118.18L392.4,113.16L396.2,107.12L396.74,106.04L398.91,102.6L399.46,102.32L401.63,98.61L402.17,97.73L404.88,90.16L405.43,89.89L408.14,88.55L408.68,88.36L409.77,87.29L410.31,86.58L411.4,85.12L411.94,84.97L413.02,83.47L413.57,83.21L417.91,81.14L418.45,76.8L419.54,74.58L420.08,73.65L427.68,71.41L428.22,70.79L430.39,69.17L430.93,69.09L432.56,68.82L433.1,67.57L439.08,64.35L439.62,64.23L451.56,61.32L452.1,60.63L458.07,59.15L458.61,59.01L467.84,56.55L468.38,56.5L471.1,55.56L471.64,55.41L476.52,53.81L477.07,52.44L477.61,52.09L478.15,49.93L479.24,45.14L479.78,45.02L489.55,43.54L490.09,43.51L494.43,42.73L494.98,42.19L495.52,41.77L496.06,37.38L497.69,30.6L498.23,30.48L499.32,28.28L499.86,28.23L513.43,27.17L513.97,26.15L522.11,25.49L522.66,22.82L547.08,21" style="vector-effect: non-scaling-stroke; fill: none; stroke: rgb(248, 118, 109); stroke-opacity: 1; stroke-width: 2px; opacity: 1;"/></g><g class="points"/><g class="text"/></g></g></g><g class="overplot"><g class="xy2" transform="translate(80,100)" clip-path="url(#clip199aa0xy2plot)"><g class="scatterlayer mlayer"><g class="trace scatter trace7ec7cb" style="stroke-miterlimit: 2; opacity: 1;"><g class="fills"/><g class="errorbars"/><g class="lines"><path class="js-line" d="M0,399L46.68,399L47.22,395.26L48.3,398.87L48.85,398.09L49.39,377.79L49.93,398.85L51.02,399L51.56,398.19L52.65,399L53.19,398.93L54.27,398.99L54.82,398.82L56.99,399L57.53,398.83L60.79,399L61.33,398.94L67.84,399L68.39,398.96L78.7,399L79.24,399L83.58,399L84.12,399L106.92,398.72L107.46,398.2L110.72,398.75L111.26,398.75L118.32,398.79L118.86,398.27L119.95,398.42L120.49,398.43L122.12,397.98L122.66,397.39L123.74,398.24L124.29,398.21L125.37,398.17L125.92,398.16L129.17,398.33L129.71,397.51L130.26,379.29L130.8,392.12L131.89,396.84L132.43,384.25L133.51,394.56L134.06,395.64L134.6,396.66L135.14,395.93L135.68,394.98L136.23,395.52L136.77,395.86L137.31,394.34L137.86,395.7L138.94,396.75L139.48,396.05L140.57,397.34L141.11,396.9L141.65,395.91L142.2,392.68L142.74,394.41L143.28,387.44L143.83,387.74L144.37,385.56L144.91,393.32L145.45,379.94L146.54,395.48L147.08,394.18L147.62,394.13L148.17,391.13L149.25,394.12L149.8,391.31L150.34,390.92L150.88,391.89L151.42,391.65L151.97,390.45L153.59,394.36L154.14,394.35L156.31,396.15L156.85,396.54L157.94,396.28L158.48,395.57L160.65,397.18L161.19,395.1L161.74,396.52L162.28,396.24L162.82,396.51L163.36,396.41L163.91,394.46L164.99,397.44L165.54,397.49L166.08,395.69L166.62,396.4L167.16,397.31L168.25,398.34L168.79,397.86L170.96,397.87L171.51,397.71L172.05,398.39L172.59,395.02L173.68,398.15L174.22,397.89L175.85,398.09L176.39,398.37L177.48,398.17L178.02,398.24L178.56,398.07L179.1,397.08L179.65,376.7L180.19,398.33L181.27,397.97L181.82,398.2L185.07,397.39L185.62,397.94L186.16,396.73L186.7,397.69L187.79,397.28L188.33,397.62L189.42,396.56L189.96,276.3L190.5,398L191.04,397.86L191.59,397.83L192.67,397.23L193.21,397.66L194.3,397.03L194.84,397.6L196.47,395.9L197.01,396.93L197.56,395.73L198.1,397.34L199.18,397.72L199.73,396.87L200.27,395.04L200.81,397.14L201.36,396.09L201.9,397.22L204.07,395.91L204.61,392.21L205.7,396.91L206.24,397.81L206.78,395.65L207.33,389.48L207.87,396.21L208.41,395.91L208.95,396.36L210.04,396.64L210.58,395.1L211.13,392.75L211.67,394.61L212.21,395.33L212.75,393.74L213.3,394.04L213.84,395.56L214.38,393.47L214.92,365.99L215.47,395.46L216.01,395.26L216.55,393.78L217.1,392.12L217.64,394.95L218.72,392.8L219.27,393.47L219.81,394.57L220.35,386.49L221.44,390.62L221.98,391.84L222.52,391.09L223.07,392.9L224.15,393.46L224.69,390.36L225.24,393.07L225.78,392.37L226.32,392.43L227.41,390.58L227.95,384.78L228.49,384.08L229.04,389.87L230.12,387.87L230.66,391.2L231.75,390.21L232.29,389.99L232.83,386.19L233.38,390.38L233.92,383.82L234.46,392.48L235.55,388.62L236.09,374.55L237.18,391.91L237.72,359.35L238.26,242.32L238.8,389.01L239.89,392.43L240.43,393.37L240.98,386.13L241.52,389L242.6,393.84L243.15,393.44L243.69,391.48L244.23,395.51L245.32,392.44L245.86,384.91L246.4,392.99L246.95,386.19L247.49,392.6L248.03,389.87L248.57,391.82L249.12,390.28L249.66,392.38L250.2,391.97L250.74,391.35L251.83,393.27L252.37,392.76L252.92,388.79L253.46,392.16L254,388.23L255.63,394.82L256.17,394.15L256.72,391.98L257.26,392.89L257.8,392.48L258.34,393.07L258.89,392.07L259.43,391.87L259.97,392.94L260.51,391.54L261.06,372.12L261.6,376.21L262.14,386.27L263.23,392.3L263.77,394.19L264.86,391.53L265.4,391.66L267.03,393.81L267.57,336.48L268.11,391.05L268.66,389.07L269.2,392.26L270.28,370.56L270.83,395.06L271.37,395.35L271.91,392.22L272.45,394.12L273,393.86L273.54,393.9L274.08,392.49L274.63,393.29L275.17,394.01L275.71,391.11L276.25,390.84L276.8,391.72L277.88,389.98L278.42,380.63L278.97,383.29L279.51,372.19L280.05,383.44L280.6,362.14L281.14,362.29L281.68,371.98L282.22,382.77L282.77,381.49L283.31,366.87L283.85,386.4L284.39,21L285.48,337.53L286.02,388.87L286.57,308.95L287.11,386.6L287.65,390.47L288.19,381.29L289.28,391.82L289.82,392.92L290.36,394.72L290.91,392.47L291.45,395L291.99,394.69L292.54,394.32L293.08,390.27L293.62,396.11L294.16,396.73L294.71,393.91L295.25,391.17L295.79,393.96L296.33,394.57L296.88,394.01L297.96,395.57L298.51,394.92L300.13,395.23L300.68,393.3L301.22,397.03L301.76,395.72L302.31,386.84L302.85,377.62L303.39,393.68L303.93,396.56L304.48,394.89L305.56,396.79L306.1,395.78L309.36,396.89L309.9,395.85L310.45,393.19L310.99,394.3L311.53,394.73L312.07,396.38L312.62,396.01L313.16,397.01L315.33,393.23L315.87,395.04L316.96,395.5L317.5,394.34L318.04,391.26L318.59,394.46L319.67,395.72L320.22,395.21L320.76,396.22L321.3,392.04L321.84,395.22L322.39,393.57L323.47,394.57L324.01,394.79L325.64,393.97L326.19,394.91L326.73,392.49L327.27,392.91L327.81,393.39L328.36,393.36L328.9,389.71L329.44,390.59L329.98,393.33L331.61,395.2L332.16,394.93L333.24,391.46L333.78,392.68L334.33,393.96L334.87,393.42L335.41,394.47L336.5,393.88L337.04,392.64L339.21,394.95L339.75,391.11L340.3,384.34L340.84,392.36L341.38,391.86L341.92,392.62L342.47,392.35L343.01,393.67L344.1,391.3L344.64,356.46L345.72,391.61L346.27,389.1L347.35,395.47L347.9,392.58L348.44,395.44L348.98,393.41L350.07,392.57L350.61,395.34L351.15,394.77L351.69,387.7L352.24,388.02L352.78,394.62L353.32,394.84L353.87,391.84L354.41,395.64L354.95,393.12L356.04,395.58L356.58,393.76L357.12,395.66L357.66,394.43L358.75,396.18L359.29,393.11L359.84,389.74L360.38,390.16L360.92,377.78L362.01,395.16L362.55,392.96L363.09,384.84L363.63,389.66L364.18,391.9L364.72,368.37L366.35,392.93L366.89,392.59L367.98,392.01L368.52,389.84L369.6,393.95L370.15,388.8L370.69,391.26L371.23,388.57L371.78,370.95L372.32,382.17L372.86,386.7L373.4,382.17L373.95,389.21L374.49,388.22L375.03,385.64L375.57,388.32L376.12,385.45L377.75,391.44L378.29,388.66L379.37,382.84L379.92,389.66L381,390.17L381.54,393.16L382.09,391.57L382.63,384.62L383.17,344.14L383.72,385.47L384.26,388.7L384.8,387.63L385.34,379.71L386.43,385.71L386.97,380.91L387.51,388.09L388.06,381.01L389.14,388.87L389.69,374.01L390.23,389.02L390.77,385.78L391.31,388.6L391.86,383.33L392.4,321.6L392.94,387.81L393.49,384.3L394.03,382.97L394.57,392.27L395.11,385.64L395.66,376.11L396.2,390.74L397.28,380.92L397.83,384.34L399.46,394.73L400,378.52L401.08,387.26L401.63,386.7L402.17,385.53L402.71,372.95L403.25,384.43L403.8,359.18L404.34,366.32L404.88,395.35L405.43,394.85L405.97,392.17L407.05,395.72L407.6,394.67L408.14,396.73L408.68,396.14L409.22,394.4L410.85,381.36L411.4,394.12L411.94,396.69L412.48,379.64L413.02,395.27L413.57,394.97L414.11,396.15L415.74,396.66L416.28,388.49L417.37,395.59L417.91,395.88L418.45,331.96L418.99,367.15L419.54,396.64L420.08,384.77L420.62,397.08L421.16,394.62L421.71,395.57L422.25,397.51L422.79,397.27L423.34,397.43L424.42,396.24L424.96,396.96L425.51,395.99L426.05,397.08L426.59,397.46L427.13,394.75L427.68,396.71L428.22,389.37L428.76,388.85L429.31,397.16L429.85,387.7L430.39,397.3L431.48,397.99L432.02,397.63L432.56,397.22L433.1,379.79L434.19,397.97L434.73,391.69L435.82,396.52L436.36,397.44L437.45,386.56L437.99,397.05L439.08,397.07L439.62,397.22L440.7,397.54L441.25,395.39L441.79,396.99L442.33,395.98L442.87,390.89L443.42,397.7L445.05,397.38L445.59,398.31L447.22,397.63L447.76,396L448.84,396.77L449.39,398.17L450.47,397.34L451.02,396.68L451.56,397.86L452.1,388.41L453.19,398.19L453.73,393.24L454.27,397.55L454.81,397.39L455.36,397.65L455.9,396.05L456.44,396.27L456.99,396.71L458.07,397.52L458.61,396.88L459.16,396.01L459.7,397.88L460.24,396.17L460.78,397.35L461.33,398.1L461.87,394.63L464.04,397.97L464.58,398.23L465.13,391.58L465.67,397.11L466.21,397.86L466.75,397.44L467.3,397.32L468.93,398.34L469.47,397.04L470.01,397.06L470.55,390.53L471.1,397.47L471.64,396.75L472.18,395.74L472.72,397.22L473.27,393.23L473.81,398.19L474.35,398.03L474.9,396.82L475.44,395.88L475.98,397.2L476.52,393.89L477.07,377.93L477.61,393.57L478.15,365.72L478.69,328.8L479.24,395.39L480.32,397.2L480.87,397.86L481.95,397.41L482.49,397.13L483.58,398.59L484.12,398.48L485.75,397.81L486.29,394.2L487.38,398.49L487.92,398.24L488.46,397.27L489.01,398.43L489.55,397.87L490.09,398.5L492.26,398.61L492.81,397.52L493.35,394.82L493.89,398.17L494.98,390.69L495.52,392.4L496.06,331.39L496.61,341.31L497.15,378.14L497.69,373.02L498.23,397.17L498.78,366.66L499.32,397.45L500.4,398.06L500.95,398.28L502.58,398.36L503.12,398.08L504.2,398.35L504.75,397.99L505.29,398.2L505.83,396.82L506.92,398.64L507.46,398.29L510.17,398.75L510.72,398.35L513.43,398.57L513.97,383.33L514.52,398.55L515.06,397.83L515.6,397.99L519.94,398.31L520.49,397.56L521.57,398.52L522.11,398.4L522.66,357.77L523.2,398.51L525.37,398.71L525.91,398.66L527.54,398.12L528.08,398.1L529.17,398.39L529.71,398.01L531.88,398.59L532.43,396.98L532.97,398.61L533.51,398.32L534.05,398.19L535.68,398.74L536.23,398.2L537.31,398.48L537.85,397.97L538.94,398.54L539.48,398.68L541.65,398.54L542.2,398.42L543.82,398.49L544.37,398.65L545.99,397.59L546.54,398.51L547.08,398.82" style="vector-effect: non-scaling-stroke; fill: none; stroke: rgb(163, 165, 0); stroke-opacity: 1; stroke-width: 2px; opacity: 1;"/></g><g class="points"/><g class="text"/></g></g></g></g><path class="xlines-above crisp" d="" style="fill: none; stroke-width: 1px; stroke: rgb(0, 0, 0); stroke-opacity: 0;"/><path class="ylines-above crisp" d="" style="fill: none; stroke-width: 1px; stroke: rgb(0, 0, 0); stroke-opacity: 0;"/><g class="overlines-above"><path class="xy2-x crisp" d="M0,0" style="fill: none;"/><path class="xy2-y crisp" d="" style="fill: none; stroke-width: 1px; stroke: rgb(0, 0, 0); stroke-opacity: 0;"/></g><g class="xaxislayer-above"><path class="xtick ticks crisp" d="M0,521v5" transform="translate(90.85,0)" style="stroke: rgb(51, 51, 51); stroke-opacity: 1; stroke-width: 1px;"/><path class="xtick ticks crisp" d="M0,521v5" transform="translate(189.63,0)" style="stroke: rgb(51, 51, 51); stroke-opacity: 1; stroke-width: 1px;"/><path class="xtick ticks crisp" d="M0,521v5" transform="translate(289.5,0)" style="stroke: rgb(51, 51, 51); stroke-opacity: 1; stroke-width: 1px;"/><path class="xtick ticks crisp" d="M0,521v5" transform="translate(387.73,0)" style="stroke: rgb(51, 51, 51); stroke-opacity: 1; stroke-width: 1px;"/><path class="xtick ticks crisp" d="M0,521v5" transform="translate(487.6,0)" style="stroke: rgb(51, 51, 51); stroke-opacity: 1; stroke-width: 1px;"/><path class="xtick ticks crisp" d="M0,521v5" transform="translate(585.8299999999999,0)" style="stroke: rgb(51, 51, 51); stroke-opacity: 1; stroke-width: 1px;"/><g class="xtick"><text text-anchor="middle" x="0" y="540.4" transform="translate(90.85,0)" style="font-family: 'Open Sans', verdana, arial, sans-serif; font-size: 12px; fill: rgb(51, 51, 51); fill-opacity: 1; white-space: pre; opacity: 1;">Jan 2020</text></g><g class="xtick"><text text-anchor="middle" x="0" y="540.4" style="font-family: 'Open Sans', verdana, arial, sans-serif; font-size: 12px; fill: rgb(51, 51, 51); fill-opacity: 1; white-space: pre; opacity: 1;" transform="translate(189.63,0)">Jul 2020</text></g><g class="xtick"><text text-anchor="middle" x="0" y="540.4" style="font-family: 'Open Sans', verdana, arial, sans-serif; font-size: 12px; fill: rgb(51, 51, 51); fill-opacity: 1; white-space: pre; opacity: 1;" transform="translate(289.5,0)">Jan 2021</text></g><g class="xtick"><text text-anchor="middle" x="0" y="540.4" style="font-family: 'Open Sans', verdana, arial, sans-serif; font-size: 12px; fill: rgb(51, 51, 51); fill-opacity: 1; white-space: pre; opacity: 1;" transform="translate(387.73,0)">Jul 2021</text></g><g class="xtick"><text text-anchor="middle" x="0" y="540.4" style="font-family: 'Open Sans', verdana, arial, sans-serif; font-size: 12px; fill: rgb(51, 51, 51); fill-opacity: 1; white-space: pre; opacity: 1;" transform="translate(487.6,0)">Jan 2022</text></g><g class="xtick"><text text-anchor="middle" x="0" y="540.4" style="font-family: 'Open Sans', verdana, arial, sans-serif; font-size: 12px; fill: rgb(51, 51, 51); fill-opacity: 1; white-space: pre; opacity: 1;" transform="translate(585.8299999999999,0)">Jul 2022</text></g></g><g class="yaxislayer-above"><path class="ytick ticks crisp" d="M79,0h-5" transform="translate(0,499)" style="stroke: rgb(51, 51, 51); stroke-opacity: 1; stroke-width: 1px;"/><path class="ytick ticks crisp" d="M79,0h-5" transform="translate(0,443.04)" style="stroke: rgb(51, 51, 51); stroke-opacity: 1; stroke-width: 1px;"/><path class="ytick ticks crisp" d="M79,0h-5" transform="translate(0,387.09)" style="stroke: rgb(51, 51, 51); stroke-opacity: 1; stroke-width: 1px;"/><path class="ytick ticks crisp" d="M79,0h-5" transform="translate(0,331.13)" style="stroke: rgb(51, 51, 51); stroke-opacity: 1; stroke-width: 1px;"/><path class="ytick ticks crisp" d="M79,0h-5" transform="translate(0,275.16999999999996)" style="stroke: rgb(51, 51, 51); stroke-opacity: 1; stroke-width: 1px;"/><path class="ytick ticks crisp" d="M79,0h-5" transform="translate(0,219.22)" style="stroke: rgb(51, 51, 51); stroke-opacity: 1; stroke-width: 1px;"/><path class="ytick ticks crisp" d="M79,0h-5" transform="translate(0,163.26)" style="stroke: rgb(51, 51, 51); stroke-opacity: 1; stroke-width: 1px;"/><path class="ytick ticks crisp" d="M79,0h-5" transform="translate(0,107.3)" style="stroke: rgb(51, 51, 51); stroke-opacity: 1; stroke-width: 1px;"/><g class="ytick"><text text-anchor="end" x="71.6" y="4.199999999999999" transform="translate(0,499)" style="font-family: 'Open Sans', verdana, arial, sans-serif; font-size: 12px; fill: rgb(51, 51, 51); fill-opacity: 1; white-space: pre; opacity: 1;">0</text></g><g class="ytick"><text text-anchor="end" x="71.6" y="4.199999999999999" style="font-family: 'Open Sans', verdana, arial, sans-serif; font-size: 12px; fill: rgb(51, 51, 51); fill-opacity: 1; white-space: pre; opacity: 1;" transform="translate(0,443.04)">100M</text></g><g class="ytick"><text text-anchor="end" x="71.6" y="4.199999999999999" style="font-family: 'Open Sans', verdana, arial, sans-serif; font-size: 12px; fill: rgb(51, 51, 51); fill-opacity: 1; white-space: pre; opacity: 1;" transform="translate(0,387.09)">200M</text></g><g class="ytick"><text text-anchor="end" x="71.6" y="4.199999999999999" style="font-family: 'Open Sans', verdana, arial, sans-serif; font-size: 12px; fill: rgb(51, 51, 51); fill-opacity: 1; white-space: pre; opacity: 1;" transform="translate(0,331.13)">300M</text></g><g class="ytick"><text text-anchor="end" x="71.6" y="4.199999999999999" style="font-family: 'Open Sans', verdana, arial, sans-serif; font-size: 12px; fill: rgb(51, 51, 51); fill-opacity: 1; white-space: pre; opacity: 1;" transform="translate(0,275.16999999999996)">400M</text></g><g class="ytick"><text text-anchor="end" x="71.6" y="4.199999999999999" style="font-family: 'Open Sans', verdana, arial, sans-serif; font-size: 12px; fill: rgb(51, 51, 51); fill-opacity: 1; white-space: pre; opacity: 1;" transform="translate(0,219.22)">500M</text></g><g class="ytick"><text text-anchor="end" x="71.6" y="4.199999999999999" style="font-family: 'Open Sans', verdana, arial, sans-serif; font-size: 12px; fill: rgb(51, 51, 51); fill-opacity: 1; white-space: pre; opacity: 1;" transform="translate(0,163.26)">600M</text></g><g class="ytick"><text text-anchor="end" x="71.6" y="4.199999999999999" style="font-family: 'Open Sans', verdana, arial, sans-serif; font-size: 12px; fill: rgb(51, 51, 51); fill-opacity: 1; white-space: pre; opacity: 1;" transform="translate(0,107.3)">700M</text></g></g><g class="overaxes-above"><g class="xy2-x"/><g class="xy2-y"><path class="y2tick ticks crisp" d="M628.0799999999999,0h5" transform="translate(0,499)" style="stroke: rgb(51, 51, 51); stroke-opacity: 1; stroke-width: 1px;"/><path class="y2tick ticks crisp" d="M628.0799999999999,0h5" transform="translate(0,455.87)" style="stroke: rgb(51, 51, 51); stroke-opacity: 1; stroke-width: 1px;"/><path class="y2tick ticks crisp" d="M628.0799999999999,0h5" transform="translate(0,412.74)" style="stroke: rgb(51, 51, 51); stroke-opacity: 1; stroke-width: 1px;"/><path class="y2tick ticks crisp" d="M628.0799999999999,0h5" transform="translate(0,369.61)" style="stroke: rgb(51, 51, 51); stroke-opacity: 1; stroke-width: 1px;"/><path class="y2tick ticks crisp" d="M628.0799999999999,0h5" transform="translate(0,326.48)" style="stroke: rgb(51, 51, 51); stroke-opacity: 1; stroke-width: 1px;"/><path class="y2tick ticks crisp" d="M628.0799999999999,0h5" transform="translate(0,283.35)" style="stroke: rgb(51, 51, 51); stroke-opacity: 1; stroke-width: 1px;"/><path class="y2tick ticks crisp" d="M628.0799999999999,0h5" transform="translate(0,240.22)" style="stroke: rgb(51, 51, 51); stroke-opacity: 1; stroke-width: 1px;"/><path class="y2tick ticks crisp" d="M628.0799999999999,0h5" transform="translate(0,197.09)" style="stroke: rgb(51, 51, 51); stroke-opacity: 1; stroke-width: 1px;"/><path class="y2tick ticks crisp" d="M628.0799999999999,0h5" transform="translate(0,153.97)" style="stroke: rgb(51, 51, 51); stroke-opacity: 1; stroke-width: 1px;"/><path class="y2tick ticks crisp" d="M628.0799999999999,0h5" transform="translate(0,110.84)" style="stroke: rgb(51, 51, 51); stroke-opacity: 1; stroke-width: 1px;"/><g class="y2tick"><text text-anchor="start" x="635.4799999999999" y="4.199999999999999" transform="translate(0,499)" style="font-family: 'Open Sans', verdana, arial, sans-serif; font-size: 12px; fill: rgb(51, 51, 51); fill-opacity: 1; white-space: pre; opacity: 1;">0</text></g><g class="y2tick"><text text-anchor="start" x="635.4799999999999" y="4.199999999999999" style="font-family: 'Open Sans', verdana, arial, sans-serif; font-size: 12px; fill: rgb(51, 51, 51); fill-opacity: 1; white-space: pre; opacity: 1;" transform="translate(0,455.87)">5M</text></g><g class="y2tick"><text text-anchor="start" x="635.4799999999999" y="4.199999999999999" style="font-family: 'Open Sans', verdana, arial, sans-serif; font-size: 12px; fill: rgb(51, 51, 51); fill-opacity: 1; white-space: pre; opacity: 1;" transform="translate(0,412.74)">10M</text></g><g class="y2tick"><text text-anchor="start" x="635.4799999999999" y="4.199999999999999" style="font-family: 'Open Sans', verdana, arial, sans-serif; font-size: 12px; fill: rgb(51, 51, 51); fill-opacity: 1; white-space: pre; opacity: 1;" transform="translate(0,369.61)">15M</text></g><g class="y2tick"><text text-anchor="start" x="635.4799999999999" y="4.199999999999999" style="font-family: 'Open Sans', verdana, arial, sans-serif; font-size: 12px; fill: rgb(51, 51, 51); fill-opacity: 1; white-space: pre; opacity: 1;" transform="translate(0,326.48)">20M</text></g><g class="y2tick"><text text-anchor="start" x="635.4799999999999" y="4.199999999999999" style="font-family: 'Open Sans', verdana, arial, sans-serif; font-size: 12px; fill: rgb(51, 51, 51); fill-opacity: 1; white-space: pre; opacity: 1;" transform="translate(0,283.35)">25M</text></g><g class="y2tick"><text text-anchor="start" x="635.4799999999999" y="4.199999999999999" style="font-family: 'Open Sans', verdana, arial, sans-serif; font-size: 12px; fill: rgb(51, 51, 51); fill-opacity: 1; white-space: pre; opacity: 1;" transform="translate(0,240.22)">30M</text></g><g class="y2tick"><text text-anchor="start" x="635.4799999999999" y="4.199999999999999" style="font-family: 'Open Sans', verdana, arial, sans-serif; font-size: 12px; fill: rgb(51, 51, 51); fill-opacity: 1; white-space: pre; opacity: 1;" transform="translate(0,197.09)">35M</text></g><g class="y2tick"><text text-anchor="start" x="635.4799999999999" y="4.199999999999999" style="font-family: 'Open Sans', verdana, arial, sans-serif; font-size: 12px; fill: rgb(51, 51, 51); fill-opacity: 1; white-space: pre; opacity: 1;" transform="translate(0,153.97)">40M</text></g><g class="y2tick"><text text-anchor="start" x="635.4799999999999" y="4.199999999999999" style="font-family: 'Open Sans', verdana, arial, sans-serif; font-size: 12px; fill: rgb(51, 51, 51); fill-opacity: 1; white-space: pre; opacity: 1;" transform="translate(0,110.84)">45M</text></g></g></g></g><g class="subplot xy2"/></g><g class="polarlayer"/><g class="smithlayer"/><g class="ternarylayer"/><g class="geolayer"/><g class="funnelarealayer"/><g class="pielayer"/><g class="iciclelayer"/><g class="treemaplayer"/><g class="sunburstlayer"/><g class="glimages"/><defs id="topdefs-199aa0"><g class="clips"/><clipPath id="legend199aa0"><rect width="114" height="48" x="0" y="0"/></clipPath></defs><g class="layer-above"><g class="imagelayer"/><g class="shapelayer"/></g><g class="infolayer"><g class="legend" pointer-events="all" transform="translate(673.64,100)"><rect class="bg" shape-rendering="crispEdges" width="114" height="48" x="0" y="0" style="stroke: rgb(68, 68, 68); stroke-opacity: 1; fill: rgb(255, 255, 255); fill-opacity: 1; stroke-width: 0px;"/><g class="scrollbox" transform="" clip-path="url(#legend199aa0)"><g class="groups"><g class="traces" transform="translate(0,14.5)" style="opacity: 1;"><text class="legendtext" text-anchor="start" x="40" y="4.680000000000001" style="font-family: 'Open Sans', verdana, arial, sans-serif; font-size: 12px; fill: rgb(51, 51, 51); fill-opacity: 1; white-space: pre;">Cumulative</text><g class="layers" style="opacity: 1;"><g class="legendfill"/><g class="legendlines"><path class="js-line" d="M5,0h30" style="fill: none; stroke: rgb(248, 118, 109); stroke-opacity: 1; stroke-width: 2px;"/></g><g class="legendsymbols"><g class="legendpoints"/></g></g><rect class="legendtoggle" x="0" y="-9.5" width="108.015625" height="19" style="fill: rgb(0, 0, 0); fill-opacity: 0;"/></g><g class="traces" transform="translate(0,33.5)" style="opacity: 1;"><text class="legendtext" text-anchor="start" x="40" y="4.680000000000001" style="font-family: 'Open Sans', verdana, arial, sans-serif; font-size: 12px; fill: rgb(51, 51, 51); fill-opacity: 1; white-space: pre;">Daily</text><g class="layers" style="opacity: 1;"><g class="legendfill"/><g class="legendlines"><path class="js-line" d="M5,0h30" style="fill: none; stroke: rgb(163, 165, 0); stroke-opacity: 1; stroke-width: 2px;"/></g><g class="legendsymbols"><g class="legendpoints"/></g></g><rect class="legendtoggle" x="0" y="-9.5" width="108.015625" height="19" style="fill: rgb(0, 0, 0); fill-opacity: 0;"/></g></g></g><rect class="scrollbar" rx="20" ry="3" width="0" height="0" x="0" y="0" style="fill: rgb(128, 139, 164); fill-opacity: 1;"/></g><g class="g-gtitle"><text class="gtitle" x="400" y="50" text-anchor="middle" dy="0em" style="font-family: 'Open Sans', verdana, arial, sans-serif; font-size: 17px; fill: rgb(51, 51, 51); opacity: 1; font-weight: normal; white-space: pre;">Cumulative &amp; Daily Extracted MEV - Gross Profit</text></g><g class="g-xtitle"/><g class="g-ytitle"/><g class="g-y2title"/></g></svg>