<svg class="main-svg" xmlns="http://www.w3.org/2000/svg" xmlns:xlink="http://www.w3.org/1999/xlink" width="800" height="600" style="" viewBox="0 0 800 600"><rect x="0" y="0" width="800" height="600" style="fill: rgb(255, 255, 255); fill-opacity: 1;"/><defs id="defs-469023"><g class="clips"><clipPath id="clip469023xyplot" class="plotclip"><rect width="554.6" height="420"/></clipPath><clipPath id="clip469023xy2plot" class="plotclip"><rect width="554.6" height="420"/></clipPath><clipPath class="axesclip" id="clip469023x"><rect x="80" y="0" width="554.6" height="600"/></clipPath><clipPath class="axesclip" id="clip469023y"><rect x="0" y="100" width="800" height="420"/></clipPath><clipPath class="axesclip" id="clip469023xy"><rect x="80" y="100" width="554.6" height="420"/></clipPath><clipPath class="axesclip" id="clip469023y2"><rect x="0" y="100" width="800" height="420"/></clipPath><clipPath class="axesclip" id="clip469023xy2"><rect x="80" y="100" width="554.6" height="420"/></clipPath></g><g class="gradients"/><g class="patterns"/></defs><g class="bglayer"><rect class="bg" x="80" y="100" width="554.6" height="420" style="fill: rgb(237, 237, 237); fill-opacity: 1; stroke-width: 0;"/></g><g class="layer-below"><g class="imagelayer"/><g class="shapelayer"/></g><g class="cartesianlayer"><g class="subplot xy"><g class="layer-subplot"><g class="shapelayer"/><g class="imagelayer"/></g><g class="gridlayer"><g class="x"><path class="xgrid crisp" transform="translate(91,0)" d="M0,100v420" style="stroke: rgb(255, 255, 255); stroke-opacity: 1; stroke-width: 1px;"/><path class="xgrid crisp" transform="translate(191.14,0)" d="M0,100v420" style="stroke: rgb(255, 255, 255); stroke-opacity: 1; stroke-width: 1px;"/><path class="xgrid crisp" transform="translate(292.38,0)" d="M0,100v420" style="stroke: rgb(255, 255, 255); stroke-opacity: 1; stroke-width: 1px;"/><path class="xgrid crisp" transform="translate(391.96,0)" d="M0,100v420" style="stroke: rgb(255, 255, 255); stroke-opacity: 1; stroke-width: 1px;"/><path class="xgrid crisp" transform="translate(493.2,0)" d="M0,100v420" style="stroke: rgb(255, 255, 255); stroke-opacity: 1; stroke-width: 1px;"/><path class="xgrid crisp" transform="translate(592.78,0)" d="M0,100v420" style="stroke: rgb(255, 255, 255); stroke-opacity: 1; stroke-width: 1px;"/></g><g class="y"><path class="ygrid crisp" transform="translate(0,443.04)" d="M80,0h554.6" style="stroke: rgb(255, 255, 255); stroke-opacity: 1; stroke-width: 1px;"/><path class="ygrid crisp" transform="translate(0,387.09)" d="M80,0h554.6" style="stroke: rgb(255, 255, 255); stroke-opacity: 1; stroke-width: 1px;"/><path class="ygrid crisp" transform="translate(0,331.13)" d="M80,0h554.6" style="stroke: rgb(255, 255, 255); stroke-opacity: 1; stroke-width: 1px;"/><path class="ygrid crisp" transform="translate(0,275.16999999999996)" d="M80,0h554.6" style="stroke: rgb(255, 255, 255); stroke-opacity: 1; stroke-width: 1px;"/><path class="ygrid crisp" transform="translate(0,219.22)" d="M80,0h554.6" style="stroke: rgb(255, 255, 255); stroke-opacity: 1; stroke-width: 1px;"/><path class="ygrid crisp" transform="translate(0,163.26)" d="M80,0h554.6" style="stroke: rgb(255, 255, 255); stroke-opacity: 1; stroke-width: 1px;"/><path class="ygrid crisp" transform="translate(0,107.3)" d="M80,0h554.6" style="stroke: rgb(255, 255, 255); stroke-opacity: 1; stroke-width: 1px;"/></g><g class="y2"><path class="y2grid crisp" transform="translate(0,455.87)" d="M80,0h554.6" style="stroke: rgb(255, 255, 255); stroke-opacity: 1; stroke-width: 1px;"/><path class="y2grid crisp" transform="translate(0,412.74)" d="M80,0h554.6" style="stroke: rgb(255, 255, 255); stroke-opacity: 1; stroke-width: 1px;"/><path class="y2grid crisp" transform="translate(0,369.61)" d="M80,0h554.6" style="stroke: rgb(255, 255, 255); stroke-opacity: 1; stroke-width: 1px;"/><path class="y2grid crisp" transform="translate(0,326.48)" d="M80,0h554.6" style="stroke: rgb(255, 255, 255); stroke-opacity: 1; stroke-width: 1px;"/><path class="y2grid crisp" transform="translate(0,283.35)" d="M80,0h554.6" style="stroke: rgb(255, 255, 255); stroke-opacity: 1; stroke-width: 1px;"/><path class="y2grid crisp" transform="translate(0,240.22)" d="M80,0h554.6" style="stroke: rgb(255, 255, 255); stroke-opacity: 1; stroke-width: 1px;"/><path class="y2grid crisp" transform="translate(0,197.09)" d="M80,0h554.6" style="stroke: rgb(255, 255, 255); stroke-opacity: 1; stroke-width: 1px;"/><path class="y2grid crisp" transform="translate(0,153.97)" d="M80,0h554.6" style="stroke: rgb(255, 255, 255); stroke-opacity: 1; stroke-width: 1px;"/><path class="y2grid crisp" transform="translate(0,110.84)" d="M80,0h554.6" style="stroke: rgb(255, 255, 255); stroke-opacity: 1; stroke-width: 1px;"/></g></g><g class="zerolinelayer"><path class="yzl zl crisp" transform="translate(0,499)" d="M80,0h554.6" style="stroke: rgb(255, 255, 255); stroke-opacity: 1; stroke-width: 1px;"/><path class="y2zl zl crisp" transform="translate(0,499)" d="M80,0h554.6" style="stroke: rgb(255, 255, 255); stroke-opacity: 1; stroke-width: 1px;"/></g><path class="xlines-below"/><path class="ylines-below"/><g class="overlines-below"><path class="xy2-x"/><path class="xy2-y"/></g><g class="xaxislayer-below"/><g class="yaxislayer-below"/><g class="overaxes-below"><g class="xy2-x"/><g class="xy2-y"/></g><g class="plot" transform="translate(80,100)" clip-path="url(#clip469023xyplot)"><g class="scatterlayer mlayer"><g class="trace scatter trace004ad4" style="stroke-miterlimit: 2; opacity: 1;"><g class="fills"/><g class="errorbars"/><g class="lines"><path class="js-line" d="M0,399L49.52,398.61L50.07,397.23L104.54,396.96L105.09,396.96L126.55,395.85L127.1,395.8L131.5,395.36L132.05,394.08L136.45,391.19L137,391L142.5,389.02L143.05,388.88L144.7,387.97L145.25,387.22L148.55,383.53L149.1,383.22L152.96,380.21L153.51,379.73L156.81,377.48L157.36,377.2L169.46,373.33L170.01,373.26L181.02,371.74L181.57,371.61L182.67,370.12L183.22,370.04L192.02,368.48L192.57,360.52L199.72,359.08L200.27,358.87L206.87,357.06L207.42,356.62L212.93,354.57L213.48,354.32L217.33,352.14L217.88,350L222.83,347.12L223.38,346.31L228.88,341.74L229.43,341.31L231.63,338.39L232.18,337.79L238.79,330.12L239.34,328.53L240.44,327.38L240.99,324.8L242.09,313.99L242.64,313.53L249.79,307.36L250.34,306.53L256.94,300.77L257.49,300.07L264.1,295.12L264.65,293.38L266.3,290.64L266.85,290.21L270.7,287.26L271.25,283.2L273.45,280.57L274,278.73L278.95,275.7L279.5,275.19L282.25,271.84L282.8,270.82L287.75,256.45L288.3,231.93L290.5,216.74L291.05,215.94L295.46,211.87L296.01,211.59L306.46,205.59L307.01,204.2L310.31,202.9L310.86,202.71L321.87,198.16L322.42,197.66L333.42,191.3L333.97,190.75L345.52,182.9L346.07,182.44L348.83,180.31L349.38,177.55L351.03,175.4L351.58,175.05L355.98,172.51L356.53,171.78L358.73,170.05L359.28,169.83L365.33,166.14L365.88,164.76L369.18,161.71L369.73,159.73L371.38,157.35L371.93,156.93L376.34,152.92L376.89,151.1L380.19,145.92L380.74,145.23L385.14,139.34L385.69,138.79L387.89,136.42L388.44,132.86L397.24,118.18L397.79,113.16L401.64,107.12L402.2,106.04L404.4,102.6L404.95,102.32L407.15,98.61L407.7,97.73L410.45,90.16L411,89.89L413.75,88.55L414.3,88.36L415.4,87.29L415.95,86.58L417.05,85.12L417.6,84.97L418.7,83.47L419.25,83.21L423.65,81.14L424.2,76.8L425.3,74.58L425.85,73.65L433.56,71.41L434.11,70.79L436.31,69.17L436.86,69.09L438.51,68.82L439.06,67.57L445.11,64.35L445.66,64.23L457.77,61.32L458.32,60.63L464.37,59.15L464.92,59.01L474.27,56.55L474.82,56.5L477.57,55.56L478.12,55.41L483.07,53.81L483.62,52.44L484.17,52.09L484.72,49.93L485.83,45.14L486.38,45.02L496.28,43.54L496.83,43.51L501.23,42.73L501.78,42.19L502.33,41.77L502.88,37.38L504.53,30.6L505.08,30.48L506.18,28.28L506.73,28.23L520.49,27.17L521.04,26.15L529.29,25.49L529.84,22.82L554.6,21" style="vector-effect: non-scaling-stroke; fill: none; stroke: rgb(248, 118, 109); stroke-opacity: 1; stroke-width: 2px; opacity: 1;"/></g><g class="points"/><g class="text"/></g></g></g><g class="overplot"><g class="xy2" transform="translate(80,100)" clip-path="url(#clip469023xy2plot)"><g class="scatterlayer mlayer"><g class="trace scatter trace27af6a" style="stroke-miterlimit: 2; opacity: 1;"><g class="fills"/><g class="errorbars"/><g class="lines"><path class="js-line" d="M0,399L47.32,399L47.87,395.26L48.97,398.87L49.52,398.09L50.07,377.79L50.62,398.85L51.72,399L52.27,398.19L53.37,399L53.92,398.93L55.02,398.99L55.57,398.82L57.77,399L58.32,398.83L61.62,399L62.17,398.94L68.77,399L69.33,398.96L79.78,399L80.33,399L84.73,399L85.28,399L108.39,398.72L108.94,398.2L112.24,398.75L112.79,398.75L119.94,398.79L120.49,398.27L121.59,398.42L122.14,398.43L123.79,397.98L124.34,397.39L125.45,398.24L126,398.21L127.1,398.17L127.65,398.16L130.95,398.33L131.5,397.51L132.05,379.29L132.6,392.12L133.7,396.84L134.25,384.25L135.35,394.56L135.9,395.64L136.45,396.66L137,395.93L137.55,394.98L138.1,395.52L138.65,395.86L139.2,394.34L139.75,395.7L140.85,396.75L141.4,396.05L142.5,397.34L143.05,396.9L143.6,395.91L144.15,392.68L144.7,394.41L145.25,387.44L145.8,387.74L146.35,385.56L146.9,393.32L147.45,379.94L148.55,395.48L149.1,394.18L149.65,394.13L150.2,391.13L151.3,394.12L151.85,391.31L152.4,390.92L152.96,391.89L153.51,391.65L154.06,390.45L155.71,394.36L156.26,394.35L158.46,396.15L159.01,396.54L160.11,396.28L160.66,395.57L162.86,397.18L163.41,395.1L163.96,396.52L164.51,396.24L165.06,396.51L165.61,396.41L166.16,394.46L167.26,397.44L167.81,397.49L168.36,395.69L168.91,396.4L169.46,397.31L170.56,398.34L171.11,397.86L173.31,397.87L173.86,397.71L174.41,398.39L174.96,395.02L176.06,398.15L176.61,397.89L178.26,398.09L178.81,398.37L179.91,398.17L180.47,398.24L181.02,398.07L181.57,397.08L182.12,376.7L182.67,398.33L183.77,397.97L184.32,398.2L187.62,397.39L188.17,397.94L188.72,396.73L189.27,397.69L190.37,397.28L190.92,397.62L192.02,396.56L192.57,276.3L193.12,398L193.67,397.86L194.22,397.83L195.32,397.23L195.87,397.66L196.97,397.03L197.52,397.6L199.17,395.9L199.72,396.93L200.27,395.73L200.82,397.34L201.92,397.72L202.47,396.87L203.02,395.04L203.57,397.14L204.12,396.09L204.67,397.22L206.87,395.91L207.42,392.21L208.53,396.91L209.08,397.81L209.63,395.65L210.18,389.48L210.73,396.21L211.28,395.91L211.83,396.36L212.93,396.64L213.48,395.1L214.03,392.75L214.58,394.61L215.13,395.33L215.68,393.74L216.23,394.04L216.78,395.56L217.33,393.47L217.88,365.99L218.43,395.46L218.98,395.26L219.53,393.78L220.08,392.12L220.63,394.95L221.73,392.8L222.28,393.47L222.83,394.57L223.38,386.49L224.48,390.62L225.03,391.84L225.58,391.09L226.13,392.9L227.23,393.46L227.78,390.36L228.33,393.07L228.88,392.37L229.43,392.43L230.53,390.58L231.08,384.78L231.63,384.08L232.18,389.87L233.28,387.87L233.83,391.2L234.93,390.21L235.48,389.99L236.04,386.19L236.59,390.38L237.14,383.82L237.69,392.48L238.79,388.62L239.34,374.55L240.44,391.91L240.99,359.35L241.54,242.32L242.09,389.01L243.19,392.43L243.74,393.37L244.29,386.13L244.84,389L245.94,393.84L246.49,393.44L247.04,391.48L247.59,395.51L248.69,392.44L249.24,384.91L249.79,392.99L250.34,386.19L250.89,392.6L251.44,389.87L251.99,391.82L252.54,390.28L253.09,392.38L253.64,391.97L254.19,391.35L255.29,393.27L255.84,392.76L256.39,388.79L256.94,392.16L257.49,388.23L259.14,394.82L259.69,394.15L260.24,391.98L260.79,392.89L261.34,392.48L261.89,393.07L262.99,391.87L263.55,392.94L264.1,391.54L264.65,372.12L265.2,376.21L265.75,386.27L266.85,392.3L267.4,394.19L268.5,391.53L269.05,391.66L270.7,393.81L271.25,336.48L271.8,391.05L272.35,389.07L272.9,392.26L274,370.56L274.55,395.06L275.1,395.35L275.65,392.22L276.2,394.12L276.75,393.86L277.3,393.9L277.85,392.49L278.4,393.29L278.95,394.01L279.5,391.11L280.05,390.84L280.6,391.72L281.7,389.98L282.25,380.63L282.8,383.29L283.35,372.19L283.9,383.44L284.45,362.14L285,362.29L285.55,371.98L286.1,382.77L286.65,381.49L287.2,366.87L287.75,386.4L288.3,21L289.4,337.53L289.95,388.87L290.5,308.95L291.05,386.6L291.61,390.47L292.16,381.29L293.26,391.82L293.81,392.92L294.36,394.72L294.91,392.47L295.46,395L296.01,394.69L296.56,394.32L297.11,390.27L297.66,396.11L298.21,396.73L298.76,393.91L299.31,391.17L299.86,393.96L300.41,394.57L300.96,394.01L302.06,395.57L302.61,394.92L304.26,395.23L304.81,393.3L305.36,397.03L305.91,395.72L306.46,386.84L307.01,377.62L307.56,393.68L308.11,396.56L308.66,394.89L309.76,396.79L310.31,395.78L313.61,396.89L314.16,395.85L314.71,393.19L315.26,394.3L315.81,394.73L316.36,396.38L316.91,396.01L317.46,397.01L319.67,393.23L320.22,395.04L321.32,395.5L321.87,394.34L322.42,391.26L322.97,394.46L324.07,395.72L324.62,395.21L325.17,396.22L325.72,392.04L326.27,395.22L326.82,393.57L327.92,394.57L328.47,394.79L330.12,393.97L330.67,394.91L331.22,392.49L331.77,392.91L332.32,393.39L332.87,393.36L333.42,389.71L333.97,390.59L334.52,393.33L336.17,395.2L336.72,394.93L337.82,391.46L338.37,392.68L338.92,393.96L339.47,393.42L340.02,394.47L341.12,393.88L341.67,392.64L343.87,394.95L344.42,391.11L344.97,384.34L345.52,392.36L346.07,391.86L346.63,392.62L347.18,392.35L347.73,393.67L348.83,391.3L349.38,356.46L350.48,391.61L351.03,389.1L352.13,395.47L352.68,392.58L353.23,395.44L353.78,393.41L354.88,392.57L355.43,395.34L355.98,394.77L356.53,387.7L357.08,388.02L357.63,394.62L358.18,394.84L358.73,391.84L359.28,395.64L359.83,393.12L360.93,395.58L361.48,393.76L362.03,395.66L362.58,394.43L363.68,396.18L364.23,393.11L364.78,389.74L365.33,390.16L365.88,377.78L366.98,395.16L367.53,392.96L368.08,384.84L368.63,389.66L369.18,391.9L369.73,368.37L371.38,392.93L371.93,392.59L373.03,392.01L373.58,389.84L374.69,393.95L375.24,388.8L375.79,391.26L376.34,388.57L376.89,370.95L377.44,382.17L377.99,386.7L378.54,382.17L379.09,389.21L379.64,388.22L380.19,385.64L380.74,388.32L381.29,385.45L382.94,391.44L383.49,388.66L384.59,382.84L385.14,389.66L386.24,390.17L386.79,393.16L387.34,391.57L387.89,384.62L388.44,344.14L388.99,385.47L389.54,388.7L390.09,387.63L390.64,379.71L391.74,385.71L392.29,380.91L392.84,388.09L393.39,381.01L394.49,388.87L395.04,374.01L395.59,389.02L396.14,385.78L396.69,388.6L397.24,383.33L397.79,321.6L398.34,387.81L398.89,384.3L399.44,382.97L399.99,392.27L400.54,385.64L401.09,376.11L401.64,390.74L402.75,380.92L403.3,384.34L404.95,394.73L405.5,378.52L406.6,387.26L407.15,386.7L407.7,385.53L408.25,372.95L408.8,384.43L409.35,359.18L409.9,366.32L410.45,395.35L411,394.85L411.55,392.17L412.65,395.72L413.2,394.67L413.75,396.73L414.3,396.14L414.85,394.4L416.5,381.36L417.05,394.12L417.6,396.69L418.15,379.64L418.7,395.27L419.25,394.97L419.8,396.15L421.45,396.66L422,388.49L423.1,395.59L423.65,395.88L424.2,331.96L424.75,367.15L425.3,396.64L425.85,384.77L426.4,397.08L426.95,394.62L427.5,395.57L428.05,397.51L428.6,397.27L429.15,397.43L430.26,396.24L430.81,396.96L431.36,395.99L431.91,397.08L432.46,397.46L433.01,394.75L433.56,396.71L434.11,389.37L434.66,388.85L435.21,397.16L435.76,387.7L436.31,397.3L437.41,397.99L437.96,397.63L438.51,397.22L439.06,379.79L440.16,397.97L440.71,391.69L441.81,396.52L442.36,397.44L443.46,386.56L444.01,397.05L445.11,397.07L445.66,397.22L446.76,397.54L447.31,395.39L447.86,396.99L448.41,395.98L448.96,390.89L449.51,397.7L451.16,397.38L451.71,398.31L453.36,397.63L453.91,396L455.01,396.77L455.56,398.17L456.66,397.34L457.21,396.68L457.77,397.86L458.32,388.41L459.42,398.19L459.97,393.24L460.52,397.55L461.07,397.39L461.62,397.65L462.17,396.05L462.72,396.27L463.27,396.71L464.37,397.52L464.92,396.88L465.47,396.01L466.02,397.88L466.57,396.17L467.12,397.35L467.67,398.1L468.22,394.63L470.42,397.97L470.97,398.23L471.52,391.58L472.07,397.11L472.62,397.86L473.17,397.44L473.72,397.32L475.37,398.34L475.92,397.04L476.47,397.06L477.02,390.53L477.57,397.47L478.12,396.75L478.67,395.74L479.22,397.22L479.77,393.23L480.32,398.19L480.87,398.03L481.42,396.82L481.97,395.88L482.52,397.2L483.07,393.89L483.62,377.93L484.17,393.57L484.72,365.72L485.27,328.8L485.83,395.39L486.93,397.2L487.48,397.86L488.58,397.41L489.13,397.13L490.23,398.59L490.78,398.48L492.43,397.81L492.98,394.2L494.08,398.49L494.63,398.24L495.18,397.27L495.73,398.43L496.28,397.87L496.83,398.5L499.03,398.61L499.58,397.52L500.13,394.82L500.68,398.17L501.78,390.69L502.33,392.4L502.88,331.39L503.43,341.31L503.98,378.14L504.53,373.02L505.08,397.17L505.63,366.66L506.18,397.45L507.28,398.06L507.83,398.28L509.48,398.36L510.03,398.08L511.13,398.35L511.68,397.99L512.23,398.2L512.78,396.82L513.89,398.64L514.44,398.29L517.19,398.75L517.74,398.35L520.49,398.57L521.04,383.33L521.59,398.55L522.14,397.83L522.69,397.99L527.09,398.31L527.64,397.56L528.74,398.52L529.29,398.4L529.84,357.77L530.39,398.51L532.59,398.71L533.14,398.66L534.79,398.12L535.34,398.1L536.44,398.39L536.99,398.01L539.19,398.59L539.74,396.98L540.29,398.61L540.85,398.32L541.4,398.19L543.05,398.74L543.6,398.2L544.7,398.48L545.25,397.97L546.35,398.54L546.9,398.68L549.1,398.54L549.65,398.42L551.3,398.49L551.85,398.65L553.5,397.59L554.05,398.51L554.6,398.82" style="vector-effect: non-scaling-stroke; fill: none; stroke: rgb(163, 165, 0); stroke-opacity: 1; stroke-width: 2px; opacity: 1;"/></g><g class="points"/><g class="text"/></g></g></g></g><path class="xlines-above crisp" d="" style="fill: none; stroke-width: 1px; stroke: rgb(0, 0, 0); stroke-opacity: 0;"/><path class="ylines-above crisp" d="" style="fill: none; stroke-width: 1px; stroke: rgb(0, 0, 0); stroke-opacity: 0;"/><g class="overlines-above"><path class="xy2-x crisp" d="M0,0" style="fill: none;"/><path class="xy2-y crisp" d="" style="fill: none; stroke-width: 1px; stroke: rgb(0, 0, 0); stroke-opacity: 0;"/></g><g class="xaxislayer-above"><path class="xtick ticks crisp" d="M0,521v5" transform="translate(91,0)" style="stroke: rgb(51, 51, 51); stroke-opacity: 1; stroke-width: 1px;"/><path class="xtick ticks crisp" d="M0,521v5" transform="translate(191.14,0)" style="stroke: rgb(51, 51, 51); stroke-opacity: 1; stroke-width: 1px;"/><path class="xtick ticks crisp" d="M0,521v5" transform="translate(292.38,0)" style="stroke: rgb(51, 51, 51); stroke-opacity: 1; stroke-width: 1px;"/><path class="xtick ticks crisp" d="M0,521v5" transform="translate(391.96,0)" style="stroke: rgb(51, 51, 51); stroke-opacity: 1; stroke-width: 1px;"/><path class="xtick ticks crisp" d="M0,521v5" transform="translate(493.2,0)" style="stroke: rgb(51, 51, 51); stroke-opacity: 1; stroke-width: 1px;"/><path class="xtick ticks crisp" d="M0,521v5" transform="translate(592.78,0)" style="stroke: rgb(51, 51, 51); stroke-opacity: 1; stroke-width: 1px;"/><g class="xtick"><text text-anchor="middle" x="0" y="540.4" transform="translate(91,0)" style="font-family: 'Open Sans', verdana, arial, sans-serif; font-size: 12px; fill: rgb(51, 51, 51); fill-opacity: 1; white-space: pre; opacity: 1;">Jan 2020</text></g><g class="xtick"><text text-anchor="middle" x="0" y="540.4" style="font-family: 'Open Sans', verdana, arial, sans-serif; font-size: 12px; fill: rgb(51, 51, 51); fill-opacity: 1; white-space: pre; opacity: 1;" transform="translate(191.14,0)">Jul 2020</text></g><g class="xtick"><text text-anchor="middle" x="0" y="540.4" style="font-family: 'Open Sans', verdana, arial, sans-serif; font-size: 12px; fill: rgb(51, 51, 51); fill-opacity: 1; white-space: pre; opacity: 1;" transform="translate(292.38,0)">Jan 2021</text></g><g class="xtick"><text text-anchor="middle" x="0" y="540.4" style="font-family: 'Open Sans', verdana, arial, sans-serif; font-size: 12px; fill: rgb(51, 51, 51); fill-opacity: 1; white-space: pre; opacity: 1;" transform="translate(391.96,0)">Jul 2021</text></g><g class="xtick"><text text-anchor="middle" x="0" y="540.4" style="font-family: 'Open Sans', verdana, arial, sans-serif; font-size: 12px; fill: rgb(51, 51, 51); fill-opacity: 1; white-space: pre; opacity: 1;" transform="translate(493.2,0)">Jan 2022</text></g><g class="xtick"><text text-anchor="middle" x="0" y="540.4" style="font-family: 'Open Sans', verdana, arial, sans-serif; font-size: 12px; fill: rgb(51, 51, 51); fill-opacity: 1; white-space: pre; opacity: 1;" transform="translate(592.78,0)">Jul 2022</text></g></g><g class="yaxislayer-above"><path class="ytick ticks crisp" d="M79,0h-5" transform="translate(0,499)" style="stroke: rgb(51, 51, 51); stroke-opacity: 1; stroke-width: 1px;"/><path class="ytick ticks crisp" d="M79,0h-5" transform="translate(0,443.04)" style="stroke: rgb(51, 51, 51); stroke-opacity: 1; stroke-width: 1px;"/><path class="ytick ticks crisp" d="M79,0h-5" transform="translate(0,387.09)" style="stroke: rgb(51, 51, 51); stroke-opacity: 1; stroke-width: 1px;"/><path class="ytick ticks crisp" d="M79,0h-5" transform="translate(0,331.13)" style="stroke: rgb(51, 51, 51); stroke-opacity: 1; stroke-width: 1px;"/><path class="ytick ticks crisp" d="M79,0h-5" transform="translate(0,275.16999999999996)" style="stroke: rgb(51, 51, 51); stroke-opacity: 1; stroke-width: 1px;"/><path class="ytick ticks crisp" d="M79,0h-5" transform="translate(0,219.22)" style="stroke: rgb(51, 51, 51); stroke-opacity: 1; stroke-width: 1px;"/><path class="ytick ticks crisp" d="M79,0h-5" transform="translate(0,163.26)" style="stroke: rgb(51, 51, 51); stroke-opacity: 1; stroke-width: 1px;"/><path class="ytick ticks crisp" d="M79,0h-5" transform="translate(0,107.3)" style="stroke: rgb(51, 51, 51); stroke-opacity: 1; stroke-width: 1px;"/><g class="ytick"><text text-anchor="end" x="71.6" y="4.199999999999999" transform="translate(0,499)" style="font-family: 'Open Sans', verdana, arial, sans-serif; font-size: 12px; fill: rgb(51, 51, 51); fill-opacity: 1; white-space: pre; opacity: 1;">0</text></g><g class="ytick"><text text-anchor="end" x="71.6" y="4.199999999999999" style="font-family: 'Open Sans', verdana, arial, sans-serif; font-size: 12px; fill: rgb(51, 51, 51); fill-opacity: 1; white-space: pre; opacity: 1;" transform="translate(0,443.04)">100M</text></g><g class="ytick"><text text-anchor="end" x="71.6" y="4.199999999999999" style="font-family: 'Open Sans', verdana, arial, sans-serif; font-size: 12px; fill: rgb(51, 51, 51); fill-opacity: 1; white-space: pre; opacity: 1;" transform="translate(0,387.09)">200M</text></g><g class="ytick"><text text-anchor="end" x="71.6" y="4.199999999999999" style="font-family: 'Open Sans', verdana, arial, sans-serif; font-size: 12px; fill: rgb(51, 51, 51); fill-opacity: 1; white-space: pre; opacity: 1;" transform="translate(0,331.13)">300M</text></g><g class="ytick"><text text-anchor="end" x="71.6" y="4.199999999999999" style="font-family: 'Open Sans', verdana, arial, sans-serif; font-size: 12px; fill: rgb(51, 51, 51); fill-opacity: 1; white-space: pre; opacity: 1;" transform="translate(0,275.16999999999996)">400M</text></g><g class="ytick"><text text-anchor="end" x="71.6" y="4.199999999999999" style="font-family: 'Open Sans', verdana, arial, sans-serif; font-size: 12px; fill: rgb(51, 51, 51); fill-opacity: 1; white-space: pre; opacity: 1;" transform="translate(0,219.22)">500M</text></g><g class="ytick"><text text-anchor="end" x="71.6" y="4.199999999999999" style="font-family: 'Open Sans', verdana, arial, sans-serif; font-size: 12px; fill: rgb(51, 51, 51); fill-opacity: 1; white-space: pre; opacity: 1;" transform="translate(0,163.26)">600M</text></g><g class="ytick"><text text-anchor="end" x="71.6" y="4.199999999999999" style="font-family: 'Open Sans', verdana, arial, sans-serif; font-size: 12px; fill: rgb(51, 51, 51); fill-opacity: 1; white-space: pre; opacity: 1;" transform="translate(0,107.3)">700M</text></g></g><g class="overaxes-above"><g class="xy2-x"/><g class="xy2-y"><path class="y2tick ticks crisp" d="M635.6,0h5" transform="translate(0,499)" style="stroke: rgb(51, 51, 51); stroke-opacity: 1; stroke-width: 1px;"/><path class="y2tick ticks crisp" d="M635.6,0h5" transform="translate(0,455.87)" style="stroke: rgb(51, 51, 51); stroke-opacity: 1; stroke-width: 1px;"/><path class="y2tick ticks crisp" d="M635.6,0h5" transform="translate(0,412.74)" style="stroke: rgb(51, 51, 51); stroke-opacity: 1; stroke-width: 1px;"/><path class="y2tick ticks crisp" d="M635.6,0h5" transform="translate(0,369.61)" style="stroke: rgb(51, 51, 51); stroke-opacity: 1; stroke-width: 1px;"/><path class="y2tick ticks crisp" d="M635.6,0h5" transform="translate(0,326.48)" style="stroke: rgb(51, 51, 51); stroke-opacity: 1; stroke-width: 1px;"/><path class="y2tick ticks crisp" d="M635.6,0h5" transform="translate(0,283.35)" style="stroke: rgb(51, 51, 51); stroke-opacity: 1; stroke-width: 1px;"/><path class="y2tick ticks crisp" d="M635.6,0h5" transform="translate(0,240.22)" style="stroke: rgb(51, 51, 51); stroke-opacity: 1; stroke-width: 1px;"/><path class="y2tick ticks crisp" d="M635.6,0h5" transform="translate(0,197.09)" style="stroke: rgb(51, 51, 51); stroke-opacity: 1; stroke-width: 1px;"/><path class="y2tick ticks crisp" d="M635.6,0h5" transform="translate(0,153.97)" style="stroke: rgb(51, 51, 51); stroke-opacity: 1; stroke-width: 1px;"/><path class="y2tick ticks crisp" d="M635.6,0h5" transform="translate(0,110.84)" style="stroke: rgb(51, 51, 51); stroke-opacity: 1; stroke-width: 1px;"/><g class="y2tick"><text text-anchor="start" x="643" y="4.199999999999999" transform="translate(0,499)" style="font-family: 'Open Sans', verdana, arial, sans-serif; font-size: 12px; fill: rgb(51, 51, 51); fill-opacity: 1; white-space: pre; opacity: 1;">0</text></g><g class="y2tick"><text text-anchor="start" x="643" y="4.199999999999999" style="font-family: 'Open Sans', verdana, arial, sans-serif; font-size: 12px; fill: rgb(51, 51, 51); fill-opacity: 1; white-space: pre; opacity: 1;" transform="translate(0,455.87)">5M</text></g><g class="y2tick"><text text-anchor="start" x="643" y="4.199999999999999" style="font-family: 'Open Sans', verdana, arial, sans-serif; font-size: 12px; fill: rgb(51, 51, 51); fill-opacity: 1; white-space: pre; opacity: 1;" transform="translate(0,412.74)">10M</text></g><g class="y2tick"><text text-anchor="start" x="643" y="4.199999999999999" style="font-family: 'Open Sans', verdana, arial, sans-serif; font-size: 12px; fill: rgb(51, 51, 51); fill-opacity: 1; white-space: pre; opacity: 1;" transform="translate(0,369.61)">15M</text></g><g class="y2tick"><text text-anchor="start" x="643" y="4.199999999999999" style="font-family: 'Open Sans', verdana, arial, sans-serif; font-size: 12px; fill: rgb(51, 51, 51); fill-opacity: 1; white-space: pre; opacity: 1;" transform="translate(0,326.48)">20M</text></g><g class="y2tick"><text text-anchor="start" x="643" y="4.199999999999999" style="font-family: 'Open Sans', verdana, arial, sans-serif; font-size: 12px; fill: rgb(51, 51, 51); fill-opacity: 1; white-space: pre; opacity: 1;" transform="translate(0,283.35)">25M</text></g><g class="y2tick"><text text-anchor="start" x="643" y="4.199999999999999" style="font-family: 'Open Sans', verdana, arial, sans-serif; font-size: 12px; fill: rgb(51, 51, 51); fill-opacity: 1; white-space: pre; opacity: 1;" transform="translate(0,240.22)">30M</text></g><g class="y2tick"><text text-anchor="start" x="643" y="4.199999999999999" style="font-family: 'Open Sans', verdana, arial, sans-serif; font-size: 12px; fill: rgb(51, 51, 51); fill-opacity: 1; white-space: pre; opacity: 1;" transform="translate(0,197.09)">35M</text></g><g class="y2tick"><text text-anchor="start" x="643" y="4.199999999999999" style="font-family: 'Open Sans', verdana, arial, sans-serif; font-size: 12px; fill: rgb(51, 51, 51); fill-opacity: 1; white-space: pre; opacity: 1;" transform="translate(0,153.97)">40M</text></g><g class="y2tick"><text text-anchor="start" x="643" y="4.199999999999999" style="font-family: 'Open Sans', verdana, arial, sans-serif; font-size: 12px; fill: rgb(51, 51, 51); fill-opacity: 1; white-space: pre; opacity: 1;" transform="translate(0,110.84)">45M</text></g></g></g></g><g class="subplot xy2"/></g><g class="polarlayer"/><g class="smithlayer"/><g class="ternarylayer"/><g class="geolayer"/><g class="funnelarealayer"/><g class="pielayer"/><g class="iciclelayer"/><g class="treemaplayer"/><g class="sunburstlayer"/><g class="glimages"/><defs id="topdefs-469023"><g class="clips"/><clipPath id="legend469023"><rect width="106" height="48" x="0" y="0"/></clipPath></defs><g class="layer-above"><g class="imagelayer"/><g class="shapelayer"/></g><g class="infolayer"><g class="legend" pointer-events="all" transform="translate(681.8,100)"><rect class="bg" shape-rendering="crispEdges" width="106" height="48" x="0" y="0" style="stroke: rgb(68, 68, 68); stroke-opacity: 1; fill: rgb(255, 255, 255); fill-opacity: 1; stroke-width: 0px;"/><g class="scrollbox" transform="" clip-path="url(#legend469023)"><g class="groups"><g class="traces" transform="translate(0,14.5)" style="opacity: 1;"><text class="legendtext" text-anchor="start" x="40" y="4.680000000000001" style="font-family: 'Open Sans', verdana, arial, sans-serif; font-size: 12px; fill: rgb(51, 51, 51); fill-opacity: 1; white-space: pre;">Cumulative</text><g class="layers" style="opacity: 1;"><g class="legendfill"/><g class="legendlines"><path class="js-line" d="M5,0h30" style="fill: none; stroke: rgb(248, 118, 109); stroke-opacity: 1; stroke-width: 2px;"/></g><g class="legendsymbols"><g class="legendpoints"/></g></g><rect class="legendtoggle" x="0" y="-9.5" width="100.359375" height="19" style="fill: rgb(0, 0, 0); fill-opacity: 0;"/></g><g class="traces" transform="translate(0,33.5)" style="opacity: 1;"><text class="legendtext" text-anchor="start" x="40" y="4.680000000000001" style="font-family: 'Open Sans', verdana, arial, sans-serif; font-size: 12px; fill: rgb(51, 51, 51); fill-opacity: 1; white-space: pre;">Daily</text><g class="layers" style="opacity: 1;"><g class="legendfill"/><g class="legendlines"><path class="js-line" d="M5,0h30" style="fill: none; stroke: rgb(163, 165, 0); stroke-opacity: 1; stroke-width: 2px;"/></g><g class="legendsymbols"><g class="legendpoints"/></g></g><rect class="legendtoggle" x="0" y="-9.5" width="100.359375" height="19" style="fill: rgb(0, 0, 0); fill-opacity: 0;"/></g></g></g><rect class="scrollbar" rx="20" ry="3" width="0" height="0" x="0" y="0" style="fill: rgb(128, 139, 164); fill-opacity: 1;"/></g><g class="g-gtitle"><text class="gtitle" x="400" y="50" text-anchor="middle" dy="0em" style="font-family: 'Open Sans', verdana, arial, sans-serif; font-size: 17px; fill: rgb(51, 51, 51); opacity: 1; font-weight: normal; white-space: pre;">Cumulative &amp; Daily Extracted MEV - Gross Profit</text></g><g class="g-xtitle"/><g class="g-ytitle"/><g class="g-y2title"/></g></svg>