<svg class="main-svg" xmlns="http://www.w3.org/2000/svg" xmlns:xlink="http://www.w3.org/1999/xlink" width="1000" height="600" style="" viewBox="0 0 1000 600"><rect x="0" y="0" width="1000" height="600" style="fill: rgb(255, 255, 255); fill-opacity: 1;"/><defs id="defs-60c9c3"><g class="clips"><clipPath id="clip60c9c3xyplot" class="plotclip"><rect width="612.8000000000001" height="420"/></clipPath><clipPath id="clip60c9c3xy2plot" class="plotclip"><rect width="612.8000000000001" height="420"/></clipPath><clipPath id="clip60c9c3xy3plot" class="plotclip"><rect width="612.8000000000001" height="420"/></clipPath><clipPath class="axesclip" id="clip60c9c3x"><rect x="80" y="0" width="612.8000000000001" height="600"/></clipPath><clipPath class="axesclip" id="clip60c9c3y"><rect x="0" y="100" width="1000" height="420"/></clipPath><clipPath class="axesclip" id="clip60c9c3xy"><rect x="80" y="100" width="612.8000000000001" height="420"/></clipPath><clipPath class="axesclip" id="clip60c9c3y2"><rect x="0" y="100" width="1000" height="420"/></clipPath><clipPath class="axesclip" id="clip60c9c3xy2"><rect x="80" y="100" width="612.8000000000001" height="420"/></clipPath><clipPath class="axesclip" id="clip60c9c3y3"><rect x="0" y="100" width="1000" height="420"/></clipPath><clipPath class="axesclip" id="clip60c9c3xy3"><rect x="80" y="100" width="612.8000000000001" height="420"/></clipPath></g><g class="gradients"/><g class="patterns"/></defs><g class="bglayer"><rect class="bg" x="80" y="100" width="612.8000000000001" height="420" style="fill: rgb(237, 237, 237); fill-opacity: 1; stroke-width: 0;"/></g><g class="layer-below"><g class="imagelayer"/><g class="shapelayer"/></g><g class="cartesianlayer"><g class="subplot xy"><g class="layer-subplot"><g class="shapelayer"/><g class="imagelayer"/></g><g class="gridlayer"><g class="x"><path class="xgrid crisp" transform="translate(191.09,0)" d="M0,100v420" style="stroke: rgb(255, 255, 255); stroke-opacity: 1; stroke-width: 1px;"/><path class="xgrid crisp" transform="translate(303.39,0)" d="M0,100v420" style="stroke: rgb(255, 255, 255); stroke-opacity: 1; stroke-width: 1px;"/><path class="xgrid crisp" transform="translate(413.87,0)" d="M0,100v420" style="stroke: rgb(255, 255, 255); stroke-opacity: 1; stroke-width: 1px;"/><path class="xgrid crisp" transform="translate(526.1700000000001,0)" d="M0,100v420" style="stroke: rgb(255, 255, 255); stroke-opacity: 1; stroke-width: 1px;"/><path class="xgrid crisp" transform="translate(636.65,0)" d="M0,100v420" style="stroke: rgb(255, 255, 255); stroke-opacity: 1; stroke-width: 1px;"/></g><g class="y"><path class="ygrid crisp" transform="translate(0,455.87)" d="M80,0h612.8000000000001" style="stroke: rgb(255, 255, 255); stroke-opacity: 1; stroke-width: 1px;"/><path class="ygrid crisp" transform="translate(0,412.74)" d="M80,0h612.8000000000001" style="stroke: rgb(255, 255, 255); stroke-opacity: 1; stroke-width: 1px;"/><path class="ygrid crisp" transform="translate(0,369.61)" d="M80,0h612.8000000000001" style="stroke: rgb(255, 255, 255); stroke-opacity: 1; stroke-width: 1px;"/><path class="ygrid crisp" transform="translate(0,326.48)" d="M80,0h612.8000000000001" style="stroke: rgb(255, 255, 255); stroke-opacity: 1; stroke-width: 1px;"/><path class="ygrid crisp" transform="translate(0,283.35)" d="M80,0h612.8000000000001" style="stroke: rgb(255, 255, 255); stroke-opacity: 1; stroke-width: 1px;"/><path class="ygrid crisp" transform="translate(0,240.22)" d="M80,0h612.8000000000001" style="stroke: rgb(255, 255, 255); stroke-opacity: 1; stroke-width: 1px;"/><path class="ygrid crisp" transform="translate(0,197.09)" d="M80,0h612.8000000000001" style="stroke: rgb(255, 255, 255); stroke-opacity: 1; stroke-width: 1px;"/><path class="ygrid crisp" transform="translate(0,153.97)" d="M80,0h612.8000000000001" style="stroke: rgb(255, 255, 255); stroke-opacity: 1; stroke-width: 1px;"/><path class="ygrid crisp" transform="translate(0,110.84)" d="M80,0h612.8000000000001" style="stroke: rgb(255, 255, 255); stroke-opacity: 1; stroke-width: 1px;"/></g><g class="y2"><path class="y2grid crisp" transform="translate(0,485.34)" d="M80,0h612.8000000000001" style="stroke: rgb(255, 255, 255); stroke-opacity: 1; stroke-width: 1px;"/><path class="y2grid crisp" transform="translate(0,439.8)" d="M80,0h612.8000000000001" style="stroke: rgb(255, 255, 255); stroke-opacity: 1; stroke-width: 1px;"/><path class="y2grid crisp" transform="translate(0,394.25)" d="M80,0h612.8000000000001" style="stroke: rgb(255, 255, 255); stroke-opacity: 1; stroke-width: 1px;"/><path class="y2grid crisp" transform="translate(0,348.71000000000004)" d="M80,0h612.8000000000001" style="stroke: rgb(255, 255, 255); stroke-opacity: 1; stroke-width: 1px;"/><path class="y2grid crisp" transform="translate(0,303.16999999999996)" d="M80,0h612.8000000000001" style="stroke: rgb(255, 255, 255); stroke-opacity: 1; stroke-width: 1px;"/><path class="y2grid crisp" transform="translate(0,257.63)" d="M80,0h612.8000000000001" style="stroke: rgb(255, 255, 255); stroke-opacity: 1; stroke-width: 1px;"/><path class="y2grid crisp" transform="translate(0,212.07999999999998)" d="M80,0h612.8000000000001" style="stroke: rgb(255, 255, 255); stroke-opacity: 1; stroke-width: 1px;"/><path class="y2grid crisp" transform="translate(0,166.54000000000002)" d="M80,0h612.8000000000001" style="stroke: rgb(255, 255, 255); stroke-opacity: 1; stroke-width: 1px;"/><path class="y2grid crisp" transform="translate(0,121)" d="M80,0h612.8000000000001" style="stroke: rgb(255, 255, 255); stroke-opacity: 1; stroke-width: 1px;"/></g><g class="y3"><path class="y3grid crisp" transform="translate(0,476.76)" d="M80,0h612.8000000000001" style="stroke: rgb(255, 255, 255); stroke-opacity: 1; stroke-width: 1px;"/><path class="y3grid crisp" transform="translate(0,432.29)" d="M80,0h612.8000000000001" style="stroke: rgb(255, 255, 255); stroke-opacity: 1; stroke-width: 1px;"/><path class="y3grid crisp" transform="translate(0,387.82)" d="M80,0h612.8000000000001" style="stroke: rgb(255, 255, 255); stroke-opacity: 1; stroke-width: 1px;"/><path class="y3grid crisp" transform="translate(0,343.35)" d="M80,0h612.8000000000001" style="stroke: rgb(255, 255, 255); stroke-opacity: 1; stroke-width: 1px;"/><path class="y3grid crisp" transform="translate(0,298.88)" d="M80,0h612.8000000000001" style="stroke: rgb(255, 255, 255); stroke-opacity: 1; stroke-width: 1px;"/><path class="y3grid crisp" transform="translate(0,254.41)" d="M80,0h612.8000000000001" style="stroke: rgb(255, 255, 255); stroke-opacity: 1; stroke-width: 1px;"/><path class="y3grid crisp" transform="translate(0,209.94)" d="M80,0h612.8000000000001" style="stroke: rgb(255, 255, 255); stroke-opacity: 1; stroke-width: 1px;"/><path class="y3grid crisp" transform="translate(0,165.47)" d="M80,0h612.8000000000001" style="stroke: rgb(255, 255, 255); stroke-opacity: 1; stroke-width: 1px;"/><path class="y3grid crisp" transform="translate(0,121)" d="M80,0h612.8000000000001" style="stroke: rgb(255, 255, 255); stroke-opacity: 1; stroke-width: 1px;"/></g></g><g class="zerolinelayer"><path class="yzl zl crisp" transform="translate(0,499)" d="M80,0h612.8000000000001" style="stroke: rgb(255, 255, 255); stroke-opacity: 1; stroke-width: 1px;"/></g><path class="xlines-below"/><path class="ylines-below"/><g class="overlines-below"><path class="xy2-x"/><path class="xy2-y"/><path class="xy3-x"/><path class="xy3-y"/></g><g class="xaxislayer-below"/><g class="yaxislayer-below"/><g class="overaxes-below"><g class="xy2-x"/><g class="xy2-y"/><g class="xy3-x"/><g class="xy3-y"/></g><g class="plot" transform="translate(80,100)" clip-path="url(#clip60c9c3xyplot)"><g class="scatterlayer mlayer"><g class="trace scatter tracef64b52" style="stroke-miterlimit: 2; opacity: 1;"><g class="fills"/><g class="errorbars"/><g class="lines"><path class="js-line" d="M-12.21,399L40.28,399L40.89,395.26L42.11,398.87L42.73,398.09L43.34,377.79L43.95,398.85L45.17,399L45.78,398.19L47,399L47.61,398.93L48.83,398.99L49.44,398.82L51.88,399L52.49,398.83L56.15,399L56.76,398.94L64.09,399L64.7,398.96L76.29,399L76.91,399L81.79,399L82.4,399L108.03,398.72L108.64,398.2L112.31,398.75L112.92,398.75L120.85,398.79L121.46,398.27L122.68,398.42L123.29,398.43L125.12,397.98L125.73,397.39L126.95,398.24L127.56,398.21L128.79,398.17L129.4,398.16L133.06,398.33L133.67,397.51L134.28,379.29L134.89,392.12L136.11,396.84L136.72,384.25L137.94,394.56L138.55,395.64L139.16,396.66L139.77,395.93L140.38,394.98L140.99,395.52L141.6,395.86L142.21,394.34L144.04,396.75L144.65,396.05L145.88,397.34L146.49,396.9L147.1,395.91L147.71,392.68L148.32,394.41L148.93,387.44L149.54,387.74L150.15,385.56L150.76,393.32L151.37,379.94L152.59,395.48L153.2,394.18L153.81,394.13L154.42,391.13L155.64,394.12L156.25,391.31L156.86,390.92L157.47,391.89L158.08,391.65L158.69,390.45L160.52,394.36L161.13,394.35L162.97,395.78L163.58,396.15L164.8,396.59L165.41,396.28L166.63,395.98L167.24,395.66L168.46,397.18L169.07,395.1L169.68,396.52L170.29,396.24L170.9,396.51L171.51,396.41L172.12,394.46L173.34,397.44L173.95,397.49L174.56,395.69L175.17,396.4L177,398.34L177.61,397.86L180.06,397.87L180.67,397.71L181.28,398.39L181.89,395.02L183.11,398.15L183.72,397.89L185.55,398.09L186.16,398.37L187.38,398.17L187.99,398.24L188.6,398.07L189.21,397.08L189.82,376.7L190.43,398.33L191.65,397.97L192.26,398.2L195.93,397.39L196.54,397.94L197.15,396.73L197.76,397.69L198.98,397.28L199.59,397.62L200.81,396.56L201.42,276.3L202.03,398L202.64,397.86L203.25,397.83L204.47,397.23L205.08,397.66L206.3,397.03L206.91,397.6L208.74,395.9L209.35,396.93L209.96,395.73L210.57,397.34L211.79,397.72L212.4,396.87L213.02,395.04L213.63,397.14L214.24,396.09L214.85,397.22L217.29,395.91L217.9,392.21L219.12,396.91L219.73,397.81L220.34,395.65L220.95,389.48L221.56,396.21L222.17,395.91L222.78,396.36L224,396.64L224.61,395.1L225.22,392.75L225.83,394.61L226.44,395.33L227.05,393.74L227.66,394.04L228.27,395.56L228.88,393.47L229.49,365.99L230.11,395.46L230.72,395.26L231.33,393.78L231.94,392.12L232.55,394.95L233.77,392.8L234.38,393.47L234.99,394.57L235.6,386.49L236.82,390.62L237.43,391.84L238.04,391.09L238.65,392.9L239.87,393.46L240.48,390.36L241.09,393.07L241.7,392.37L242.31,392.43L243.53,390.58L244.14,384.78L244.75,384.08L245.36,389.87L246.58,387.87L247.2,391.2L248.42,390.21L249.03,389.99L249.64,386.19L250.25,390.38L250.86,383.82L251.47,392.48L252.69,388.62L253.3,374.55L254.52,391.91L255.13,359.35L255.74,242.32L256.35,389.01L257.57,392.43L258.18,393.37L258.79,386.13L259.4,389L260.62,393.84L261.23,393.44L261.84,391.48L262.45,395.51L263.67,392.44L264.29,384.91L264.9,392.99L265.51,386.19L266.12,392.6L266.73,389.87L267.34,391.82L267.95,390.28L268.56,392.38L269.17,391.97L269.78,391.35L271,393.27L271.61,392.76L272.22,388.79L272.83,392.16L273.44,388.23L274.05,392.01L274.66,391.86L275.27,394.82L275.88,394.15L276.49,391.98L277.1,392.89L277.71,392.48L278.32,393.07L279.54,391.87L280.15,392.94L280.76,391.54L281.38,372.12L281.99,376.21L282.6,386.27L283.82,392.3L284.43,394.19L285.65,391.53L286.26,391.66L288.09,393.81L288.7,336.48L289.31,391.05L289.92,389.07L290.53,392.26L291.75,370.56L292.36,395.06L292.97,395.35L293.58,392.22L294.19,394.12L294.8,393.86L295.41,393.9L296.02,392.49L296.63,393.29L297.24,394.01L297.85,391.11L298.47,390.84L299.08,391.72L300.3,389.98L300.91,380.63L301.52,383.29L302.13,372.19L302.74,383.44L303.35,362.14L303.96,362.29L304.57,371.98L305.18,382.77L305.79,381.49L306.4,366.87L307.01,386.4L307.62,21L308.84,337.53L309.45,388.87L310.06,308.95L310.67,386.6L311.28,390.47L311.89,381.29L313.11,391.82L313.72,392.92L314.33,394.72L314.95,392.47L315.56,395L316.17,394.69L316.78,394.32L317.39,390.27L318,396.11L318.61,396.73L319.22,393.91L319.83,391.17L320.44,393.96L321.05,394.57L321.66,394.01L322.88,395.57L323.49,394.92L325.32,395.23L325.93,393.3L326.54,397.03L327.15,395.72L328.37,377.62L328.98,393.68L329.59,396.56L330.2,394.89L331.42,396.79L332.04,395.78L335.7,396.89L336.31,395.85L336.92,393.19L337.53,394.3L338.14,394.73L338.75,396.38L339.36,396.01L339.97,397.01L342.41,393.23L343.02,395.04L344.24,395.5L344.85,394.34L345.46,391.26L346.07,394.46L347.29,395.72L347.9,395.21L348.51,396.22L349.13,392.04L349.74,395.22L350.35,393.57L351.57,394.57L352.18,394.79L354.01,393.97L354.62,394.91L355.23,392.49L355.84,392.91L356.45,393.39L357.06,393.36L357.67,389.71L358.28,390.59L358.89,393.33L360.11,394.86L360.72,395.2L361.33,394.93L361.94,393.61L362.55,391.46L363.16,392.68L363.77,393.96L364.38,393.42L365.6,394.51L366.22,393.88L366.83,392.64L367.44,393.58L368.05,393.31L368.66,394.82L369.27,394.95L369.88,391.11L370.49,384.34L371.1,392.36L371.71,391.86L372.32,392.62L372.93,392.35L373.54,393.67L374.76,391.3L375.37,356.46L376.59,391.61L377.2,389.1L378.42,395.47L379.03,392.58L379.64,395.44L380.25,393.41L381.47,392.57L382.08,395.34L382.69,394.77L383.31,387.7L383.92,388.02L384.53,394.62L385.14,394.84L385.75,391.84L386.36,395.64L386.97,393.12L388.19,395.58L388.8,393.76L389.41,395.66L390.02,394.43L391.24,396.18L391.85,393.11L392.46,389.74L393.07,390.16L393.68,377.78L394.9,395.16L395.51,392.96L396.12,384.84L396.73,389.66L397.34,391.9L397.95,368.37L398.56,375.45L399.17,391.92L400.4,392.59L401.01,392.58L401.62,392.01L402.23,389.84L403.45,393.95L404.06,388.8L404.67,391.26L405.28,388.57L405.89,370.95L406.5,382.17L407.11,386.7L407.72,382.17L408.33,389.21L408.94,388.22L409.55,385.64L410.16,388.32L410.77,385.45L412.6,391.44L413.21,388.66L414.43,382.84L415.04,389.66L416.26,390.17L416.87,393.16L417.49,391.57L418.1,384.62L418.71,344.14L419.32,385.47L419.93,388.7L420.54,387.63L421.15,379.71L421.76,382.25L422.37,385.71L422.98,380.91L423.59,388.09L424.2,381.01L425.42,388.87L426.03,374.01L426.64,389.02L427.25,385.78L427.86,388.6L428.47,383.33L429.08,321.6L429.69,387.81L430.3,384.3L430.91,382.97L431.52,392.27L432.13,385.64L432.74,376.11L433.35,390.74L434.58,380.92L435.19,384.34L435.8,389.5L436.41,388.14L437.02,394.73L437.63,378.52L438.85,387.26L439.46,386.7L440.07,385.53L440.68,372.95L441.29,384.43L441.9,359.18L442.51,366.32L443.12,395.35L443.73,394.85L444.34,392.17L445.56,395.72L446.17,394.67L446.78,396.73L447.39,396.14L448,394.4L448.61,387.12L449.22,387.96L449.83,381.36L451.05,396.69L451.67,379.64L452.28,395.27L452.89,394.97L453.5,396.15L455.33,396.66L455.94,388.49L457.16,395.59L457.77,395.88L458.38,331.96L458.99,367.15L459.6,396.64L460.21,384.77L460.82,397.08L461.43,394.62L462.04,395.57L462.65,397.51L463.26,397.27L463.87,397.43L465.09,396.24L465.7,396.96L466.31,395.99L466.92,397.08L467.53,397.46L468.15,394.75L468.76,396.71L469.37,389.37L469.98,388.85L470.59,397.16L471.2,387.7L471.81,397.3L473.03,397.99L473.64,397.63L474.25,397.22L474.86,379.79L476.08,397.97L476.69,391.69L477.91,396.52L478.52,397.44L479.74,386.56L480.35,397.05L480.96,397.58L481.57,397.07L483.4,397.54L484.01,395.39L484.62,396.99L485.24,395.98L485.85,390.89L486.46,397.7L488.29,397.38L488.9,398.31L490.73,397.63L491.34,396L492.56,396.77L493.17,398.17L494.39,397.34L495,396.68L495.61,397.86L496.22,388.41L497.44,398.19L498.05,393.24L498.66,397.55L499.27,397.39L499.88,397.65L501.1,396.27L501.71,396.71L502.94,397.52L503.55,396.88L504.16,396.01L504.77,397.88L505.38,396.17L505.99,397.35L506.6,398.1L507.21,394.63L509.65,397.97L510.26,398.23L510.87,391.58L511.48,397.11L512.7,397.44L513.31,397.32L514.53,398.24L515.14,398.34L516.36,397.06L516.97,390.53L517.58,397.47L518.19,396.75L518.8,395.74L519.42,397.22L520.03,393.23L520.64,398.19L521.25,398.03L521.86,396.82L522.47,395.88L523.08,397.2L523.69,393.89L524.3,377.93L524.91,393.57L525.52,365.72L526.13,328.8L526.74,395.39L527.96,397.2L528.57,397.86L529.79,397.41L530.4,397.13L531.62,398.59L532.23,398.48L534.06,397.81L534.67,394.2L535.89,398.49L536.51,398.24L537.12,397.27L537.73,398.43L538.34,397.87L538.95,398.5L541.39,398.61L542,397.52L542.61,394.82L543.22,398.17L544.44,390.69L545.05,392.4L545.66,331.39L546.27,341.31L546.88,378.14L547.49,373.02L548.1,397.17L548.71,366.66L549.32,397.45L550.54,398.06L551.15,398.28L552.98,398.36L553.6,398.08L554.82,398.35L555.43,397.99L556.04,398.2L556.65,396.82L557.87,398.64L558.48,398.29L561.53,398.75L562.14,398.35L565.19,398.57L565.8,383.33L566.41,398.55L567.02,397.83L567.63,397.99L572.52,398.31L573.13,397.56L574.35,398.52L574.96,398.4L575.57,357.77L576.18,398.51L578.62,398.71L579.23,398.66L580.45,398.44L581.06,398.12L585.94,398.59L586.55,396.98L587.16,398.61L587.78,398.32L588.39,398.19L590.22,398.74L590.83,398.2L592.05,398.48L592.66,397.97L593.88,398.54L594.49,398.68L596.93,398.54L597.54,398.42L599.37,398.49L599.98,398.65L601.81,397.59L602.42,398.51L603.03,398.82" style="vector-effect: non-scaling-stroke; fill: none; stroke: rgb(0, 191, 125); stroke-opacity: 1; stroke-width: 2px; opacity: 1;"/></g><g class="points"/><g class="text"/></g></g></g><g class="overplot"><g class="xy2" transform="translate(80,100)" clip-path="url(#clip60c9c3xy2plot)"><g class="scatterlayer mlayer"><g class="trace scatter trace1f8e83" style="stroke-miterlimit: 2; opacity: 0.8;"><g class="fills"/><g class="errorbars"/><g class="lines"><path class="js-line" d="M-219.73,80.2L-219.73,339.8L-215.46,93.87L-211.18,139.41L-206.91,89.31L-202.64,89.31L-198.37,21L-194.09,21L-189.82,80.2L-185.55,66.54L-181.28,98.42L-177,57.43L-172.73,48.33L-168.46,98.42L-164.19,43.77L-159.91,43.77L-155.64,93.87L-151.37,80.2L-151.37,389.89L-147.1,80.2L-142.82,39.22L-138.55,57.43L-138.55,339.8L-134.28,112.08L-130.01,321.58L-130.01,71.1L-125.73,134.86L-121.46,148.52L-121.46,362.57L-117.19,107.53L-112.92,130.3L-108.64,162.18L-104.37,21L-104.37,84.76L-100.1,93.87L-95.83,130.3L-91.55,148.52L-87.28,89.31L-87.28,335.24L-83.01,125.75L-78.74,52.88L-74.46,271.48L-74.46,61.99L-70.19,389.89L-70.19,66.54L-65.92,358.01L-65.92,107.53L-61.65,98.42L-57.37,61.99L-53.1,125.75L-48.83,116.64L-44.56,121.19L-40.28,312.47L-40.28,134.86L-36.01,107.53L-31.74,112.08L-27.47,121.19L-23.19,139.41L-23.19,194.06L-18.92,385.34L-18.92,157.63L-14.65,143.96L-10.38,80.2L-6.1,367.12L-6.1,112.08L-1.83,98.42L2.44,57.43L6.71,116.64L10.99,84.76L15.26,30.11L15.26,107.53L19.53,98.42L23.8,43.77L28.08,61.99L32.35,107.53L36.62,80.2L40.89,107.53L45.17,116.64L49.44,112.08L53.71,71.1L57.98,66.54L62.26,71.1L62.26,376.23L66.53,43.77L70.8,39.22L75.07,21L79.35,93.87L83.62,39.22L87.89,57.43L92.16,98.42L96.44,107.53L96.44,367.12L100.71,98.42L104.98,107.53L109.25,89.31L113.53,339.8L113.53,102.98L117.8,98.42L122.07,89.31L126.34,107.53L130.62,66.54L134.89,376.23L134.89,43.77L139.16,57.43L139.16,380.78L143.43,116.64L143.43,239.6L147.71,143.96L151.98,75.65L156.25,112.08L160.52,399L160.52,107.53L164.8,93.87L169.07,130.3L173.34,175.84L177.61,139.41L177.61,330.69L181.89,371.67L181.89,130.3L186.16,207.72L190.43,143.96L194.7,262.37L194.7,84.76L198.98,157.63L203.25,112.08L207.52,143.96L211.79,80.2L216.07,139.41L220.34,71.1L224.61,121.19L228.88,143.96L233.16,98.42L237.43,162.18L237.43,385.34L241.7,107.53L241.7,198.61L245.97,130.3L245.97,380.78L250.25,48.33L250.25,317.02L254.52,184.95L258.79,125.75L258.79,271.48L263.06,112.08L267.34,380.78L267.34,171.29L271.61,153.07L275.88,153.07L280.15,139.41L284.43,271.48L284.43,98.42L288.7,194.06L288.7,380.78L292.97,157.63L297.24,102.98L301.52,166.73L305.79,143.96L310.06,330.69L310.06,171.29L314.33,285.14L314.33,166.73L318.61,376.23L318.61,189.51L322.88,134.86L327.15,121.19L331.42,184.95L335.7,175.84L339.97,148.52L344.24,148.52L348.51,134.86L352.79,385.34L352.79,171.29L357.06,134.86L361.33,230.49L361.33,139.41L365.6,198.61L369.88,166.73L374.15,130.3L378.42,166.73L382.69,130.3L386.97,166.73L391.24,107.53L395.51,153.07L399.78,112.08L404.06,98.42L408.33,125.75L412.6,80.2L416.87,134.86L421.15,116.64L425.42,130.3L429.69,116.64L433.96,130.3L438.24,66.54L442.51,130.3L446.78,80.2L451.05,125.75L455.33,130.3L459.6,139.41L463.87,75.65L468.15,139.41L472.42,25.55L476.69,116.64L480.96,80.2L485.24,148.52L489.51,139.41L493.78,107.53L498.05,162.18L502.33,107.53L506.6,89.31L510.87,98.42L515.14,162.18L519.42,130.3L523.69,125.75L527.96,107.53L532.23,102.98L536.51,112.08L540.78,98.42L545.05,153.07L549.32,134.86L553.6,130.3L557.87,180.4L562.14,134.86L566.41,116.64L570.69,143.96L574.96,134.86L579.23,112.08L583.5,157.63L587.78,125.75L592.05,157.63L596.32,75.65L600.59,130.3L604.87,162.18L609.14,157.63" style="vector-effect: non-scaling-stroke; fill: none; stroke: rgb(248, 118, 109); stroke-opacity: 1; stroke-width: 2px; opacity: 1;"/></g><g class="points"/><g class="text"/></g></g></g><g class="xy3" transform="translate(80,100)" clip-path="url(#clip60c9c3xy3plot)"><g class="scatterlayer mlayer"><g class="trace scatter trace687bbc" style="stroke-miterlimit: 2; opacity: 0.8;"><g class="fills"/><g class="errorbars"/><g class="lines"><path class="js-line" d="M-219.73,243.35L-219.73,399L-215.46,399L-215.46,221.12L-211.18,243.35L-211.18,399L-206.91,154.41L-206.91,399L-202.64,243.35L-202.64,399L-198.37,154.41L-198.37,221.12L-194.09,399L-194.09,265.59L-189.82,399L-189.82,243.35L-185.55,399L-185.55,198.88L-181.28,399L-181.28,243.35L-177,310.06L-177,176.65L-172.73,399L-172.73,287.82L-168.46,154.41L-168.46,399L-164.19,265.59L-164.19,399L-159.91,221.12L-159.91,376.76L-155.64,399L-155.64,243.35L-151.37,198.88L-151.37,399L-147.1,265.59L-147.1,399L-142.82,243.35L-142.82,399L-138.55,221.12L-138.55,399L-134.28,265.59L-134.28,399L-130.01,399L-130.01,243.35L-125.73,243.35L-125.73,354.53L-121.46,176.65L-121.46,399L-117.19,265.59L-117.19,354.53L-112.92,265.59L-112.92,399L-108.64,176.65L-108.64,399L-104.37,399L-104.37,265.59L-100.1,221.12L-100.1,399L-95.83,376.76L-95.83,243.35L-91.55,399L-91.55,221.12L-87.28,265.59L-87.28,354.53L-83.01,310.06L-83.01,243.35L-78.74,221.12L-78.74,376.76L-74.46,354.53L-74.46,221.12L-70.19,243.35L-70.19,221.12L-65.92,310.06L-65.92,243.35L-61.65,265.59L-61.65,221.12L-57.37,265.59L-57.37,376.76L-53.1,376.76L-53.1,265.59L-48.83,399L-48.83,221.12L-44.56,243.35L-44.56,354.53L-40.28,399L-40.28,198.88L-36.01,243.35L-36.01,399L-31.74,198.88L-31.74,332.29L-27.47,243.35L-27.47,376.76L-23.19,265.59L-23.19,376.76L-18.92,332.29L-18.92,132.18L-14.65,243.35L-14.65,332.29L-10.38,221.12L-10.38,354.53L-6.1,376.76L-6.1,198.88L-1.83,243.35L-1.83,265.59L2.44,399L2.44,221.12L6.71,243.35L6.71,332.29L10.99,221.12L10.99,332.29L15.26,399L15.26,265.59L19.53,243.35L19.53,399L23.8,221.12L23.8,332.29L28.08,354.53L28.08,221.12L32.35,399L32.35,243.35L36.62,354.53L36.62,132.18L40.89,176.65L40.89,310.06L45.17,265.59L45.17,310.06L49.44,243.35L49.44,399L53.71,176.65L53.71,265.59L57.98,154.41L57.98,399L62.26,243.35L62.26,332.29L66.53,265.59L66.53,354.53L70.8,376.76L70.8,221.12L75.07,332.29L75.07,265.59L79.35,399L79.35,243.35L83.62,176.65L83.62,376.76L87.89,243.35L87.89,376.76L92.16,243.35L92.16,376.76L96.44,243.35L96.44,399L100.71,376.76L100.71,198.88L104.98,198.88L104.98,310.06L109.25,221.12L109.25,310.06L113.53,198.88L113.53,243.35L117.8,154.41L117.8,198.88L122.07,243.35L122.07,265.59L126.34,265.59L126.34,399L130.62,310.06L130.62,132.18L134.89,310.06L134.89,265.59L139.16,243.35L139.16,376.76L143.43,198.88L143.43,399L147.71,399L147.71,154.41L151.98,243.35L151.98,354.53L156.25,243.35L156.25,354.53L160.52,332.29L160.52,154.41L164.8,354.53L164.8,265.59L169.07,221.12L169.07,287.82L173.34,243.35L173.34,354.53L177.61,21L177.61,399L181.89,399L181.89,198.88L186.16,265.59L186.16,399L190.43,221.12L190.43,376.76L194.7,399L194.7,265.59L198.98,198.88L198.98,354.53L203.25,243.35L203.25,376.76L207.52,399L207.52,109.94L211.79,399L211.79,243.35L216.07,399L216.07,265.59L220.34,221.12L220.34,376.76L224.61,376.76L224.61,243.35L228.88,221.12L228.88,399L233.16,332.29L233.16,221.12L237.43,154.41L237.43,399L241.7,132.18L241.7,376.76L245.97,198.88L245.97,376.76L250.25,221.12L250.25,399L254.52,354.53L254.52,265.59L258.79,243.35L258.79,376.76L263.06,399L263.06,243.35L267.34,399L267.34,221.12L271.61,399L271.61,265.59L275.88,376.76L275.88,243.35L280.15,399L280.15,221.12L284.43,399L284.43,265.59L288.7,221.12L288.7,287.82L292.97,399L292.97,221.12L297.24,399L297.24,221.12L301.52,332.29L301.52,243.35L305.79,243.35L305.79,376.76L310.06,399L310.06,198.88L314.33,376.76L314.33,243.35L318.61,399L318.61,221.12L322.88,354.53L322.88,243.35L327.15,221.12L327.15,354.53L331.42,376.76L331.42,243.35L335.7,265.59L335.7,354.53L339.97,221.12L339.97,399L344.24,243.35L344.24,399L348.51,354.53L348.51,198.88L352.79,399L352.79,243.35L357.06,399L357.06,198.88L361.33,376.76L361.33,176.65L365.6,399L365.6,243.35L369.88,198.88L369.88,399L374.15,198.88L374.15,399L378.42,243.35L378.42,354.53L382.69,243.35L382.69,399L386.97,221.12L386.97,399L391.24,287.82L395.51,265.59L399.78,176.65L404.06,243.35L408.33,243.35L412.6,243.35L416.87,221.12L425.42,265.59L429.69,176.65L433.96,265.59L438.24,198.88L442.51,198.88L446.78,243.35L451.05,265.59L455.33,221.12L459.6,221.12L463.87,265.59L468.15,221.12L472.42,221.12L476.69,243.35L480.96,243.35L485.24,243.35L489.51,198.88L493.78,243.35L498.05,243.35L502.33,243.35L506.6,221.12L510.87,221.12L515.14,243.35L519.42,221.12L523.69,265.59L527.96,243.35L532.23,243.35L536.51,243.35L540.78,265.59L549.32,221.12L553.6,243.35L557.87,221.12L562.14,243.35L566.41,243.35L570.69,399L574.96,354.53L579.23,399L583.5,399L587.78,354.53L592.05,399L596.32,399L609.14,399" style="vector-effect: non-scaling-stroke; fill: none; stroke: rgb(163, 165, 0); stroke-opacity: 1; stroke-width: 2px; opacity: 1;"/></g><g class="points"/><g class="text"/></g></g></g></g><path class="xlines-above crisp" d="" style="fill: none; stroke-width: 1px; stroke: rgb(0, 0, 0); stroke-opacity: 0;"/><path class="ylines-above crisp" d="" style="fill: none; stroke-width: 1px; stroke: rgb(0, 0, 0); stroke-opacity: 0;"/><g class="overlines-above"><path class="xy2-x crisp" d="M0,0" style="fill: none;"/><path class="xy2-y crisp" d="" style="fill: none; stroke-width: 1px; stroke: rgb(0, 0, 0); stroke-opacity: 0;"/><path class="xy3-x crisp" d="M0,0" style="fill: none;"/><path class="xy3-y crisp" d="" style="fill: none; stroke-width: 1px; stroke: rgb(0, 0, 0); stroke-opacity: 0;"/></g><g class="xaxislayer-above"><path class="xtick ticks crisp" d="M0,521v5" transform="translate(80,0)" style="stroke: rgb(51, 51, 51); stroke-opacity: 1; stroke-width: 1px;"/><path class="xtick ticks crisp" d="M0,521v5" transform="translate(191.09,0)" style="stroke: rgb(51, 51, 51); stroke-opacity: 1; stroke-width: 1px;"/><path class="xtick ticks crisp" d="M0,521v5" transform="translate(303.39,0)" style="stroke: rgb(51, 51, 51); stroke-opacity: 1; stroke-width: 1px;"/><path class="xtick ticks crisp" d="M0,521v5" transform="translate(413.87,0)" style="stroke: rgb(51, 51, 51); stroke-opacity: 1; stroke-width: 1px;"/><path class="xtick ticks crisp" d="M0,521v5" transform="translate(526.1700000000001,0)" style="stroke: rgb(51, 51, 51); stroke-opacity: 1; stroke-width: 1px;"/><path class="xtick ticks crisp" d="M0,521v5" transform="translate(636.65,0)" style="stroke: rgb(51, 51, 51); stroke-opacity: 1; stroke-width: 1px;"/><g class="xtick"><text text-anchor="middle" x="0" y="540.4" transform="translate(80,0)" style="font-family: 'Open Sans', verdana, arial, sans-serif; font-size: 12px; fill: rgb(51, 51, 51); fill-opacity: 1; white-space: pre; opacity: 1;">Jan 2020</text></g><g class="xtick"><text text-anchor="middle" x="0" y="540.4" style="font-family: 'Open Sans', verdana, arial, sans-serif; font-size: 12px; fill: rgb(51, 51, 51); fill-opacity: 1; white-space: pre; opacity: 1;" transform="translate(191.09,0)">Jul 2020</text></g><g class="xtick"><text text-anchor="middle" x="0" y="540.4" style="font-family: 'Open Sans', verdana, arial, sans-serif; font-size: 12px; fill: rgb(51, 51, 51); fill-opacity: 1; white-space: pre; opacity: 1;" transform="translate(303.39,0)">Jan 2021</text></g><g class="xtick"><text text-anchor="middle" x="0" y="540.4" style="font-family: 'Open Sans', verdana, arial, sans-serif; font-size: 12px; fill: rgb(51, 51, 51); fill-opacity: 1; white-space: pre; opacity: 1;" transform="translate(413.87,0)">Jul 2021</text></g><g class="xtick"><text text-anchor="middle" x="0" y="540.4" style="font-family: 'Open Sans', verdana, arial, sans-serif; font-size: 12px; fill: rgb(51, 51, 51); fill-opacity: 1; white-space: pre; opacity: 1;" transform="translate(526.1700000000001,0)">Jan 2022</text></g><g class="xtick"><text text-anchor="middle" x="0" y="540.4" style="font-family: 'Open Sans', verdana, arial, sans-serif; font-size: 12px; fill: rgb(51, 51, 51); fill-opacity: 1; white-space: pre; opacity: 1;" transform="translate(636.65,0)">Jul 2022</text></g></g><g class="yaxislayer-above"><path class="ytick ticks crisp" d="M79,0h-5" transform="translate(0,499)" style="stroke: rgb(51, 51, 51); stroke-opacity: 1; stroke-width: 1px;"/><path class="ytick ticks crisp" d="M79,0h-5" transform="translate(0,455.87)" style="stroke: rgb(51, 51, 51); stroke-opacity: 1; stroke-width: 1px;"/><path class="ytick ticks crisp" d="M79,0h-5" transform="translate(0,412.74)" style="stroke: rgb(51, 51, 51); stroke-opacity: 1; stroke-width: 1px;"/><path class="ytick ticks crisp" d="M79,0h-5" transform="translate(0,369.61)" style="stroke: rgb(51, 51, 51); stroke-opacity: 1; stroke-width: 1px;"/><path class="ytick ticks crisp" d="M79,0h-5" transform="translate(0,326.48)" style="stroke: rgb(51, 51, 51); stroke-opacity: 1; stroke-width: 1px;"/><path class="ytick ticks crisp" d="M79,0h-5" transform="translate(0,283.35)" style="stroke: rgb(51, 51, 51); stroke-opacity: 1; stroke-width: 1px;"/><path class="ytick ticks crisp" d="M79,0h-5" transform="translate(0,240.22)" style="stroke: rgb(51, 51, 51); stroke-opacity: 1; stroke-width: 1px;"/><path class="ytick ticks crisp" d="M79,0h-5" transform="translate(0,197.09)" style="stroke: rgb(51, 51, 51); stroke-opacity: 1; stroke-width: 1px;"/><path class="ytick ticks crisp" d="M79,0h-5" transform="translate(0,153.97)" style="stroke: rgb(51, 51, 51); stroke-opacity: 1; stroke-width: 1px;"/><path class="ytick ticks crisp" d="M79,0h-5" transform="translate(0,110.84)" style="stroke: rgb(51, 51, 51); stroke-opacity: 1; stroke-width: 1px;"/><g class="ytick"><text text-anchor="end" x="71.6" y="4.199999999999999" transform="translate(0,499)" style="font-family: 'Open Sans', verdana, arial, sans-serif; font-size: 12px; fill: rgb(51, 51, 51); fill-opacity: 1; white-space: pre; opacity: 1;">0</text></g><g class="ytick"><text text-anchor="end" x="71.6" y="4.199999999999999" style="font-family: 'Open Sans', verdana, arial, sans-serif; font-size: 12px; fill: rgb(51, 51, 51); fill-opacity: 1; white-space: pre; opacity: 1;" transform="translate(0,455.87)">5M</text></g><g class="ytick"><text text-anchor="end" x="71.6" y="4.199999999999999" style="font-family: 'Open Sans', verdana, arial, sans-serif; font-size: 12px; fill: rgb(51, 51, 51); fill-opacity: 1; white-space: pre; opacity: 1;" transform="translate(0,412.74)">10M</text></g><g class="ytick"><text text-anchor="end" x="71.6" y="4.199999999999999" style="font-family: 'Open Sans', verdana, arial, sans-serif; font-size: 12px; fill: rgb(51, 51, 51); fill-opacity: 1; white-space: pre; opacity: 1;" transform="translate(0,369.61)">15M</text></g><g class="ytick"><text text-anchor="end" x="71.6" y="4.199999999999999" style="font-family: 'Open Sans', verdana, arial, sans-serif; font-size: 12px; fill: rgb(51, 51, 51); fill-opacity: 1; white-space: pre; opacity: 1;" transform="translate(0,326.48)">20M</text></g><g class="ytick"><text text-anchor="end" x="71.6" y="4.199999999999999" style="font-family: 'Open Sans', verdana, arial, sans-serif; font-size: 12px; fill: rgb(51, 51, 51); fill-opacity: 1; white-space: pre; opacity: 1;" transform="translate(0,283.35)">25M</text></g><g class="ytick"><text text-anchor="end" x="71.6" y="4.199999999999999" style="font-family: 'Open Sans', verdana, arial, sans-serif; font-size: 12px; fill: rgb(51, 51, 51); fill-opacity: 1; white-space: pre; opacity: 1;" transform="translate(0,240.22)">30M</text></g><g class="ytick"><text text-anchor="end" x="71.6" y="4.199999999999999" style="font-family: 'Open Sans', verdana, arial, sans-serif; font-size: 12px; fill: rgb(51, 51, 51); fill-opacity: 1; white-space: pre; opacity: 1;" transform="translate(0,197.09)">35M</text></g><g class="ytick"><text text-anchor="end" x="71.6" y="4.199999999999999" style="font-family: 'Open Sans', verdana, arial, sans-serif; font-size: 12px; fill: rgb(51, 51, 51); fill-opacity: 1; white-space: pre; opacity: 1;" transform="translate(0,153.97)">40M</text></g><g class="ytick"><text text-anchor="end" x="71.6" y="4.199999999999999" style="font-family: 'Open Sans', verdana, arial, sans-serif; font-size: 12px; fill: rgb(51, 51, 51); fill-opacity: 1; white-space: pre; opacity: 1;" transform="translate(0,110.84)">45M</text></g></g><g class="overaxes-above"><g class="xy2-x"/><g class="xy2-y"><path class="y2tick ticks crisp" d="M693.8000000000001,0h5" transform="translate(0,485.34)" style="stroke: rgb(51, 51, 51); stroke-opacity: 1; stroke-width: 1px;"/><path class="y2tick ticks crisp" d="M693.8000000000001,0h5" transform="translate(0,439.8)" style="stroke: rgb(51, 51, 51); stroke-opacity: 1; stroke-width: 1px;"/><path class="y2tick ticks crisp" d="M693.8000000000001,0h5" transform="translate(0,394.25)" style="stroke: rgb(51, 51, 51); stroke-opacity: 1; stroke-width: 1px;"/><path class="y2tick ticks crisp" d="M693.8000000000001,0h5" transform="translate(0,348.71000000000004)" style="stroke: rgb(51, 51, 51); stroke-opacity: 1; stroke-width: 1px;"/><path class="y2tick ticks crisp" d="M693.8000000000001,0h5" transform="translate(0,303.16999999999996)" style="stroke: rgb(51, 51, 51); stroke-opacity: 1; stroke-width: 1px;"/><path class="y2tick ticks crisp" d="M693.8000000000001,0h5" transform="translate(0,257.63)" style="stroke: rgb(51, 51, 51); stroke-opacity: 1; stroke-width: 1px;"/><path class="y2tick ticks crisp" d="M693.8000000000001,0h5" transform="translate(0,212.07999999999998)" style="stroke: rgb(51, 51, 51); stroke-opacity: 1; stroke-width: 1px;"/><path class="y2tick ticks crisp" d="M693.8000000000001,0h5" transform="translate(0,166.54000000000002)" style="stroke: rgb(51, 51, 51); stroke-opacity: 1; stroke-width: 1px;"/><path class="y2tick ticks crisp" d="M693.8000000000001,0h5" transform="translate(0,121)" style="stroke: rgb(51, 51, 51); stroke-opacity: 1; stroke-width: 1px;"/><g class="y2tick"><text text-anchor="start" x="701.2" y="4.199999999999999" transform="translate(0,485.34)" style="font-family: 'Open Sans', verdana, arial, sans-serif; font-size: 12px; fill: rgb(51, 51, 51); fill-opacity: 1; white-space: pre; opacity: 1;">20</text></g><g class="y2tick"><text text-anchor="start" x="701.2" y="4.199999999999999" style="font-family: 'Open Sans', verdana, arial, sans-serif; font-size: 12px; fill: rgb(51, 51, 51); fill-opacity: 1; white-space: pre; opacity: 1;" transform="translate(0,439.8)">30</text></g><g class="y2tick"><text text-anchor="start" x="701.2" y="4.199999999999999" style="font-family: 'Open Sans', verdana, arial, sans-serif; font-size: 12px; fill: rgb(51, 51, 51); fill-opacity: 1; white-space: pre; opacity: 1;" transform="translate(0,394.25)">40</text></g><g class="y2tick"><text text-anchor="start" x="701.2" y="4.199999999999999" style="font-family: 'Open Sans', verdana, arial, sans-serif; font-size: 12px; fill: rgb(51, 51, 51); fill-opacity: 1; white-space: pre; opacity: 1;" transform="translate(0,348.71000000000004)">50</text></g><g class="y2tick"><text text-anchor="start" x="701.2" y="4.199999999999999" style="font-family: 'Open Sans', verdana, arial, sans-serif; font-size: 12px; fill: rgb(51, 51, 51); fill-opacity: 1; white-space: pre; opacity: 1;" transform="translate(0,303.16999999999996)">60</text></g><g class="y2tick"><text text-anchor="start" x="701.2" y="4.199999999999999" style="font-family: 'Open Sans', verdana, arial, sans-serif; font-size: 12px; fill: rgb(51, 51, 51); fill-opacity: 1; white-space: pre; opacity: 1;" transform="translate(0,257.63)">70</text></g><g class="y2tick"><text text-anchor="start" x="701.2" y="4.199999999999999" style="font-family: 'Open Sans', verdana, arial, sans-serif; font-size: 12px; fill: rgb(51, 51, 51); fill-opacity: 1; white-space: pre; opacity: 1;" transform="translate(0,212.07999999999998)">80</text></g><g class="y2tick"><text text-anchor="start" x="701.2" y="4.199999999999999" style="font-family: 'Open Sans', verdana, arial, sans-serif; font-size: 12px; fill: rgb(51, 51, 51); fill-opacity: 1; white-space: pre; opacity: 1;" transform="translate(0,166.54000000000002)">90</text></g><g class="y2tick"><text text-anchor="start" x="701.2" y="4.199999999999999" style="font-family: 'Open Sans', verdana, arial, sans-serif; font-size: 12px; fill: rgb(51, 51, 51); fill-opacity: 1; white-space: pre; opacity: 1;" transform="translate(0,121)">100</text></g></g><g class="xy3-x"/><g class="xy3-y"><path class="y3tick ticks crisp" d="M770.4,0h5" transform="translate(0,476.76)" style="stroke: rgb(51, 51, 51); stroke-opacity: 1; stroke-width: 1px;"/><path class="y3tick ticks crisp" d="M770.4,0h5" transform="translate(0,432.29)" style="stroke: rgb(51, 51, 51); stroke-opacity: 1; stroke-width: 1px;"/><path class="y3tick ticks crisp" d="M770.4,0h5" transform="translate(0,387.82)" style="stroke: rgb(51, 51, 51); stroke-opacity: 1; stroke-width: 1px;"/><path class="y3tick ticks crisp" d="M770.4,0h5" transform="translate(0,343.35)" style="stroke: rgb(51, 51, 51); stroke-opacity: 1; stroke-width: 1px;"/><path class="y3tick ticks crisp" d="M770.4,0h5" transform="translate(0,298.88)" style="stroke: rgb(51, 51, 51); stroke-opacity: 1; stroke-width: 1px;"/><path class="y3tick ticks crisp" d="M770.4,0h5" transform="translate(0,254.41)" style="stroke: rgb(51, 51, 51); stroke-opacity: 1; stroke-width: 1px;"/><path class="y3tick ticks crisp" d="M770.4,0h5" transform="translate(0,209.94)" style="stroke: rgb(51, 51, 51); stroke-opacity: 1; stroke-width: 1px;"/><path class="y3tick ticks crisp" d="M770.4,0h5" transform="translate(0,165.47)" style="stroke: rgb(51, 51, 51); stroke-opacity: 1; stroke-width: 1px;"/><path class="y3tick ticks crisp" d="M770.4,0h5" transform="translate(0,121)" style="stroke: rgb(51, 51, 51); stroke-opacity: 1; stroke-width: 1px;"/><g class="y3tick"><text text-anchor="start" x="777.8" y="4.199999999999999" transform="translate(0,476.76)" style="font-family: 'Open Sans', verdana, arial, sans-serif; font-size: 12px; fill: rgb(51, 51, 51); fill-opacity: 1; white-space: pre; opacity: 1;">2</text></g><g class="y3tick"><text text-anchor="start" x="777.8" y="4.199999999999999" style="font-family: 'Open Sans', verdana, arial, sans-serif; font-size: 12px; fill: rgb(51, 51, 51); fill-opacity: 1; white-space: pre; opacity: 1;" transform="translate(0,432.29)">4</text></g><g class="y3tick"><text text-anchor="start" x="777.8" y="4.199999999999999" style="font-family: 'Open Sans', verdana, arial, sans-serif; font-size: 12px; fill: rgb(51, 51, 51); fill-opacity: 1; white-space: pre; opacity: 1;" transform="translate(0,387.82)">6</text></g><g class="y3tick"><text text-anchor="start" x="777.8" y="4.199999999999999" style="font-family: 'Open Sans', verdana, arial, sans-serif; font-size: 12px; fill: rgb(51, 51, 51); fill-opacity: 1; white-space: pre; opacity: 1;" transform="translate(0,343.35)">8</text></g><g class="y3tick"><text text-anchor="start" x="777.8" y="4.199999999999999" style="font-family: 'Open Sans', verdana, arial, sans-serif; font-size: 12px; fill: rgb(51, 51, 51); fill-opacity: 1; white-space: pre; opacity: 1;" transform="translate(0,298.88)">10</text></g><g class="y3tick"><text text-anchor="start" x="777.8" y="4.199999999999999" style="font-family: 'Open Sans', verdana, arial, sans-serif; font-size: 12px; fill: rgb(51, 51, 51); fill-opacity: 1; white-space: pre; opacity: 1;" transform="translate(0,254.41)">12</text></g><g class="y3tick"><text text-anchor="start" x="777.8" y="4.199999999999999" style="font-family: 'Open Sans', verdana, arial, sans-serif; font-size: 12px; fill: rgb(51, 51, 51); fill-opacity: 1; white-space: pre; opacity: 1;" transform="translate(0,209.94)">14</text></g><g class="y3tick"><text text-anchor="start" x="777.8" y="4.199999999999999" style="font-family: 'Open Sans', verdana, arial, sans-serif; font-size: 12px; fill: rgb(51, 51, 51); fill-opacity: 1; white-space: pre; opacity: 1;" transform="translate(0,165.47)">16</text></g><g class="y3tick"><text text-anchor="start" x="777.8" y="4.199999999999999" style="font-family: 'Open Sans', verdana, arial, sans-serif; font-size: 12px; fill: rgb(51, 51, 51); fill-opacity: 1; white-space: pre; opacity: 1;" transform="translate(0,121)">18</text></g></g></g></g><g class="subplot xy2"/><g class="subplot xy3"/></g><g class="polarlayer"/><g class="smithlayer"/><g class="ternarylayer"/><g class="geolayer"/><g class="funnelarealayer"/><g class="pielayer"/><g class="iciclelayer"/><g class="treemaplayer"/><g class="sunburstlayer"/><g class="glimages"/><defs id="topdefs-60c9c3"><g class="clips"/><clipPath id="legend60c9c3"><rect width="127" height="67" x="0" y="0"/></clipPath></defs><g class="layer-above"><g class="imagelayer"/><g class="shapelayer"/></g><g class="infolayer"><g class="legend" pointer-events="all" transform="translate(861.32,100)"><rect class="bg" shape-rendering="crispEdges" width="127" height="67" x="0" y="0" style="stroke: rgb(68, 68, 68); stroke-opacity: 1; fill: rgb(255, 255, 255); fill-opacity: 1; stroke-width: 0px;"/><g class="scrollbox" transform="" clip-path="url(#legend60c9c3)"><g class="groups"><g class="traces" transform="translate(0,14.5)" style="opacity: 1;"><text class="legendtext" text-anchor="start" x="40" y="4.680000000000001" style="font-family: 'Open Sans', verdana, arial, sans-serif; font-size: 12px; fill: rgb(51, 51, 51); fill-opacity: 1; white-space: pre;">Google Trend</text><g class="layers" style="opacity: 0.8;"><g class="legendfill"/><g class="legendlines"><path class="js-line" d="M5,0h30" style="fill: none; stroke: rgb(248, 118, 109); stroke-opacity: 1; stroke-width: 2px;"/></g><g class="legendsymbols"><g class="legendpoints"/></g></g><rect class="legendtoggle" x="0" y="-9.5" width="121.703125" height="19" style="fill: rgb(0, 0, 0); fill-opacity: 0;"/></g><g class="traces" transform="translate(0,33.5)" style="opacity: 1;"><text class="legendtext" text-anchor="start" x="40" y="4.680000000000001" style="font-family: 'Open Sans', verdana, arial, sans-serif; font-size: 12px; fill: rgb(51, 51, 51); fill-opacity: 1; white-space: pre;">Tweets Volume</text><g class="layers" style="opacity: 0.8;"><g class="legendfill"/><g class="legendlines"><path class="js-line" d="M5,0h30" style="fill: none; stroke: rgb(163, 165, 0); stroke-opacity: 1; stroke-width: 2px;"/></g><g class="legendsymbols"><g class="legendpoints"/></g></g><rect class="legendtoggle" x="0" y="-9.5" width="121.703125" height="19" style="fill: rgb(0, 0, 0); fill-opacity: 0;"/></g><g class="traces" transform="translate(0,52.5)" style="opacity: 1;"><text class="legendtext" text-anchor="start" x="40" y="4.680000000000001" style="font-family: 'Open Sans', verdana, arial, sans-serif; font-size: 12px; fill: rgb(51, 51, 51); fill-opacity: 1; white-space: pre;">Gross Profit</text><g class="layers" style="opacity: 1;"><g class="legendfill"/><g class="legendlines"><path class="js-line" d="M5,0h30" style="fill: none; stroke: rgb(0, 191, 125); stroke-opacity: 1; stroke-width: 2px;"/></g><g class="legendsymbols"><g class="legendpoints"/></g></g><rect class="legendtoggle" x="0" y="-9.5" width="121.703125" height="19" style="fill: rgb(0, 0, 0); fill-opacity: 0;"/></g></g></g><rect class="scrollbar" rx="20" ry="3" width="0" height="0" x="0" y="0" style="fill: rgb(128, 139, 164); fill-opacity: 1;"/></g><g class="g-gtitle"><text class="gtitle" x="500" y="50" text-anchor="middle" dy="0em" style="font-family: 'Open Sans', verdana, arial, sans-serif; font-size: 17px; fill: rgb(51, 51, 51); opacity: 1; font-weight: normal; white-space: pre;">Daily Extracted MEV - Gross Profit v.s. Google Trend and Twitter Volume</text></g><g class="g-xtitle"/><g class="g-ytitle"><text class="ytitle" transform="rotate(-90,23.450000000000003,310)" x="23.450000000000003" y="310" text-anchor="middle" style="font-family: 'Open Sans', verdana, arial, sans-serif; font-size: 14px; fill: rgb(51, 51, 51); opacity: 1; font-weight: normal; white-space: pre;">Gross Profit</text></g><g class="g-y2title"><text class="y2title" transform="rotate(-90,746.3625,310)" x="746.3625" y="310" text-anchor="middle" style="font-family: 'Open Sans', verdana, arial, sans-serif; font-size: 14px; fill: rgb(51, 51, 51); opacity: 1; font-weight: normal; white-space: pre;">Google Trend</text></g><g class="g-y3title"><text class="y3title" transform="rotate(-90,816.284375,310)" x="816.284375" y="310" text-anchor="middle" style="font-family: 'Open Sans', verdana, arial, sans-serif; font-size: 14px; fill: rgb(51, 51, 51); opacity: 1; font-weight: normal; white-space: pre;">Tweets Volume</text></g></g></svg>