<svg class="main-svg" xmlns="http://www.w3.org/2000/svg" xmlns:xlink="http://www.w3.org/1999/xlink" width="1000" height="600" style="" viewBox="0 0 1000 600"><rect x="0" y="0" width="1000" height="600" style="fill: rgb(255, 255, 255); fill-opacity: 1;"/><defs id="defs-e7ee5e"><g class="clips"><clipPath id="clipe7ee5exyplot" class="plotclip"><rect width="684" height="460"/></clipPath><clipPath class="axesclip" id="clipe7ee5ex"><rect x="80" y="0" width="684" height="600"/></clipPath><clipPath class="axesclip" id="clipe7ee5ey"><rect x="0" y="60" width="1000" height="460"/></clipPath><clipPath class="axesclip" id="clipe7ee5exy"><rect x="80" y="60" width="684" height="460"/></clipPath></g><g class="gradients"/><g class="patterns"/></defs><g class="bglayer"><rect class="bg" x="80" y="60" width="684" height="460" style="fill: rgb(237, 237, 237); fill-opacity: 1; stroke-width: 0;"/></g><g class="layer-below"><g class="imagelayer"/><g class="shapelayer"/></g><g class="cartesianlayer"><g class="subplot xy"><g class="layer-subplot"><g class="shapelayer"/><g class="imagelayer"/></g><g class="minor-gridlayer"><g class="x"/><g class="y"/></g><g class="gridlayer"><g class="x"><path class="xgrid crisp" transform="translate(96.88,0)" d="M0,60v460" style="stroke: rgb(255, 255, 255); stroke-opacity: 1; stroke-width: 1px;"/><path class="xgrid crisp" transform="translate(219.77,0)" d="M0,60v460" style="stroke: rgb(255, 255, 255); stroke-opacity: 1; stroke-width: 1px;"/><path class="xgrid crisp" transform="translate(344.01,0)" d="M0,60v460" style="stroke: rgb(255, 255, 255); stroke-opacity: 1; stroke-width: 1px;"/><path class="xgrid crisp" transform="translate(466.23,0)" d="M0,60v460" style="stroke: rgb(255, 255, 255); stroke-opacity: 1; stroke-width: 1px;"/><path class="xgrid crisp" transform="translate(590.47,0)" d="M0,60v460" style="stroke: rgb(255, 255, 255); stroke-opacity: 1; stroke-width: 1px;"/><path class="xgrid crisp" transform="translate(712.68,0)" d="M0,60v460" style="stroke: rgb(255, 255, 255); stroke-opacity: 1; stroke-width: 1px;"/></g><g class="y"><path class="ygrid crisp" transform="translate(0,460.18)" d="M80,0h684" style="stroke: rgb(255, 255, 255); stroke-opacity: 1; stroke-width: 1px;"/><path class="ygrid crisp" transform="translate(0,400.37)" d="M80,0h684" style="stroke: rgb(255, 255, 255); stroke-opacity: 1; stroke-width: 1px;"/><path class="ygrid crisp" transform="translate(0,340.55)" d="M80,0h684" style="stroke: rgb(255, 255, 255); stroke-opacity: 1; stroke-width: 1px;"/><path class="ygrid crisp" transform="translate(0,280.74)" d="M80,0h684" style="stroke: rgb(255, 255, 255); stroke-opacity: 1; stroke-width: 1px;"/><path class="ygrid crisp" transform="translate(0,220.92)" d="M80,0h684" style="stroke: rgb(255, 255, 255); stroke-opacity: 1; stroke-width: 1px;"/><path class="ygrid crisp" transform="translate(0,161.11)" d="M80,0h684" style="stroke: rgb(255, 255, 255); stroke-opacity: 1; stroke-width: 1px;"/><path class="ygrid crisp" transform="translate(0,101.28999999999999)" d="M80,0h684" style="stroke: rgb(255, 255, 255); stroke-opacity: 1; stroke-width: 1px;"/></g></g><g class="zerolinelayer"><path class="yzl zl crisp" transform="translate(0,520)" d="M80,0h684" style="stroke: rgb(255, 255, 255); stroke-opacity: 1; stroke-width: 1px;"/></g><path class="xlines-below"/><path class="ylines-below"/><g class="overlines-below"/><g class="xaxislayer-below"/><g class="yaxislayer-below"/><g class="overaxes-below"/><g class="plot" transform="translate(80,60)" clip-path="url(#clipe7ee5exyplot)"><g class="scatterlayer mlayer"><g class="trace scatter trace466b88" style="stroke-miterlimit: 2;"><g class="fills"><g><path class="js-fill" d="M684,460L0,460L0,460L0.68,458.35L1.35,460L3.38,458.97L4.05,460L5.4,459.61L6.08,455.32L6.75,452.7L7.43,456.15L8.1,460L8.78,459.58L9.45,460L10.13,460L10.8,458.54L11.48,457.4L12.15,459.27L12.83,457.38L13.5,459.29L14.85,460L15.53,460L20.93,459.69L21.61,458.77L23.63,460L24.31,460L25.66,458.69L26.33,459.55L27.01,458.54L27.68,459.23L28.36,458.75L29.03,456.74L29.71,457.14L30.38,460L31.74,458.34L32.41,460L33.09,459.53L33.76,460L35.11,459.63L35.79,459.08L36.46,458.01L37.14,459.6L38.49,458.87L39.16,459.81L40.51,459.44L41.19,458.48L43.21,459.68L43.89,459L44.56,458.51L45.24,456.06L46.59,459.44L47.27,458L47.94,453.38L48.62,458.21L49.29,456.98L49.97,459.36L50.64,457.86L51.32,459.65L54.02,458.28L54.69,454.82L55.37,455.5L56.04,458.91L58.74,459.68L59.42,459.55L60.77,458.44L61.45,459.09L62.12,450.48L62.8,454.34L63.47,458.9L64.15,451.44L64.82,342.54L65.5,399.98L66.85,457.8L67.52,426.52L68.87,458.57L69.55,458.63L70.22,456.29L70.9,459.44L72.25,456.14L72.92,458.35L74.27,459.9L74.95,458.87L77.65,459.88L78.33,459.76L79.68,459.21L80.35,459.64L81.03,459.92L81.7,458.41L83.73,459.83L84.4,459.76L86.43,459.71L87.1,457.91L87.78,458.16L88.45,459.37L89.13,458.89L89.8,459.39L91.15,459.24L91.83,459.75L92.51,459.88L93.18,458.89L94.53,458.01L95.21,459.19L95.88,459.4L96.56,458.28L97.23,457.79L97.91,458.61L99.26,457.14L99.93,458.84L100.61,458.43L101.28,459.8L102.63,458.36L103.31,458.9L103.98,455.14L104.66,457.45L105.33,457.68L106.01,457L106.69,458.57L107.36,457.97L108.71,459.8L109.39,459.18L110.74,459.39L111.41,458.86L112.76,458.44L113.44,458.36L114.79,457L115.46,454.72L116.81,458.05L117.49,452.84L118.16,455.07L118.84,453.66L119.51,454.59L120.19,454.14L120.86,453.3L121.54,454.19L122.22,453.41L122.89,451.45L124.24,454.36L124.92,452.79L126.27,451.55L126.94,453.14L128.29,450.79L128.97,447.75L129.64,448.26L130.32,444.23L131.67,427.11L132.34,431.68L133.02,410.79L133.69,419.4L134.37,400.86L135.04,361.4L135.72,379.28L136.39,372.3L137.07,372L137.75,383.36L138.42,383.04L139.1,408.53L139.77,403.08L140.45,380.69L141.8,391.12L142.47,393.31L145.17,372.15L145.85,375.05L146.52,383.85L147.2,353.08L147.87,362.77L148.55,384.25L149.9,399.9L150.57,377.55L151.92,277.73L152.6,315.73L154.63,356.3L155.3,343.52L155.98,321.15L156.65,336.23L158,361.78L158.68,315.71L159.35,343.15L160.03,343.07L160.7,322.95L161.38,355.96L162.05,350.59L163.4,343.04L164.08,325.21L164.75,301.91L165.43,230.75L166.78,254.33L167.46,281.31L168.13,180.65L168.81,248.63L169.48,271.86L170.16,268.13L172.18,235.89L172.86,257.06L173.53,208.3L174.21,217.91L174.88,194.82L175.56,206.07L176.91,271.68L177.58,268.93L178.26,286.58L178.93,270.57L180.28,162.77L180.96,262.78L181.63,236.08L182.31,293.1L184.34,206.8L185.01,199.09L185.69,229.44L186.36,209L187.71,147.61L188.39,180.34L189.74,127.37L190.41,166.42L191.09,144.22L191.76,147.96L192.44,304.71L193.11,254.56L193.79,145.4L194.46,151.98L195.14,185.22L196.49,159.51L197.16,176.67L198.52,210.53L199.19,210.04L199.87,249.83L200.54,264.28L201.22,259.01L202.57,194.64L203.24,224.12L203.92,125.34L204.59,153.72L205.94,163.97L206.62,93.39L207.97,181L208.64,147.38L209.32,229.23L209.99,224.86L210.67,230.53L212.02,322.13L212.69,164.5L214.05,268.51L214.72,271.64L215.4,319.56L216.07,310.25L216.75,306.14L217.42,252.68L218.1,267.85L218.77,253.4L219.45,242.59L220.12,274.14L220.8,285.8L221.47,263.81L223.5,301.68L224.17,273.78L225.52,246.15L226.2,275.48L226.87,186.36L227.55,254.26L228.9,226.87L229.58,242.34L230.25,262.46L230.93,252.73L232.28,185.99L232.95,251.9L234.3,322.26L234.98,273.65L235.65,273.14L236.33,265.76L237,251.49L237.68,285.26L239.03,247.6L239.7,167.69L240.38,238.87L241.05,212.03L241.73,192.97L242.4,273.86L243.08,292.26L243.76,190.44L244.43,165.82L245.11,208.09L246.46,153.34L247.13,166.21L248.48,229.72L249.16,150.01L250.51,243.16L251.18,246.3L251.86,242.94L252.53,294.15L253.21,279.86L253.88,312.27L255.91,213.22L256.58,202.66L257.26,207.13L257.93,240.81L258.61,219.44L259.29,294.19L259.96,297.23L260.64,239.22L261.31,199.09L261.99,258.44L263.34,302.08L264.01,277.46L264.69,301.04L265.36,291.75L266.04,308.17L266.71,287.27L267.39,286.99L268.06,277.37L268.74,286.65L269.41,281.4L270.76,238.75L271.44,266.23L272.11,240.51L272.79,243.64L274.14,228.88L274.82,204.11L275.49,204.46L276.17,240.28L276.84,261.78L277.52,241.82L278.19,250.49L278.87,224.53L279.54,209.33L280.22,258.05L282.24,229.73L282.92,220.34L284.27,264.46L284.94,266.52L285.62,266.36L286.29,242.3L286.97,191.87L287.64,240.48L289.67,293.73L290.35,302.22L291.02,296.89L291.7,256.82L292.37,260.49L293.05,246.25L294.4,269.23L295.07,316.2L295.75,271.52L296.42,282.44L297.1,307.87L297.77,297.34L298.45,321.47L299.12,320.24L299.8,290.02L300.47,334.32L301.15,313.79L302.5,305.26L303.17,270.74L305.2,315.66L305.88,295.13L306.55,286.58L307.23,312.52L307.9,317.12L308.58,307.52L309.25,301.02L309.93,312.78L310.6,301.26L311.28,336.15L312.63,310.06L313.3,327.83L313.98,328.27L314.65,334.29L315.33,311.59L316,314.62L316.68,326.25L317.35,312.31L318.7,313.6L319.38,298.66L320.06,322.05L320.73,321.97L321.41,329.82L322.76,297.62L323.43,317.12L324.11,348.66L324.78,346.14L325.46,340.2L326.13,340.29L326.81,327.72L327.48,325.18L328.16,290.59L328.83,286.97L329.51,268.3L330.18,304.71L330.86,304.3L331.53,323.62L332.21,300.99L332.88,320.54L333.56,319.66L334.23,295.83L335.59,371.76L336.26,293.88L337.61,356.9L338.29,364.83L339.64,299.53L340.31,351.31L341.66,310.1L342.34,326.71L343.01,327.16L343.69,332.38L344.36,310.88L345.04,320.06L346.39,309.3L347.06,291.13L347.74,315.69L348.41,313.46L349.09,314.23L351.79,388.18L352.47,352.71L353.14,325.8L353.82,361.01L354.49,351.98L355.17,315.88L355.84,289.86L356.52,315.36L357.19,99.84L357.87,191.59L358.54,180.94L359.22,184.63L359.89,29.79L360.57,159.08L361.92,258.41L362.59,288.13L363.27,268.15L363.94,282.09L364.62,288.63L365.3,278.58L365.97,309.16L366.65,308.2L367.32,301.88L368,259.41L368.67,279.58L369.35,317.52L370.02,262.28L370.7,218.3L371.37,257.88L372.05,278.45L372.72,240.79L373.4,242.69L374.07,253.98L375.42,305.56L376.1,292.24L376.77,299.52L377.45,287.93L378.12,308.51L378.8,251.17L379.47,249.91L380.15,226.41L381.5,289.84L382.18,273.22L382.85,40.34L383.53,279.87L384.88,321.37L385.55,314.36L386.23,328.18L386.9,321.56L387.58,315.94L388.25,286.92L388.93,288.91L389.6,320.54L390.28,342.06L390.95,331.07L391.63,339.18L392.3,332.08L392.98,330.98L393.65,356.69L395.68,323.25L396.36,333.63L397.03,337.11L397.71,327.1L398.38,329.23L399.06,292.71L399.73,298.07L400.41,345.84L401.76,294.05L402.43,315.08L403.11,296.45L403.78,333.92L404.46,348.32L405.13,337.93L405.81,337.96L406.48,343.65L407.16,329.15L407.83,350.99L408.51,355.19L409.18,351.83L409.86,340.58L410.54,349.24L411.21,344.64L411.89,347.54L412.56,340.25L413.24,361.35L413.91,334.54L414.59,340.43L415.94,368.42L416.61,363.2L417.29,350.03L417.96,319.4L418.64,320.7L419.31,316.23L419.99,320.34L420.66,336.07L421.34,340.31L422.01,350.73L423.36,369.87L424.04,365.15L424.71,386.17L425.39,385.41L426.07,384.97L426.74,365.64L427.42,370.61L428.09,378.16L428.77,394.56L429.44,392.59L430.12,400.52L430.79,398.57L431.47,384.53L432.14,324.4L432.82,340.49L433.49,364.23L434.17,336.13L435.52,370.58L436.19,353.81L437.54,366.11L438.22,366.05L439.57,379.6L440.24,379.2L440.92,334.11L441.6,342.05L442.27,352.94L442.95,379.96L443.62,354.85L444.3,370.26L444.97,332.49L445.65,377.63L446.32,390.8L447,385.07L447.67,387.36L448.35,382.31L449.02,386.29L449.7,395.59L450.37,385.33L451.05,387.8L451.72,386.11L452.4,359.73L453.75,397.69L454.42,388.39L455.77,375.44L456.45,381.65L457.13,377.85L457.8,341.79L458.48,386.55L459.15,381.26L459.83,384.65L460.5,376.59L461.18,369.47L461.85,379.69L463.2,390.31L463.88,372.31L464.55,394.16L465.23,384.93L465.9,356.03L466.58,373.83L467.25,395.14L467.93,380.68L468.6,375.94L469.28,397.06L471.31,373.95L471.98,381.41L472.66,387.44L473.33,386L474.01,375.13L474.68,384.68L475.36,380.14L476.03,397.61L476.71,404.5L477.38,394.48L478.06,402.59L478.73,399.48L479.41,380.26L480.08,390.64L480.76,377.82L481.43,393.85L482.11,398.94L482.78,394.08L483.46,396.02L484.13,383.1L484.81,384.62L485.48,371.8L486.16,356.49L486.84,386.4L487.51,377.41L488.19,396.4L488.86,392.48L489.54,403.53L490.89,390.8L491.56,334.25L492.24,389.78L492.91,357.65L493.59,396.15L494.26,395.88L494.94,391.01L495.61,380.35L496.29,400.76L496.96,407.97L497.64,386.59L498.31,389.54L498.99,396.39L500.34,407.18L501.01,405.39L501.69,406L502.37,401.11L503.04,405.65L503.72,403.77L504.39,398.22L505.07,400.26L505.74,389.06L506.42,411.47L507.09,417.01L507.77,407.88L508.44,406.8L509.12,416.87L509.79,410.05L510.47,420.97L511.14,423.78L511.82,420.23L512.49,420.2L513.17,403.34L514.52,389.06L515.19,414.17L515.87,433.68L516.54,407.28L517.22,430.43L517.9,424.71L518.57,433.24L519.25,433.12L519.92,437.53L520.6,436.35L521.27,421.75L522.62,423.58L523.3,422.45L524.65,340.01L525.32,417.36L526,364.4L526.67,427.13L527.35,411.25L528.02,419.4L528.7,428.91L529.37,427.61L530.05,432.51L530.72,420.94L531.4,431.33L532.08,429.22L532.75,426.68L533.43,421.09L534.1,420.87L534.78,432.17L535.45,428.6L536.13,420.49L536.8,424.57L537.48,422.51L538.15,414.36L538.83,422.65L539.5,430.94L540.18,429.14L541.53,416.64L542.2,418.09L543.55,428.88L544.23,415.7L545.58,419.46L546.25,426.39L546.93,355.98L547.61,414.01L548.28,418.2L548.96,408.11L549.63,419.22L550.31,413.45L551.66,425.25L552.33,409.24L553.01,422.34L553.68,410.57L554.36,394.73L555.03,414.36L556.38,413.09L557.06,407.11L557.73,423.47L558.41,411.18L559.08,412.39L559.76,399.83L561.11,416.02L561.78,401.23L563.81,420.29L564.49,412.58L565.16,410.5L565.84,392.47L566.51,421L567.19,412.27L567.86,410.07L568.54,415.67L569.89,402.84L570.56,415.63L571.91,413.17L572.59,423.04L573.26,425.26L573.94,432.81L574.61,415.04L575.29,430.14L577.31,420.65L577.99,392.77L578.67,408.72L579.34,406.35L580.69,423.26L581.37,422.03L582.72,407.15L583.39,421.87L584.74,424.78L585.42,423.27L586.77,435.31L587.44,418.8L588.12,422.58L588.79,402.32L589.47,419.35L590.14,411.48L590.82,404.33L591.49,425.42L592.85,435.69L593.52,426.19L594.2,426.99L594.87,423.21L595.55,423.08L596.22,392.28L596.9,357.15L597.57,379.66L598.92,296.74L599.6,356.57L600.27,334.27L600.95,348L602.3,401.04L602.97,383.04L603.65,358.16L604.32,397.24L605,402.34L605.67,396.02L606.35,368.99L607.02,402.49L607.7,415.27L608.38,381.86L609.05,378.32L609.73,381.48L610.4,406.09L611.08,392.94L611.75,416.79L612.43,413.79L613.1,434.37L613.78,432.86L614.45,433.74L615.8,421.55L616.48,397L617.83,425.02L618.5,407.94L620.53,214.97L621.2,265.69L621.88,249.79L622.55,336.81L623.23,376.5L623.91,249.98L624.58,264.74L625.26,306.75L625.93,364.53L626.61,357.84L627.28,385.46L627.96,365.36L629.98,408.25L630.66,380.59L631.33,377.48L632.01,365.14L633.36,347.62L634.03,362.56L636.06,400.11L636.73,394.47L637.41,384.5L638.08,385.45L638.76,393.33L639.44,388.57L640.11,392.62L641.46,381.96L642.14,385.88L642.81,340.18L643.49,379.53L644.16,346.12L644.84,380.08L645.51,367.42L646.19,386.69L648.21,343.69L648.89,364.73L649.56,387.32L650.24,331.83L650.91,325.15L651.59,349.48L652.26,310.7L652.94,316.33L653.62,384.52L654.29,362.06L654.97,388.01L655.64,197.23L656.99,372.53L657.67,393.43L658.34,384.38L659.02,390.73L659.69,349.28L660.37,375.5L661.04,394.56L661.72,309.07L663.74,386.2L664.42,347.78L665.09,390.72L665.77,322.4L666.44,256.66L667.12,310.33L667.79,374.86L668.47,372.57L669.15,392.24L669.82,396.48L670.5,320.95L671.17,323.19L671.85,374.97L672.52,354.94L673.2,356.13L673.87,399.96L674.55,399.24L675.22,363.38L676.57,399.1L677.25,390.07L677.92,317.29L678.6,351.17L679.27,384.32L679.95,350.54L680.62,378.2L681.3,368.99L681.97,380.99L682.65,332.14L683.32,337.08L684,355.53" style="fill: rgb(248, 118, 109); fill-opacity: 0.5; stroke-width: 0;"/></g><g><path class="js-fill" d="M0,460L0.68,458.35L1.35,460L2.7,459L3.38,458.42L4.05,460L4.73,459.42L5.4,459.61L6.08,455.01L6.75,452.7L7.43,456.15L8.1,460L8.78,459.58L9.45,460L10.13,460L10.8,458.54L11.48,456.11L12.15,459.27L12.83,456.93L13.5,459.29L14.85,460L15.53,460L20.93,459.69L21.61,458.25L22.96,460L23.63,460L24.31,460L24.98,458.84L25.66,457.86L26.33,459.55L27.01,458.54L27.68,459.23L28.36,458.75L29.03,455.73L29.71,452.65L30.38,460L31.06,459.26L31.74,456.53L32.41,460L33.09,459.53L34.44,460L35.11,458.47L36.46,457.66L37.14,459.6L38.49,457.86L39.16,459.81L40.51,459.44L41.19,458.48L43.89,459L44.56,457.87L45.24,455.61L45.92,457.59L46.59,459.44L47.27,458L47.94,453.38L48.62,458.21L49.29,456.98L49.97,459.36L50.64,456.23L51.32,459.65L54.02,458.28L54.69,454.82L55.37,455.11L56.04,458.91L58.74,459.68L59.42,459.3L60.09,459.37L60.77,458.44L61.45,459.09L62.12,449.17L63.47,458.9L64.15,451.05L64.82,328.14L65.5,398.63L66.85,457.8L67.52,424.94L68.87,458.29L69.55,458.55L70.22,456.22L70.9,459.44L71.57,458.29L72.25,455.34L73.6,459.55L74.27,459.9L74.95,457.59L75.62,459.26L76.98,459.38L77.65,459.88L79.68,459.21L80.35,459.64L81.03,459.92L81.7,458.41L83.73,459.83L84.4,459.76L85.75,459.8L86.43,458.64L87.1,457.24L87.78,457.91L88.45,459.37L89.13,458.89L90.48,459.22L91.15,459.24L92.51,459.88L93.18,458.89L93.86,457.56L94.53,458.01L95.88,458.98L96.56,458.28L97.23,457.79L97.91,458.43L99.26,457.09L99.93,458.84L100.61,458.43L101.28,459.8L101.96,457.25L102.63,458.36L103.31,458.53L103.98,455.08L105.33,457.62L106.01,457L106.69,458.49L107.36,457.85L108.71,459.8L109.39,456.57L110.06,459.72L110.74,459.14L114.79,457L115.46,454.72L116.81,458.05L117.49,452.75L118.16,455.07L118.84,453.59L119.51,454.59L120.19,454.14L120.86,453.3L121.54,454.19L122.22,453.41L122.89,451.45L123.57,452.3L124.24,454.36L125.59,452.04L126.27,451.29L126.94,453.05L127.62,452.1L130.32,443.67L130.99,435.94L131.67,426.94L132.34,431.31L133.02,409.44L133.69,418.43L134.37,400.21L135.04,360.12L135.72,378.45L136.39,371.94L137.07,371.06L137.75,382.82L138.42,383.04L139.1,408.06L139.77,401.79L140.45,380.62L141.8,390.94L142.47,391.74L145.17,372.15L145.85,374.68L146.52,382.2L147.2,351.05L147.87,361.32L148.55,383.5L149.9,399.42L150.57,376.01L151.92,273.28L152.6,313.82L154.63,351.71L155.3,338.43L155.98,314.88L156.65,333.13L158,358.89L158.68,314.79L160.03,342.34L160.7,322.27L161.38,354.91L162.05,348.83L163.4,341.24L164.08,323.99L164.75,301L165.43,229.22L166.1,229.74L166.78,252L167.46,280.46L168.13,178.16L169.48,269.47L170.16,267.55L172.18,235.11L172.86,256.37L173.53,207.3L174.21,216.69L174.88,193.8L175.56,205.59L176.91,269.6L177.58,268.19L178.26,285.92L178.93,269.87L180.28,161.78L180.96,261.12L181.63,233.83L182.31,292.41L184.34,205.15L185.01,197.99L185.69,226.44L186.36,206.38L187.71,141.49L188.39,179.63L189.74,124.78L190.41,165.38L191.09,143.12L191.76,146.75L192.44,303.38L193.11,254.21L193.79,144.95L194.46,151.29L195.14,184.01L196.49,157.58L197.16,176.2L199.19,208.91L199.87,247.36L200.54,262.13L201.22,255.66L202.57,192.91L203.24,220.33L203.92,122.48L204.59,151.74L205.27,153.3L205.94,159.5L206.62,23L207.29,146.04L207.97,177.25L208.64,142.92L209.32,221.54L209.99,217.08L210.67,214.47L212.02,317.89L212.69,126.06L214.05,265.29L214.72,226.96L215.4,314.33L216.07,305.21L216.75,302.4L217.42,251.2L218.1,255.85L218.77,247.37L219.45,236.22L220.12,271.35L220.8,282.02L221.47,262.08L223.5,299.87L224.17,271.68L224.85,244.39L225.52,244.96L226.2,274.11L226.87,170.83L227.55,252.41L228.9,225.29L229.58,240.34L230.25,258.51L230.93,251.21L232.28,182.95L232.95,249.32L234.3,318.41L234.98,270.41L235.65,271.55L236.33,263.85L237,249.99L237.68,283.2L239.03,246.32L239.7,160.09L240.38,236.77L241.05,210.91L241.73,190.91L242.4,272.76L243.08,290.83L243.76,189.46L244.43,164.48L245.11,206.57L246.46,151.94L247.13,163.73L247.81,183.09L248.48,227.57L249.16,147.99L249.83,238.42L251.18,244.59L251.86,240.43L252.53,291.54L253.21,278.59L253.88,309.91L254.56,273.26L255.91,209.42L256.58,201.68L257.26,206L257.93,239.45L258.61,218.68L259.29,293.51L259.96,296.15L260.64,237.52L261.31,198.32L261.99,257.61L263.34,301L264.01,275.61L264.69,300.39L265.36,290.72L266.04,307.37L266.71,285.61L267.39,285.77L268.06,275.77L269.41,278.21L270.09,265.27L270.76,234.66L271.44,263.65L272.11,236.75L272.79,241.85L274.14,227.51L274.82,202.76L275.49,203.65L276.17,240.03L276.84,261.31L277.52,240.16L278.19,248.64L278.87,223.59L279.54,207.85L280.22,257.42L282.92,219.96L283.59,258.96L284.94,265.9L285.62,265.67L286.97,191.76L287.64,240.31L289.67,292.09L290.35,301.74L291.02,296.41L291.7,256.67L292.37,260.18L293.05,246.25L294.4,268.99L295.07,315.89L295.75,270.52L296.42,282.2L297.1,307.57L297.77,297.34L298.45,321.36L299.12,319.82L299.8,288.8L300.47,334.32L301.15,313.21L302.5,305.26L303.17,268.2L304.53,304.76L305.2,313.1L306.55,286.13L307.23,306.5L307.9,316.7L308.58,307.34L309.25,300.21L309.93,311.25L310.6,300.39L311.28,335.91L312.63,309.99L313.3,327.27L313.98,327.76L314.65,333.7L315.33,311.51L316,312.89L316.68,325.35L317.35,310.88L318.03,312.7L318.7,312.75L319.38,297.74L320.06,321.82L320.73,321.61L321.41,329.58L322.76,297.07L323.43,316.64L324.11,348.03L324.78,345.57L325.46,339.91L326.13,339.5L326.81,326.48L327.48,323.01L328.16,290L328.83,286.04L329.51,267.3L330.18,303.99L330.86,303.61L331.53,322.51L332.21,300.49L332.88,319.87L333.56,319.22L334.23,295.18L335.59,371.47L336.26,293L337.61,356.81L338.29,364.83L339.64,299.01L340.31,350.64L341.66,309.65L342.34,326.2L343.01,326.81L343.69,332.33L344.36,310.85L345.04,319.64L346.39,309.09L347.06,290.56L347.74,315.42L348.41,312.42L349.09,313.74L349.77,332.61L351.12,353.06L351.79,388.09L353.14,325.19L353.82,360.65L354.49,351.64L355.17,315.18L355.84,288.76L356.52,305.75L357.19,79.64L357.87,188.16L358.54,176.09L359.22,179.09L359.89,25.77L360.57,156.29L361.92,255.6L362.59,287.07L363.27,267.86L363.94,282.01L364.62,288.18L365.3,278.17L365.97,308.93L366.65,307.81L367.32,301.66L368,258.15L368.67,278.93L369.35,315.78L370.02,261.73L370.7,216.75L371.37,256.45L372.05,277.68L372.72,240L373.4,242.09L374.07,252.8L375.42,303.05L376.1,291.68L376.77,299.34L377.45,287.63L378.12,308.08L378.8,247.41L379.47,247.25L380.15,225.32L381.5,289.54L382.18,272.58L382.85,39.32L383.53,279.63L384.88,321.02L385.55,313.65L386.23,327.7L386.9,321.28L388.25,286.58L388.93,288.46L390.28,341.33L390.95,330.78L391.63,336.65L392.3,331.64L392.98,329.39L393.65,354.78L395.68,322.98L396.36,333.36L397.03,336.54L397.71,326.25L398.38,328.99L399.06,291.57L399.73,297.54L400.41,345.15L401.76,290.65L402.43,314.47L403.11,296.03L403.78,333.59L404.46,348.12L405.13,337.64L405.81,337.11L406.48,343.55L407.16,328.58L407.83,350.94L408.51,355.17L409.18,351.73L409.86,340.24L410.54,348.46L411.21,344.43L411.89,347.1L412.56,339.61L413.24,360.83L413.91,333.75L414.59,340.08L415.94,367.56L416.61,362.77L417.29,349.48L417.96,317.72L418.64,320.16L419.31,314.08L419.99,319.92L420.66,335.51L421.34,339.77L422.01,350.46L423.36,369.53L424.04,363.87L424.71,385.33L425.39,384.99L426.07,384.52L426.74,365.09L427.42,370.22L428.77,394.29L429.44,392.27L430.12,400.23L430.79,398.35L431.47,383.62L432.14,323.05L433.49,363.78L434.17,334.49L435.52,370.34L436.19,353.49L437.54,365.91L438.22,365L439.57,379.38L440.24,378.71L440.92,331.52L441.6,341.78L442.27,352.74L442.95,379.51L443.62,354.57L444.3,369.87L444.97,332.04L445.65,377.3L446.32,390.2L447,384.82L447.67,387.28L448.35,381.99L449.02,385.76L449.7,395.03L450.37,384.75L451.05,387.14L451.72,385.48L452.4,359.24L453.75,397.43L454.42,387.8L455.77,375.19L456.45,381.25L457.13,377.39L457.8,340.99L458.48,386.38L459.15,380.91L459.83,384.52L460.5,376.22L461.18,369.07L461.85,379.52L463.2,389.97L463.88,372.06L464.55,393.89L465.23,384.83L465.9,355.21L466.58,373.2L467.25,394.88L467.93,379.95L468.6,375.05L469.28,392.44L470.63,385.38L471.31,373.59L472.66,387.17L473.33,385.64L474.01,374.73L474.68,383.76L475.36,379.19L476.03,397.3L476.71,403.93L477.38,393.52L478.06,402.33L478.73,399.24L479.41,379.64L480.08,390.14L480.76,377.25L481.43,393.5L482.11,398.45L482.78,393.81L483.46,395.85L484.13,382.77L484.81,384.45L485.48,371.5L486.16,356.23L486.84,386.15L487.51,377L488.19,396.22L488.86,392.04L489.54,403.44L490.89,390.7L491.56,332.5L492.24,389.06L492.91,357.29L493.59,395.89L494.26,395.78L494.94,390.21L495.61,380.11L496.29,400.58L496.96,407.57L497.64,386.27L498.31,389.06L498.99,396.23L500.34,407.04L501.01,405.28L501.69,405.89L502.37,400.85L503.04,405.4L503.72,403.62L504.39,398.01L505.07,400.08L505.74,388.79L506.42,411.3L507.09,416.82L507.77,407.73L508.44,406.4L509.12,416.67L509.79,409.92L510.47,420.76L511.14,423.71L511.82,420.17L512.49,420.12L513.17,403.2L514.52,388.76L515.19,414.03L515.87,433.6L516.54,407.06L517.22,430.25L517.9,424.65L518.57,433.14L519.25,432.89L519.92,437.49L520.6,436.27L521.27,421.61L522.62,423.49L523.3,422.43L524.65,339.56L525.32,417.34L526,364.18L526.67,427.08L527.35,411.09L528.02,419.18L528.7,428.88L529.37,427.44L530.05,432.45L530.72,420.72L531.4,430.46L532.08,428.55L534.1,420.55L534.78,432.03L535.45,428.38L536.13,420.27L536.8,424.41L537.48,422.29L538.15,414.1L538.83,422.52L539.5,430.86L540.18,429.12L540.85,424.37L541.53,411.46L543.55,428.8L544.23,415.61L545.58,419L546.25,426.09L546.93,355.25L547.61,413.96L548.28,417.99L548.96,407.4L549.63,418.98L550.31,413.33L551.66,425.01L552.33,408.97L553.01,422.15L553.68,410.21L554.36,394.11L555.03,413.95L556.38,412.89L557.06,406.99L557.73,423.14L558.41,411.03L559.08,412.03L559.76,399.44L561.11,415.39L561.78,400.48L563.81,419.96L564.49,412.33L565.16,410.24L565.84,392.02L566.51,420.3L567.19,412.05L567.86,409.57L568.54,415.6L569.89,402.5L570.56,415.49L571.91,412.9L572.59,422.88L573.26,425.18L573.94,432.71L574.61,414.82L575.29,429.97L577.31,420.12L577.99,392.21L578.67,408.22L579.34,405.44L580.69,422.81L581.37,421.4L582.72,406.03L583.39,421.04L584.74,424.23L585.42,423.05L586.77,435.04L587.44,417.45L588.12,421.84L588.79,401.6L589.47,418.27L590.14,410.68L590.82,402.77L591.49,424.8L592.85,434.76L593.52,419.49L594.2,423.74L594.87,422.79L595.55,421.53L596.22,390.82L596.9,354.71L597.57,378.29L598.92,292.65L599.6,355.85L600.27,333.03L600.95,346.28L602.3,400.2L602.97,382.43L603.65,357.33L604.32,396.73L605,401.64L605.67,395.37L606.35,367.84L607.02,401.83L607.7,414.61L608.38,380.17L609.05,376.07L609.73,380.23L610.4,405.49L611.08,391.17L611.75,416.02L612.43,413.56L613.1,434.14L613.78,432.68L614.45,433.7L615.8,421.34L616.48,396.47L617.83,424.6L618.5,407.04L620.53,210.59L621.2,262.29L621.88,246.32L622.55,335.99L623.23,376.06L623.91,248.22L624.58,262.34L625.26,303.48L625.93,363.65L626.61,357.07L627.28,385.04L627.96,365.18L629.98,408.25L630.66,380.33L631.33,377.35L632.01,364.68L633.36,347.38L634.03,362.03L636.06,399.66L636.73,393.98L637.41,384.2L638.08,385.21L638.76,393.15L639.44,388.27L640.11,392.01L641.46,381.54L642.14,385.52L642.81,339.05L643.49,378.78L644.16,345.03L644.84,379.53L645.51,366.63L646.19,386.04L648.21,341.72L648.89,363.32L649.56,386.43L650.24,329.82L650.91,323.89L651.59,347.65L652.26,309.52L652.94,314.96L653.62,382.71L654.29,360.53L654.97,386.62L655.64,196.43L656.99,371.76L657.67,393.08L658.34,383.18L659.02,389.42L659.69,347.69L660.37,373.46L661.04,392.89L661.72,307.24L663.74,384.94L664.42,344.62L665.09,389.53L665.77,319.52L666.44,254.81L667.12,307.72L667.79,370.41L668.47,370.27L669.15,388.96L669.82,393.8L670.5,317.11L671.17,321.84L671.85,373.89L672.52,352.72L673.2,354.72L673.87,398.75L674.55,397.78L675.22,361.44L676.57,397.53L677.25,387.78L677.92,315.64L678.6,349.08L679.27,380.75L679.95,346.95L680.62,376.14L681.3,367.38L681.97,379.31L682.65,329.36L683.32,333.58L684,352.31L684,355.53L683.32,337.08L682.65,332.14L681.97,380.99L681.3,368.99L680.62,378.2L679.95,350.54L679.27,384.32L678.6,351.17L677.92,317.29L677.25,390.07L676.57,399.1L675.22,363.38L674.55,399.24L673.87,399.96L673.2,356.13L672.52,354.94L671.85,374.97L671.17,323.19L670.5,320.95L669.82,396.48L669.15,392.24L668.47,372.57L667.79,374.86L667.12,310.33L666.44,256.66L665.77,322.4L665.09,390.72L664.42,347.78L663.74,386.2L661.72,309.07L661.04,394.56L660.37,375.5L659.69,349.28L659.02,390.73L658.34,384.38L657.67,393.43L656.99,372.53L655.64,197.23L654.97,388.01L654.29,362.06L653.62,384.52L652.94,316.33L652.26,310.7L651.59,349.48L650.91,325.15L650.24,331.83L649.56,387.32L648.89,364.73L648.21,343.69L646.19,386.69L645.51,367.42L644.84,380.08L644.16,346.12L643.49,379.53L642.81,340.18L642.14,385.88L641.46,381.96L640.11,392.62L639.44,388.57L638.76,393.33L638.08,385.45L637.41,384.5L636.73,394.47L636.06,400.11L634.03,362.56L633.36,347.62L632.01,365.14L631.33,377.48L630.66,380.59L629.98,408.25L627.96,365.36L627.28,385.46L626.61,357.84L625.93,364.53L625.26,306.75L624.58,264.74L623.91,249.98L623.23,376.5L622.55,336.81L621.88,249.79L621.2,265.69L620.53,214.97L618.5,407.94L617.83,425.02L616.48,397L615.8,421.55L614.45,433.74L613.78,432.86L613.1,434.37L612.43,413.79L611.75,416.79L611.08,392.94L610.4,406.09L609.73,381.48L609.05,378.32L608.38,381.86L607.7,415.27L607.02,402.49L606.35,368.99L605.67,396.02L605,402.34L604.32,397.24L603.65,358.16L602.97,383.04L602.3,401.04L600.95,348L600.27,334.27L599.6,356.57L598.92,296.74L597.57,379.66L596.9,357.15L596.22,392.28L595.55,423.08L594.87,423.21L594.2,426.99L593.52,426.19L592.85,435.69L591.49,425.42L590.82,404.33L590.14,411.48L589.47,419.35L588.79,402.32L588.12,422.58L587.44,418.8L586.77,435.31L585.42,423.27L584.74,424.78L583.39,421.87L582.72,407.15L581.37,422.03L580.69,423.26L579.34,406.35L578.67,408.72L577.99,392.77L577.31,420.65L575.29,430.14L574.61,415.04L573.94,432.81L573.26,425.26L572.59,423.04L571.91,413.17L570.56,415.63L569.89,402.84L568.54,415.67L567.86,410.07L567.19,412.27L566.51,421L565.84,392.47L565.16,410.5L564.49,412.58L563.81,420.29L561.78,401.23L561.11,416.02L559.76,399.83L559.08,412.39L558.41,411.18L557.73,423.47L557.06,407.11L556.38,413.09L555.03,414.36L554.36,394.73L553.68,410.57L553.01,422.34L552.33,409.24L551.66,425.25L550.31,413.45L549.63,419.22L548.96,408.11L548.28,418.2L547.61,414.01L546.93,355.98L546.25,426.39L545.58,419.46L544.23,415.7L543.55,428.88L542.2,418.09L541.53,416.64L540.18,429.14L539.5,430.94L538.83,422.65L538.15,414.36L537.48,422.51L536.8,424.57L536.13,420.49L535.45,428.6L534.78,432.17L534.1,420.87L533.43,421.09L532.75,426.68L532.08,429.22L531.4,431.33L530.72,420.94L530.05,432.51L529.37,427.61L528.7,428.91L528.02,419.4L527.35,411.25L526.67,427.13L526,364.4L525.32,417.36L524.65,340.01L523.3,422.45L522.62,423.58L521.27,421.75L520.6,436.35L519.92,437.53L519.25,433.12L518.57,433.24L517.9,424.71L517.22,430.43L516.54,407.28L515.87,433.68L515.19,414.17L514.52,389.06L513.17,403.34L512.49,420.2L511.82,420.23L511.14,423.78L510.47,420.97L509.79,410.05L509.12,416.87L508.44,406.8L507.77,407.88L507.09,417.01L506.42,411.47L505.74,389.06L505.07,400.26L504.39,398.22L503.72,403.77L503.04,405.65L502.37,401.11L501.69,406L501.01,405.39L500.34,407.18L498.99,396.39L498.31,389.54L497.64,386.59L496.96,407.97L496.29,400.76L495.61,380.35L494.94,391.01L494.26,395.88L493.59,396.15L492.91,357.65L492.24,389.78L491.56,334.25L490.89,390.8L489.54,403.53L488.86,392.48L488.19,396.4L487.51,377.41L486.84,386.4L486.16,356.49L485.48,371.8L484.81,384.62L484.13,383.1L483.46,396.02L482.78,394.08L482.11,398.94L481.43,393.85L480.76,377.82L480.08,390.64L479.41,380.26L478.73,399.48L478.06,402.59L477.38,394.48L476.71,404.5L476.03,397.61L475.36,380.14L474.68,384.68L474.01,375.13L473.33,386L472.66,387.44L471.98,381.41L471.31,373.95L469.28,397.06L468.6,375.94L467.93,380.68L467.25,395.14L466.58,373.83L465.9,356.03L465.23,384.93L464.55,394.16L463.88,372.31L463.2,390.31L461.85,379.69L461.18,369.47L460.5,376.59L459.83,384.65L459.15,381.26L458.48,386.55L457.8,341.79L457.13,377.85L456.45,381.65L455.77,375.44L454.42,388.39L453.75,397.69L452.4,359.73L451.72,386.11L451.05,387.8L450.37,385.33L449.7,395.59L449.02,386.29L448.35,382.31L447.67,387.36L447,385.07L446.32,390.8L445.65,377.63L444.97,332.49L444.3,370.26L443.62,354.85L442.95,379.96L442.27,352.94L441.6,342.05L440.92,334.11L440.24,379.2L439.57,379.6L438.22,366.05L437.54,366.11L436.19,353.81L435.52,370.58L434.17,336.13L433.49,364.23L432.82,340.49L432.14,324.4L431.47,384.53L430.79,398.57L430.12,400.52L429.44,392.59L428.77,394.56L428.09,378.16L427.42,370.61L426.74,365.64L426.07,384.97L425.39,385.41L424.71,386.17L424.04,365.15L423.36,369.87L422.01,350.73L421.34,340.31L420.66,336.07L419.99,320.34L419.31,316.23L418.64,320.7L417.96,319.4L417.29,350.03L416.61,363.2L415.94,368.42L414.59,340.43L413.91,334.54L413.24,361.35L412.56,340.25L411.89,347.54L411.21,344.64L410.54,349.24L409.86,340.58L409.18,351.83L408.51,355.19L407.83,350.99L407.16,329.15L406.48,343.65L405.81,337.96L405.13,337.93L404.46,348.32L403.78,333.92L403.11,296.45L402.43,315.08L401.76,294.05L400.41,345.84L399.73,298.07L399.06,292.71L398.38,329.23L397.71,327.1L397.03,337.11L396.36,333.63L395.68,323.25L393.65,356.69L392.98,330.98L392.3,332.08L391.63,339.18L390.95,331.07L390.28,342.06L389.6,320.54L388.93,288.91L388.25,286.92L387.58,315.94L386.9,321.56L386.23,328.18L385.55,314.36L384.88,321.37L383.53,279.87L382.85,40.34L382.18,273.22L381.5,289.84L380.15,226.41L379.47,249.91L378.8,251.17L378.12,308.51L377.45,287.93L376.77,299.52L376.1,292.24L375.42,305.56L374.07,253.98L373.4,242.69L372.72,240.79L372.05,278.45L371.37,257.88L370.7,218.3L370.02,262.28L369.35,317.52L368.67,279.58L368,259.41L367.32,301.88L366.65,308.2L365.97,309.16L365.3,278.58L364.62,288.63L363.94,282.09L363.27,268.15L362.59,288.13L361.92,258.41L360.57,159.08L359.89,29.79L359.22,184.63L358.54,180.94L357.87,191.59L357.19,99.84L356.52,315.36L355.84,289.86L355.17,315.88L354.49,351.98L353.82,361.01L353.14,325.8L352.47,352.71L351.79,388.18L349.09,314.23L348.41,313.46L347.74,315.69L347.06,291.13L346.39,309.3L345.04,320.06L344.36,310.88L343.69,332.38L343.01,327.16L342.34,326.71L341.66,310.1L340.31,351.31L339.64,299.53L338.29,364.83L337.61,356.9L336.26,293.88L335.59,371.76L334.23,295.83L333.56,319.66L332.88,320.54L332.21,300.99L331.53,323.62L330.86,304.3L330.18,304.71L329.51,268.3L328.83,286.97L328.16,290.59L327.48,325.18L326.81,327.72L326.13,340.29L325.46,340.2L324.78,346.14L324.11,348.66L323.43,317.12L322.76,297.62L321.41,329.82L320.73,321.97L320.06,322.05L319.38,298.66L318.7,313.6L317.35,312.31L316.68,326.25L316,314.62L315.33,311.59L314.65,334.29L313.98,328.27L313.3,327.83L312.63,310.06L311.28,336.15L310.6,301.26L309.93,312.78L309.25,301.02L308.58,307.52L307.9,317.12L307.23,312.52L306.55,286.58L305.88,295.13L305.2,315.66L303.17,270.74L302.5,305.26L301.15,313.79L300.47,334.32L299.8,290.02L299.12,320.24L298.45,321.47L297.77,297.34L297.1,307.87L296.42,282.44L295.75,271.52L295.07,316.2L294.4,269.23L293.05,246.25L292.37,260.49L291.7,256.82L291.02,296.89L290.35,302.22L289.67,293.73L287.64,240.48L286.97,191.87L286.29,242.3L285.62,266.36L284.94,266.52L284.27,264.46L282.92,220.34L282.24,229.73L280.22,258.05L279.54,209.33L278.87,224.53L278.19,250.49L277.52,241.82L276.84,261.78L276.17,240.28L275.49,204.46L274.82,204.11L274.14,228.88L272.79,243.64L272.11,240.51L271.44,266.23L270.76,238.75L269.41,281.4L268.74,286.65L268.06,277.37L267.39,286.99L266.71,287.27L266.04,308.17L265.36,291.75L264.69,301.04L264.01,277.46L263.34,302.08L261.99,258.44L261.31,199.09L260.64,239.22L259.96,297.23L259.29,294.19L258.61,219.44L257.93,240.81L257.26,207.13L256.58,202.66L255.91,213.22L253.88,312.27L253.21,279.86L252.53,294.15L251.86,242.94L251.18,246.3L250.51,243.16L249.16,150.01L248.48,229.72L247.13,166.21L246.46,153.34L245.11,208.09L244.43,165.82L243.76,190.44L243.08,292.26L242.4,273.86L241.73,192.97L241.05,212.03L240.38,238.87L239.7,167.69L239.03,247.6L237.68,285.26L237,251.49L236.33,265.76L235.65,273.14L234.98,273.65L234.3,322.26L232.95,251.9L232.28,185.99L230.93,252.73L230.25,262.46L229.58,242.34L228.9,226.87L227.55,254.26L226.87,186.36L226.2,275.48L225.52,246.15L224.17,273.78L223.5,301.68L221.47,263.81L220.8,285.8L220.12,274.14L219.45,242.59L218.77,253.4L218.1,267.85L217.42,252.68L216.75,306.14L216.07,310.25L215.4,319.56L214.72,271.64L214.05,268.51L212.69,164.5L212.02,322.13L210.67,230.53L209.99,224.86L209.32,229.23L208.64,147.38L207.97,181L206.62,93.39L205.94,163.97L204.59,153.72L203.92,125.34L203.24,224.12L202.57,194.64L201.22,259.01L200.54,264.28L199.87,249.83L199.19,210.04L198.52,210.53L197.16,176.67L196.49,159.51L195.14,185.22L194.46,151.98L193.79,145.4L193.11,254.56L192.44,304.71L191.76,147.96L191.09,144.22L190.41,166.42L189.74,127.37L188.39,180.34L187.71,147.61L186.36,209L185.69,229.44L185.01,199.09L184.34,206.8L182.31,293.1L181.63,236.08L180.96,262.78L180.28,162.77L178.93,270.57L178.26,286.58L177.58,268.93L176.91,271.68L175.56,206.07L174.88,194.82L174.21,217.91L173.53,208.3L172.86,257.06L172.18,235.89L170.16,268.13L169.48,271.86L168.81,248.63L168.13,180.65L167.46,281.31L166.78,254.33L165.43,230.75L164.75,301.91L164.08,325.21L163.4,343.04L162.05,350.59L161.38,355.96L160.7,322.95L160.03,343.07L159.35,343.15L158.68,315.71L158,361.78L156.65,336.23L155.98,321.15L155.3,343.52L154.63,356.3L152.6,315.73L151.92,277.73L150.57,377.55L149.9,399.9L148.55,384.25L147.87,362.77L147.2,353.08L146.52,383.85L145.85,375.05L145.17,372.15L142.47,393.31L141.8,391.12L140.45,380.69L139.77,403.08L139.1,408.53L138.42,383.04L137.75,383.36L137.07,372L136.39,372.3L135.72,379.28L135.04,361.4L134.37,400.86L133.69,419.4L133.02,410.79L132.34,431.68L131.67,427.11L130.32,444.23L129.64,448.26L128.97,447.75L128.29,450.79L126.94,453.14L126.27,451.55L124.92,452.79L124.24,454.36L122.89,451.45L122.22,453.41L121.54,454.19L120.86,453.3L120.19,454.14L119.51,454.59L118.84,453.66L118.16,455.07L117.49,452.84L116.81,458.05L115.46,454.72L114.79,457L113.44,458.36L112.76,458.44L111.41,458.86L110.74,459.39L109.39,459.18L108.71,459.8L107.36,457.97L106.69,458.57L106.01,457L105.33,457.68L104.66,457.45L103.98,455.14L103.31,458.9L102.63,458.36L101.28,459.8L100.61,458.43L99.93,458.84L99.26,457.14L97.91,458.61L97.23,457.79L96.56,458.28L95.88,459.4L95.21,459.19L94.53,458.01L93.18,458.89L92.51,459.88L91.83,459.75L91.15,459.24L89.8,459.39L89.13,458.89L88.45,459.37L87.78,458.16L87.1,457.91L86.43,459.71L84.4,459.76L83.73,459.83L81.7,458.41L81.03,459.92L80.35,459.64L79.68,459.21L78.33,459.76L77.65,459.88L74.95,458.87L74.27,459.9L72.92,458.35L72.25,456.14L70.9,459.44L70.22,456.29L69.55,458.63L68.87,458.57L67.52,426.52L66.85,457.8L65.5,399.98L64.82,342.54L64.15,451.44L63.47,458.9L62.8,454.34L62.12,450.48L61.45,459.09L60.77,458.44L59.42,459.55L58.74,459.68L56.04,458.91L55.37,455.5L54.69,454.82L54.02,458.28L51.32,459.65L50.64,457.86L49.97,459.36L49.29,456.98L48.62,458.21L47.94,453.38L47.27,458L46.59,459.44L45.24,456.06L44.56,458.51L43.89,459L43.21,459.68L41.19,458.48L40.51,459.44L39.16,459.81L38.49,458.87L37.14,459.6L36.46,458.01L35.79,459.08L35.11,459.63L33.76,460L33.09,459.53L32.41,460L31.74,458.34L30.38,460L29.71,457.14L29.03,456.74L28.36,458.75L27.68,459.23L27.01,458.54L26.33,459.55L25.66,458.69L24.31,460L23.63,460L21.61,458.77L20.93,459.69L15.53,460L14.85,460L13.5,459.29L12.83,457.38L12.15,459.27L11.48,457.4L10.8,458.54L10.13,460L9.45,460L8.78,459.58L8.1,460L7.43,456.15L6.75,452.7L6.08,455.32L5.4,459.61L4.05,460L3.38,458.97L1.35,460L0.68,458.35L0,460Z" style="fill: rgb(163, 165, 0); fill-opacity: 0.5; stroke-width: 0;"/></g></g><g class="errorbars"/><g class="lines"><path class="js-line" d="M0,460L0.68,458.35L1.35,460L3.38,458.97L4.05,460L5.4,459.61L6.08,455.32L6.75,452.7L7.43,456.15L8.1,460L8.78,459.58L9.45,460L10.13,460L10.8,458.54L11.48,457.4L12.15,459.27L12.83,457.38L13.5,459.29L14.85,460L15.53,460L20.93,459.69L21.61,458.77L23.63,460L24.31,460L25.66,458.69L26.33,459.55L27.01,458.54L27.68,459.23L28.36,458.75L29.03,456.74L29.71,457.14L30.38,460L31.74,458.34L32.41,460L33.09,459.53L33.76,460L35.11,459.63L35.79,459.08L36.46,458.01L37.14,459.6L38.49,458.87L39.16,459.81L40.51,459.44L41.19,458.48L43.21,459.68L43.89,459L44.56,458.51L45.24,456.06L46.59,459.44L47.27,458L47.94,453.38L48.62,458.21L49.29,456.98L49.97,459.36L50.64,457.86L51.32,459.65L54.02,458.28L54.69,454.82L55.37,455.5L56.04,458.91L58.74,459.68L59.42,459.55L60.77,458.44L61.45,459.09L62.12,450.48L62.8,454.34L63.47,458.9L64.15,451.44L64.82,342.54L65.5,399.98L66.85,457.8L67.52,426.52L68.87,458.57L69.55,458.63L70.22,456.29L70.9,459.44L72.25,456.14L72.92,458.35L74.27,459.9L74.95,458.87L77.65,459.88L78.33,459.76L79.68,459.21L80.35,459.64L81.03,459.92L81.7,458.41L83.73,459.83L84.4,459.76L86.43,459.71L87.1,457.91L87.78,458.16L88.45,459.37L89.13,458.89L89.8,459.39L91.15,459.24L91.83,459.75L92.51,459.88L93.18,458.89L94.53,458.01L95.21,459.19L95.88,459.4L96.56,458.28L97.23,457.79L97.91,458.61L99.26,457.14L99.93,458.84L100.61,458.43L101.28,459.8L102.63,458.36L103.31,458.9L103.98,455.14L104.66,457.45L105.33,457.68L106.01,457L106.69,458.57L107.36,457.97L108.71,459.8L109.39,459.18L110.74,459.39L111.41,458.86L112.76,458.44L113.44,458.36L114.79,457L115.46,454.72L116.81,458.05L117.49,452.84L118.16,455.07L118.84,453.66L119.51,454.59L120.19,454.14L120.86,453.3L121.54,454.19L122.22,453.41L122.89,451.45L124.24,454.36L124.92,452.79L126.27,451.55L126.94,453.14L128.29,450.79L128.97,447.75L129.64,448.26L130.32,444.23L131.67,427.11L132.34,431.68L133.02,410.79L133.69,419.4L134.37,400.86L135.04,361.4L135.72,379.28L136.39,372.3L137.07,372L137.75,383.36L138.42,383.04L139.1,408.53L139.77,403.08L140.45,380.69L141.8,391.12L142.47,393.31L145.17,372.15L145.85,375.05L146.52,383.85L147.2,353.08L147.87,362.77L148.55,384.25L149.9,399.9L150.57,377.55L151.92,277.73L152.6,315.73L154.63,356.3L155.3,343.52L155.98,321.15L156.65,336.23L158,361.78L158.68,315.71L159.35,343.15L160.03,343.07L160.7,322.95L161.38,355.96L162.05,350.59L163.4,343.04L164.08,325.21L164.75,301.91L165.43,230.75L166.78,254.33L167.46,281.31L168.13,180.65L168.81,248.63L169.48,271.86L170.16,268.13L172.18,235.89L172.86,257.06L173.53,208.3L174.21,217.91L174.88,194.82L175.56,206.07L176.91,271.68L177.58,268.93L178.26,286.58L178.93,270.57L180.28,162.77L180.96,262.78L181.63,236.08L182.31,293.1L184.34,206.8L185.01,199.09L185.69,229.44L186.36,209L187.71,147.61L188.39,180.34L189.74,127.37L190.41,166.42L191.09,144.22L191.76,147.96L192.44,304.71L193.11,254.56L193.79,145.4L194.46,151.98L195.14,185.22L196.49,159.51L197.16,176.67L198.52,210.53L199.19,210.04L199.87,249.83L200.54,264.28L201.22,259.01L202.57,194.64L203.24,224.12L203.92,125.34L204.59,153.72L205.94,163.97L206.62,93.39L207.97,181L208.64,147.38L209.32,229.23L209.99,224.86L210.67,230.53L212.02,322.13L212.69,164.5L214.05,268.51L214.72,271.64L215.4,319.56L216.07,310.25L216.75,306.14L217.42,252.68L218.1,267.85L218.77,253.4L219.45,242.59L220.12,274.14L220.8,285.8L221.47,263.81L223.5,301.68L224.17,273.78L225.52,246.15L226.2,275.48L226.87,186.36L227.55,254.26L228.9,226.87L229.58,242.34L230.25,262.46L230.93,252.73L232.28,185.99L232.95,251.9L234.3,322.26L234.98,273.65L235.65,273.14L236.33,265.76L237,251.49L237.68,285.26L239.03,247.6L239.7,167.69L240.38,238.87L241.05,212.03L241.73,192.97L242.4,273.86L243.08,292.26L243.76,190.44L244.43,165.82L245.11,208.09L246.46,153.34L247.13,166.21L248.48,229.72L249.16,150.01L250.51,243.16L251.18,246.3L251.86,242.94L252.53,294.15L253.21,279.86L253.88,312.27L255.91,213.22L256.58,202.66L257.26,207.13L257.93,240.81L258.61,219.44L259.29,294.19L259.96,297.23L260.64,239.22L261.31,199.09L261.99,258.44L263.34,302.08L264.01,277.46L264.69,301.04L265.36,291.75L266.04,308.17L266.71,287.27L267.39,286.99L268.06,277.37L268.74,286.65L269.41,281.4L270.76,238.75L271.44,266.23L272.11,240.51L272.79,243.64L274.14,228.88L274.82,204.11L275.49,204.46L276.17,240.28L276.84,261.78L277.52,241.82L278.19,250.49L278.87,224.53L279.54,209.33L280.22,258.05L282.24,229.73L282.92,220.34L284.27,264.46L284.94,266.52L285.62,266.36L286.29,242.3L286.97,191.87L287.64,240.48L289.67,293.73L290.35,302.22L291.02,296.89L291.7,256.82L292.37,260.49L293.05,246.25L294.4,269.23L295.07,316.2L295.75,271.52L296.42,282.44L297.1,307.87L297.77,297.34L298.45,321.47L299.12,320.24L299.8,290.02L300.47,334.32L301.15,313.79L302.5,305.26L303.17,270.74L305.2,315.66L305.88,295.13L306.55,286.58L307.23,312.52L307.9,317.12L308.58,307.52L309.25,301.02L309.93,312.78L310.6,301.26L311.28,336.15L312.63,310.06L313.3,327.83L313.98,328.27L314.65,334.29L315.33,311.59L316,314.62L316.68,326.25L317.35,312.31L318.7,313.6L319.38,298.66L320.06,322.05L320.73,321.97L321.41,329.82L322.76,297.62L323.43,317.12L324.11,348.66L324.78,346.14L325.46,340.2L326.13,340.29L326.81,327.72L327.48,325.18L328.16,290.59L328.83,286.97L329.51,268.3L330.18,304.71L330.86,304.3L331.53,323.62L332.21,300.99L332.88,320.54L333.56,319.66L334.23,295.83L335.59,371.76L336.26,293.88L337.61,356.9L338.29,364.83L339.64,299.53L340.31,351.31L341.66,310.1L342.34,326.71L343.01,327.16L343.69,332.38L344.36,310.88L345.04,320.06L346.39,309.3L347.06,291.13L347.74,315.69L348.41,313.46L349.09,314.23L351.79,388.18L352.47,352.71L353.14,325.8L353.82,361.01L354.49,351.98L355.17,315.88L355.84,289.86L356.52,315.36L357.19,99.84L357.87,191.59L358.54,180.94L359.22,184.63L359.89,29.79L360.57,159.08L361.92,258.41L362.59,288.13L363.27,268.15L363.94,282.09L364.62,288.63L365.3,278.58L365.97,309.16L366.65,308.2L367.32,301.88L368,259.41L368.67,279.58L369.35,317.52L370.02,262.28L370.7,218.3L371.37,257.88L372.05,278.45L372.72,240.79L373.4,242.69L374.07,253.98L375.42,305.56L376.1,292.24L376.77,299.52L377.45,287.93L378.12,308.51L378.8,251.17L379.47,249.91L380.15,226.41L381.5,289.84L382.18,273.22L382.85,40.34L383.53,279.87L384.88,321.37L385.55,314.36L386.23,328.18L386.9,321.56L387.58,315.94L388.25,286.92L388.93,288.91L389.6,320.54L390.28,342.06L390.95,331.07L391.63,339.18L392.3,332.08L392.98,330.98L393.65,356.69L395.68,323.25L396.36,333.63L397.03,337.11L397.71,327.1L398.38,329.23L399.06,292.71L399.73,298.07L400.41,345.84L401.76,294.05L402.43,315.08L403.11,296.45L403.78,333.92L404.46,348.32L405.13,337.93L405.81,337.96L406.48,343.65L407.16,329.15L407.83,350.99L408.51,355.19L409.18,351.83L409.86,340.58L410.54,349.24L411.21,344.64L411.89,347.54L412.56,340.25L413.24,361.35L413.91,334.54L414.59,340.43L415.94,368.42L416.61,363.2L417.29,350.03L417.96,319.4L418.64,320.7L419.31,316.23L419.99,320.34L420.66,336.07L421.34,340.31L422.01,350.73L423.36,369.87L424.04,365.15L424.71,386.17L425.39,385.41L426.07,384.97L426.74,365.64L427.42,370.61L428.09,378.16L428.77,394.56L429.44,392.59L430.12,400.52L430.79,398.57L431.47,384.53L432.14,324.4L432.82,340.49L433.49,364.23L434.17,336.13L435.52,370.58L436.19,353.81L437.54,366.11L438.22,366.05L439.57,379.6L440.24,379.2L440.92,334.11L441.6,342.05L442.27,352.94L442.95,379.96L443.62,354.85L444.3,370.26L444.97,332.49L445.65,377.63L446.32,390.8L447,385.07L447.67,387.36L448.35,382.31L449.02,386.29L449.7,395.59L450.37,385.33L451.05,387.8L451.72,386.11L452.4,359.73L453.75,397.69L454.42,388.39L455.77,375.44L456.45,381.65L457.13,377.85L457.8,341.79L458.48,386.55L459.15,381.26L459.83,384.65L460.5,376.59L461.18,369.47L461.85,379.69L463.2,390.31L463.88,372.31L464.55,394.16L465.23,384.93L465.9,356.03L466.58,373.83L467.25,395.14L467.93,380.68L468.6,375.94L469.28,397.06L471.31,373.95L471.98,381.41L472.66,387.44L473.33,386L474.01,375.13L474.68,384.68L475.36,380.14L476.03,397.61L476.71,404.5L477.38,394.48L478.06,402.59L478.73,399.48L479.41,380.26L480.08,390.64L480.76,377.82L481.43,393.85L482.11,398.94L482.78,394.08L483.46,396.02L484.13,383.1L484.81,384.62L485.48,371.8L486.16,356.49L486.84,386.4L487.51,377.41L488.19,396.4L488.86,392.48L489.54,403.53L490.89,390.8L491.56,334.25L492.24,389.78L492.91,357.65L493.59,396.15L494.26,395.88L494.94,391.01L495.61,380.35L496.29,400.76L496.96,407.97L497.64,386.59L498.31,389.54L498.99,396.39L500.34,407.18L501.01,405.39L501.69,406L502.37,401.11L503.04,405.65L503.72,403.77L504.39,398.22L505.07,400.26L505.74,389.06L506.42,411.47L507.09,417.01L507.77,407.88L508.44,406.8L509.12,416.87L509.79,410.05L510.47,420.97L511.14,423.78L511.82,420.23L512.49,420.2L513.17,403.34L514.52,389.06L515.19,414.17L515.87,433.68L516.54,407.28L517.22,430.43L517.9,424.71L518.57,433.24L519.25,433.12L519.92,437.53L520.6,436.35L521.27,421.75L522.62,423.58L523.3,422.45L524.65,340.01L525.32,417.36L526,364.4L526.67,427.13L527.35,411.25L528.02,419.4L528.7,428.91L529.37,427.61L530.05,432.51L530.72,420.94L531.4,431.33L532.08,429.22L532.75,426.68L533.43,421.09L534.1,420.87L534.78,432.17L535.45,428.6L536.13,420.49L536.8,424.57L537.48,422.51L538.15,414.36L538.83,422.65L539.5,430.94L540.18,429.14L541.53,416.64L542.2,418.09L543.55,428.88L544.23,415.7L545.58,419.46L546.25,426.39L546.93,355.98L547.61,414.01L548.28,418.2L548.96,408.11L549.63,419.22L550.31,413.45L551.66,425.25L552.33,409.24L553.01,422.34L553.68,410.57L554.36,394.73L555.03,414.36L556.38,413.09L557.06,407.11L557.73,423.47L558.41,411.18L559.08,412.39L559.76,399.83L561.11,416.02L561.78,401.23L563.81,420.29L564.49,412.58L565.16,410.5L565.84,392.47L566.51,421L567.19,412.27L567.86,410.07L568.54,415.67L569.89,402.84L570.56,415.63L571.91,413.17L572.59,423.04L573.26,425.26L573.94,432.81L574.61,415.04L575.29,430.14L577.31,420.65L577.99,392.77L578.67,408.72L579.34,406.35L580.69,423.26L581.37,422.03L582.72,407.15L583.39,421.87L584.74,424.78L585.42,423.27L586.77,435.31L587.44,418.8L588.12,422.58L588.79,402.32L589.47,419.35L590.14,411.48L590.82,404.33L591.49,425.42L592.85,435.69L593.52,426.19L594.2,426.99L594.87,423.21L595.55,423.08L596.22,392.28L596.9,357.15L597.57,379.66L598.92,296.74L599.6,356.57L600.27,334.27L600.95,348L602.3,401.04L602.97,383.04L603.65,358.16L604.32,397.24L605,402.34L605.67,396.02L606.35,368.99L607.02,402.49L607.7,415.27L608.38,381.86L609.05,378.32L609.73,381.48L610.4,406.09L611.08,392.94L611.75,416.79L612.43,413.79L613.1,434.37L613.78,432.86L614.45,433.74L615.8,421.55L616.48,397L617.83,425.02L618.5,407.94L620.53,214.97L621.2,265.69L621.88,249.79L622.55,336.81L623.23,376.5L623.91,249.98L624.58,264.74L625.26,306.75L625.93,364.53L626.61,357.84L627.28,385.46L627.96,365.36L629.98,408.25L630.66,380.59L631.33,377.48L632.01,365.14L633.36,347.62L634.03,362.56L636.06,400.11L636.73,394.47L637.41,384.5L638.08,385.45L638.76,393.33L639.44,388.57L640.11,392.62L641.46,381.96L642.14,385.88L642.81,340.18L643.49,379.53L644.16,346.12L644.84,380.08L645.51,367.42L646.19,386.69L648.21,343.69L648.89,364.73L649.56,387.32L650.24,331.83L650.91,325.15L651.59,349.48L652.26,310.7L652.94,316.33L653.62,384.52L654.29,362.06L654.97,388.01L655.64,197.23L656.99,372.53L657.67,393.43L658.34,384.38L659.02,390.73L659.69,349.28L660.37,375.5L661.04,394.56L661.72,309.07L663.74,386.2L664.42,347.78L665.09,390.72L665.77,322.4L666.44,256.66L667.12,310.33L667.79,374.86L668.47,372.57L669.15,392.24L669.82,396.48L670.5,320.95L671.17,323.19L671.85,374.97L672.52,354.94L673.2,356.13L673.87,399.96L674.55,399.24L675.22,363.38L676.57,399.1L677.25,390.07L677.92,317.29L678.6,351.17L679.27,384.32L679.95,350.54L680.62,378.2L681.3,368.99L681.97,380.99L682.65,332.14L683.32,337.08L684,355.53" style="vector-effect: non-scaling-stroke; fill: none; stroke: rgb(248, 118, 109); stroke-opacity: 1; stroke-width: 2px; opacity: 1;"/></g><g class="points"/><g class="text"/></g><g class="trace scatter trace7d8436" style="stroke-miterlimit: 2;"><g class="fills"/><g class="errorbars"/><g class="lines"><path class="js-line" d="M0,460L0.68,458.35L1.35,460L2.7,459L3.38,458.42L4.05,460L4.73,459.42L5.4,459.61L6.08,455.01L6.75,452.7L7.43,456.15L8.1,460L8.78,459.58L9.45,460L10.13,460L10.8,458.54L11.48,456.11L12.15,459.27L12.83,456.93L13.5,459.29L14.85,460L15.53,460L20.93,459.69L21.61,458.25L22.96,460L23.63,460L24.31,460L24.98,458.84L25.66,457.86L26.33,459.55L27.01,458.54L27.68,459.23L28.36,458.75L29.03,455.73L29.71,452.65L30.38,460L31.06,459.26L31.74,456.53L32.41,460L33.09,459.53L34.44,460L35.11,458.47L36.46,457.66L37.14,459.6L38.49,457.86L39.16,459.81L40.51,459.44L41.19,458.48L43.89,459L44.56,457.87L45.24,455.61L45.92,457.59L46.59,459.44L47.27,458L47.94,453.38L48.62,458.21L49.29,456.98L49.97,459.36L50.64,456.23L51.32,459.65L54.02,458.28L54.69,454.82L55.37,455.11L56.04,458.91L58.74,459.68L59.42,459.3L60.09,459.37L60.77,458.44L61.45,459.09L62.12,449.17L63.47,458.9L64.15,451.05L64.82,328.14L65.5,398.63L66.85,457.8L67.52,424.94L68.87,458.29L69.55,458.55L70.22,456.22L70.9,459.44L71.57,458.29L72.25,455.34L73.6,459.55L74.27,459.9L74.95,457.59L75.62,459.26L76.98,459.38L77.65,459.88L79.68,459.21L80.35,459.64L81.03,459.92L81.7,458.41L83.73,459.83L84.4,459.76L85.75,459.8L86.43,458.64L87.1,457.24L87.78,457.91L88.45,459.37L89.13,458.89L90.48,459.22L91.15,459.24L92.51,459.88L93.18,458.89L93.86,457.56L94.53,458.01L95.88,458.98L96.56,458.28L97.23,457.79L97.91,458.43L99.26,457.09L99.93,458.84L100.61,458.43L101.28,459.8L101.96,457.25L102.63,458.36L103.31,458.53L103.98,455.08L105.33,457.62L106.01,457L106.69,458.49L107.36,457.85L108.71,459.8L109.39,456.57L110.06,459.72L110.74,459.14L114.79,457L115.46,454.72L116.81,458.05L117.49,452.75L118.16,455.07L118.84,453.59L119.51,454.59L120.19,454.14L120.86,453.3L121.54,454.19L122.22,453.41L122.89,451.45L123.57,452.3L124.24,454.36L125.59,452.04L126.27,451.29L126.94,453.05L127.62,452.1L130.32,443.67L130.99,435.94L131.67,426.94L132.34,431.31L133.02,409.44L133.69,418.43L134.37,400.21L135.04,360.12L135.72,378.45L136.39,371.94L137.07,371.06L137.75,382.82L138.42,383.04L139.1,408.06L139.77,401.79L140.45,380.62L141.8,390.94L142.47,391.74L145.17,372.15L145.85,374.68L146.52,382.2L147.2,351.05L147.87,361.32L148.55,383.5L149.9,399.42L150.57,376.01L151.92,273.28L152.6,313.82L154.63,351.71L155.3,338.43L155.98,314.88L156.65,333.13L158,358.89L158.68,314.79L160.03,342.34L160.7,322.27L161.38,354.91L162.05,348.83L163.4,341.24L164.08,323.99L164.75,301L165.43,229.22L166.1,229.74L166.78,252L167.46,280.46L168.13,178.16L169.48,269.47L170.16,267.55L172.18,235.11L172.86,256.37L173.53,207.3L174.21,216.69L174.88,193.8L175.56,205.59L176.91,269.6L177.58,268.19L178.26,285.92L178.93,269.87L180.28,161.78L180.96,261.12L181.63,233.83L182.31,292.41L184.34,205.15L185.01,197.99L185.69,226.44L186.36,206.38L187.71,141.49L188.39,179.63L189.74,124.78L190.41,165.38L191.09,143.12L191.76,146.75L192.44,303.38L193.11,254.21L193.79,144.95L194.46,151.29L195.14,184.01L196.49,157.58L197.16,176.2L199.19,208.91L199.87,247.36L200.54,262.13L201.22,255.66L202.57,192.91L203.24,220.33L203.92,122.48L204.59,151.74L205.27,153.3L205.94,159.5L206.62,23L207.29,146.04L207.97,177.25L208.64,142.92L209.32,221.54L209.99,217.08L210.67,214.47L212.02,317.89L212.69,126.06L214.05,265.29L214.72,226.96L215.4,314.33L216.07,305.21L216.75,302.4L217.42,251.2L218.1,255.85L218.77,247.37L219.45,236.22L220.12,271.35L220.8,282.02L221.47,262.08L223.5,299.87L224.17,271.68L224.85,244.39L225.52,244.96L226.2,274.11L226.87,170.83L227.55,252.41L228.9,225.29L229.58,240.34L230.25,258.51L230.93,251.21L232.28,182.95L232.95,249.32L234.3,318.41L234.98,270.41L235.65,271.55L236.33,263.85L237,249.99L237.68,283.2L239.03,246.32L239.7,160.09L240.38,236.77L241.05,210.91L241.73,190.91L242.4,272.76L243.08,290.83L243.76,189.46L244.43,164.48L245.11,206.57L246.46,151.94L247.13,163.73L247.81,183.09L248.48,227.57L249.16,147.99L249.83,238.42L251.18,244.59L251.86,240.43L252.53,291.54L253.21,278.59L253.88,309.91L254.56,273.26L255.91,209.42L256.58,201.68L257.26,206L257.93,239.45L258.61,218.68L259.29,293.51L259.96,296.15L260.64,237.52L261.31,198.32L261.99,257.61L263.34,301L264.01,275.61L264.69,300.39L265.36,290.72L266.04,307.37L266.71,285.61L267.39,285.77L268.06,275.77L269.41,278.21L270.09,265.27L270.76,234.66L271.44,263.65L272.11,236.75L272.79,241.85L274.14,227.51L274.82,202.76L275.49,203.65L276.17,240.03L276.84,261.31L277.52,240.16L278.19,248.64L278.87,223.59L279.54,207.85L280.22,257.42L282.92,219.96L283.59,258.96L284.94,265.9L285.62,265.67L286.97,191.76L287.64,240.31L289.67,292.09L290.35,301.74L291.02,296.41L291.7,256.67L292.37,260.18L293.05,246.25L294.4,268.99L295.07,315.89L295.75,270.52L296.42,282.2L297.1,307.57L297.77,297.34L298.45,321.36L299.12,319.82L299.8,288.8L300.47,334.32L301.15,313.21L302.5,305.26L303.17,268.2L304.53,304.76L305.2,313.1L306.55,286.13L307.23,306.5L307.9,316.7L308.58,307.34L309.25,300.21L309.93,311.25L310.6,300.39L311.28,335.91L312.63,309.99L313.3,327.27L313.98,327.76L314.65,333.7L315.33,311.51L316,312.89L316.68,325.35L317.35,310.88L318.03,312.7L318.7,312.75L319.38,297.74L320.06,321.82L320.73,321.61L321.41,329.58L322.76,297.07L323.43,316.64L324.11,348.03L324.78,345.57L325.46,339.91L326.13,339.5L326.81,326.48L327.48,323.01L328.16,290L328.83,286.04L329.51,267.3L330.18,303.99L330.86,303.61L331.53,322.51L332.21,300.49L332.88,319.87L333.56,319.22L334.23,295.18L335.59,371.47L336.26,293L337.61,356.81L338.29,364.83L339.64,299.01L340.31,350.64L341.66,309.65L342.34,326.2L343.01,326.81L343.69,332.33L344.36,310.85L345.04,319.64L346.39,309.09L347.06,290.56L347.74,315.42L348.41,312.42L349.09,313.74L349.77,332.61L351.12,353.06L351.79,388.09L353.14,325.19L353.82,360.65L354.49,351.64L355.17,315.18L355.84,288.76L356.52,305.75L357.19,79.64L357.87,188.16L358.54,176.09L359.22,179.09L359.89,25.77L360.57,156.29L361.92,255.6L362.59,287.07L363.27,267.86L363.94,282.01L364.62,288.18L365.3,278.17L365.97,308.93L366.65,307.81L367.32,301.66L368,258.15L368.67,278.93L369.35,315.78L370.02,261.73L370.7,216.75L371.37,256.45L372.05,277.68L372.72,240L373.4,242.09L374.07,252.8L375.42,303.05L376.1,291.68L376.77,299.34L377.45,287.63L378.12,308.08L378.8,247.41L379.47,247.25L380.15,225.32L381.5,289.54L382.18,272.58L382.85,39.32L383.53,279.63L384.88,321.02L385.55,313.65L386.23,327.7L386.9,321.28L388.25,286.58L388.93,288.46L390.28,341.33L390.95,330.78L391.63,336.65L392.3,331.64L392.98,329.39L393.65,354.78L395.68,322.98L396.36,333.36L397.03,336.54L397.71,326.25L398.38,328.99L399.06,291.57L399.73,297.54L400.41,345.15L401.76,290.65L402.43,314.47L403.11,296.03L403.78,333.59L404.46,348.12L405.13,337.64L405.81,337.11L406.48,343.55L407.16,328.58L407.83,350.94L408.51,355.17L409.18,351.73L409.86,340.24L410.54,348.46L411.21,344.43L411.89,347.1L412.56,339.61L413.24,360.83L413.91,333.75L414.59,340.08L415.94,367.56L416.61,362.77L417.29,349.48L417.96,317.72L418.64,320.16L419.31,314.08L419.99,319.92L420.66,335.51L421.34,339.77L422.01,350.46L423.36,369.53L424.04,363.87L424.71,385.33L425.39,384.99L426.07,384.52L426.74,365.09L427.42,370.22L428.77,394.29L429.44,392.27L430.12,400.23L430.79,398.35L431.47,383.62L432.14,323.05L433.49,363.78L434.17,334.49L435.52,370.34L436.19,353.49L437.54,365.91L438.22,365L439.57,379.38L440.24,378.71L440.92,331.52L441.6,341.78L442.27,352.74L442.95,379.51L443.62,354.57L444.3,369.87L444.97,332.04L445.65,377.3L446.32,390.2L447,384.82L447.67,387.28L448.35,381.99L449.02,385.76L449.7,395.03L450.37,384.75L451.05,387.14L451.72,385.48L452.4,359.24L453.75,397.43L454.42,387.8L455.77,375.19L456.45,381.25L457.13,377.39L457.8,340.99L458.48,386.38L459.15,380.91L459.83,384.52L460.5,376.22L461.18,369.07L461.85,379.52L463.2,389.97L463.88,372.06L464.55,393.89L465.23,384.83L465.9,355.21L466.58,373.2L467.25,394.88L467.93,379.95L468.6,375.05L469.28,392.44L470.63,385.38L471.31,373.59L472.66,387.17L473.33,385.64L474.01,374.73L474.68,383.76L475.36,379.19L476.03,397.3L476.71,403.93L477.38,393.52L478.06,402.33L478.73,399.24L479.41,379.64L480.08,390.14L480.76,377.25L481.43,393.5L482.11,398.45L482.78,393.81L483.46,395.85L484.13,382.77L484.81,384.45L485.48,371.5L486.16,356.23L486.84,386.15L487.51,377L488.19,396.22L488.86,392.04L489.54,403.44L490.89,390.7L491.56,332.5L492.24,389.06L492.91,357.29L493.59,395.89L494.26,395.78L494.94,390.21L495.61,380.11L496.29,400.58L496.96,407.57L497.64,386.27L498.31,389.06L498.99,396.23L500.34,407.04L501.01,405.28L501.69,405.89L502.37,400.85L503.04,405.4L503.72,403.62L504.39,398.01L505.07,400.08L505.74,388.79L506.42,411.3L507.09,416.82L507.77,407.73L508.44,406.4L509.12,416.67L509.79,409.92L510.47,420.76L511.14,423.71L511.82,420.17L512.49,420.12L513.17,403.2L514.52,388.76L515.19,414.03L515.87,433.6L516.54,407.06L517.22,430.25L517.9,424.65L518.57,433.14L519.25,432.89L519.92,437.49L520.6,436.27L521.27,421.61L522.62,423.49L523.3,422.43L524.65,339.56L525.32,417.34L526,364.18L526.67,427.08L527.35,411.09L528.02,419.18L528.7,428.88L529.37,427.44L530.05,432.45L530.72,420.72L531.4,430.46L532.08,428.55L534.1,420.55L534.78,432.03L535.45,428.38L536.13,420.27L536.8,424.41L537.48,422.29L538.15,414.1L538.83,422.52L539.5,430.86L540.18,429.12L540.85,424.37L541.53,411.46L543.55,428.8L544.23,415.61L545.58,419L546.25,426.09L546.93,355.25L547.61,413.96L548.28,417.99L548.96,407.4L549.63,418.98L550.31,413.33L551.66,425.01L552.33,408.97L553.01,422.15L553.68,410.21L554.36,394.11L555.03,413.95L556.38,412.89L557.06,406.99L557.73,423.14L558.41,411.03L559.08,412.03L559.76,399.44L561.11,415.39L561.78,400.48L563.81,419.96L564.49,412.33L565.16,410.24L565.84,392.02L566.51,420.3L567.19,412.05L567.86,409.57L568.54,415.6L569.89,402.5L570.56,415.49L571.91,412.9L572.59,422.88L573.26,425.18L573.94,432.71L574.61,414.82L575.29,429.97L577.31,420.12L577.99,392.21L578.67,408.22L579.34,405.44L580.69,422.81L581.37,421.4L582.72,406.03L583.39,421.04L584.74,424.23L585.42,423.05L586.77,435.04L587.44,417.45L588.12,421.84L588.79,401.6L589.47,418.27L590.14,410.68L590.82,402.77L591.49,424.8L592.85,434.76L593.52,419.49L594.2,423.74L594.87,422.79L595.55,421.53L596.22,390.82L596.9,354.71L597.57,378.29L598.92,292.65L599.6,355.85L600.27,333.03L600.95,346.28L602.3,400.2L602.97,382.43L603.65,357.33L604.32,396.73L605,401.64L605.67,395.37L606.35,367.84L607.02,401.83L607.7,414.61L608.38,380.17L609.05,376.07L609.73,380.23L610.4,405.49L611.08,391.17L611.75,416.02L612.43,413.56L613.1,434.14L613.78,432.68L614.45,433.7L615.8,421.34L616.48,396.47L617.83,424.6L618.5,407.04L620.53,210.59L621.2,262.29L621.88,246.32L622.55,335.99L623.23,376.06L623.91,248.22L624.58,262.34L625.26,303.48L625.93,363.65L626.61,357.07L627.28,385.04L627.96,365.18L629.98,408.25L630.66,380.33L631.33,377.35L632.01,364.68L633.36,347.38L634.03,362.03L636.06,399.66L636.73,393.98L637.41,384.2L638.08,385.21L638.76,393.15L639.44,388.27L640.11,392.01L641.46,381.54L642.14,385.52L642.81,339.05L643.49,378.78L644.16,345.03L644.84,379.53L645.51,366.63L646.19,386.04L648.21,341.72L648.89,363.32L649.56,386.43L650.24,329.82L650.91,323.89L651.59,347.65L652.26,309.52L652.94,314.96L653.62,382.71L654.29,360.53L654.97,386.62L655.64,196.43L656.99,371.76L657.67,393.08L658.34,383.18L659.02,389.42L659.69,347.69L660.37,373.46L661.04,392.89L661.72,307.24L663.74,384.94L664.42,344.62L665.09,389.53L665.77,319.52L666.44,254.81L667.12,307.72L667.79,370.41L668.47,370.27L669.15,388.96L669.82,393.8L670.5,317.11L671.17,321.84L671.85,373.89L672.52,352.72L673.2,354.72L673.87,398.75L674.55,397.78L675.22,361.44L676.57,397.53L677.25,387.78L677.92,315.64L678.6,349.08L679.27,380.75L679.95,346.95L680.62,376.14L681.3,367.38L681.97,379.31L682.65,329.36L683.32,333.58L684,352.31" style="vector-effect: non-scaling-stroke; fill: none; stroke: rgb(163, 165, 0); stroke-opacity: 1; stroke-width: 2px; opacity: 1;"/></g><g class="points"/><g class="text"/></g></g></g><g class="overplot"/><path class="xlines-above crisp" d="" style="fill: none; stroke-width: 1px; stroke: rgb(0, 0, 0); stroke-opacity: 0;"/><path class="ylines-above crisp" d="" style="fill: none; stroke-width: 1px; stroke: rgb(0, 0, 0); stroke-opacity: 0;"/><g class="overlines-above"/><g class="xaxislayer-above"><path class="xtick ticks crisp" d="M0,521v5" transform="translate(96.88,0)" style="stroke: rgb(51, 51, 51); stroke-opacity: 1; stroke-width: 1px;"/><path class="xtick ticks crisp" d="M0,521v5" transform="translate(219.77,0)" style="stroke: rgb(51, 51, 51); stroke-opacity: 1; stroke-width: 1px;"/><path class="xtick ticks crisp" d="M0,521v5" transform="translate(344.01,0)" style="stroke: rgb(51, 51, 51); stroke-opacity: 1; stroke-width: 1px;"/><path class="xtick ticks crisp" d="M0,521v5" transform="translate(466.23,0)" style="stroke: rgb(51, 51, 51); stroke-opacity: 1; stroke-width: 1px;"/><path class="xtick ticks crisp" d="M0,521v5" transform="translate(590.47,0)" style="stroke: rgb(51, 51, 51); stroke-opacity: 1; stroke-width: 1px;"/><path class="xtick ticks crisp" d="M0,521v5" transform="translate(712.68,0)" style="stroke: rgb(51, 51, 51); stroke-opacity: 1; stroke-width: 1px;"/><g class="xtick"><text text-anchor="middle" x="0" y="540.4" transform="translate(96.88,0)" style="font-family: 'Open Sans', verdana, arial, sans-serif; font-size: 12px; fill: rgb(51, 51, 51); fill-opacity: 1; white-space: pre; opacity: 1;">Jan 2020</text></g><g class="xtick"><text text-anchor="middle" x="0" y="540.4" style="font-family: 'Open Sans', verdana, arial, sans-serif; font-size: 12px; fill: rgb(51, 51, 51); fill-opacity: 1; white-space: pre; opacity: 1;" transform="translate(219.77,0)">Jul 2020</text></g><g class="xtick"><text text-anchor="middle" x="0" y="540.4" style="font-family: 'Open Sans', verdana, arial, sans-serif; font-size: 12px; fill: rgb(51, 51, 51); fill-opacity: 1; white-space: pre; opacity: 1;" transform="translate(344.01,0)">Jan 2021</text></g><g class="xtick"><text text-anchor="middle" x="0" y="540.4" style="font-family: 'Open Sans', verdana, arial, sans-serif; font-size: 12px; fill: rgb(51, 51, 51); fill-opacity: 1; white-space: pre; opacity: 1;" transform="translate(466.23,0)">Jul 2021</text></g><g class="xtick"><text text-anchor="middle" x="0" y="540.4" style="font-family: 'Open Sans', verdana, arial, sans-serif; font-size: 12px; fill: rgb(51, 51, 51); fill-opacity: 1; white-space: pre; opacity: 1;" transform="translate(590.47,0)">Jan 2022</text></g><g class="xtick"><text text-anchor="middle" x="0" y="540.4" style="font-family: 'Open Sans', verdana, arial, sans-serif; font-size: 12px; fill: rgb(51, 51, 51); fill-opacity: 1; white-space: pre; opacity: 1;" transform="translate(712.68,0)">Jul 2022</text></g></g><g class="yaxislayer-above"><path class="ytick ticks crisp" d="M79,0h-5" transform="translate(0,520)" style="stroke: rgb(51, 51, 51); stroke-opacity: 1; stroke-width: 1px;"/><path class="ytick ticks crisp" d="M79,0h-5" transform="translate(0,460.18)" style="stroke: rgb(51, 51, 51); stroke-opacity: 1; stroke-width: 1px;"/><path class="ytick ticks crisp" d="M79,0h-5" transform="translate(0,400.37)" style="stroke: rgb(51, 51, 51); stroke-opacity: 1; stroke-width: 1px;"/><path class="ytick ticks crisp" d="M79,0h-5" transform="translate(0,340.55)" style="stroke: rgb(51, 51, 51); stroke-opacity: 1; stroke-width: 1px;"/><path class="ytick ticks crisp" d="M79,0h-5" transform="translate(0,280.74)" style="stroke: rgb(51, 51, 51); stroke-opacity: 1; stroke-width: 1px;"/><path class="ytick ticks crisp" d="M79,0h-5" transform="translate(0,220.92)" style="stroke: rgb(51, 51, 51); stroke-opacity: 1; stroke-width: 1px;"/><path class="ytick ticks crisp" d="M79,0h-5" transform="translate(0,161.11)" style="stroke: rgb(51, 51, 51); stroke-opacity: 1; stroke-width: 1px;"/><path class="ytick ticks crisp" d="M79,0h-5" transform="translate(0,101.28999999999999)" style="stroke: rgb(51, 51, 51); stroke-opacity: 1; stroke-width: 1px;"/><g class="ytick"><text text-anchor="end" x="71.6" y="4.199999999999999" transform="translate(0,520)" style="font-family: 'Open Sans', verdana, arial, sans-serif; font-size: 12px; fill: rgb(51, 51, 51); fill-opacity: 1; white-space: pre; opacity: 1;">0.0%</text></g><g class="ytick"><text text-anchor="end" x="71.6" y="4.199999999999999" style="font-family: 'Open Sans', verdana, arial, sans-serif; font-size: 12px; fill: rgb(51, 51, 51); fill-opacity: 1; white-space: pre; opacity: 1;" transform="translate(0,460.18)">0.5%</text></g><g class="ytick"><text text-anchor="end" x="71.6" y="4.199999999999999" style="font-family: 'Open Sans', verdana, arial, sans-serif; font-size: 12px; fill: rgb(51, 51, 51); fill-opacity: 1; white-space: pre; opacity: 1;" transform="translate(0,400.37)">1.0%</text></g><g class="ytick"><text text-anchor="end" x="71.6" y="4.199999999999999" style="font-family: 'Open Sans', verdana, arial, sans-serif; font-size: 12px; fill: rgb(51, 51, 51); fill-opacity: 1; white-space: pre; opacity: 1;" transform="translate(0,340.55)">1.5%</text></g><g class="ytick"><text text-anchor="end" x="71.6" y="4.199999999999999" style="font-family: 'Open Sans', verdana, arial, sans-serif; font-size: 12px; fill: rgb(51, 51, 51); fill-opacity: 1; white-space: pre; opacity: 1;" transform="translate(0,280.74)">2.0%</text></g><g class="ytick"><text text-anchor="end" x="71.6" y="4.199999999999999" style="font-family: 'Open Sans', verdana, arial, sans-serif; font-size: 12px; fill: rgb(51, 51, 51); fill-opacity: 1; white-space: pre; opacity: 1;" transform="translate(0,220.92)">2.5%</text></g><g class="ytick"><text text-anchor="end" x="71.6" y="4.199999999999999" style="font-family: 'Open Sans', verdana, arial, sans-serif; font-size: 12px; fill: rgb(51, 51, 51); fill-opacity: 1; white-space: pre; opacity: 1;" transform="translate(0,161.11)">3.0%</text></g><g class="ytick"><text text-anchor="end" x="71.6" y="4.199999999999999" style="font-family: 'Open Sans', verdana, arial, sans-serif; font-size: 12px; fill: rgb(51, 51, 51); fill-opacity: 1; white-space: pre; opacity: 1;" transform="translate(0,101.28999999999999)">3.5%</text></g></g><g class="overaxes-above"/></g></g><g class="polarlayer"/><g class="smithlayer"/><g class="ternarylayer"/><g class="geolayer"/><g class="funnelarealayer"/><g class="pielayer"/><g class="iciclelayer"/><g class="treemaplayer"/><g class="sunburstlayer"/><g class="glimages"/><defs id="topdefs-e7ee5e"><g class="clips"/><clipPath id="legende7ee5e"><rect width="210" height="67" x="0" y="0"/></clipPath></defs><g class="layer-above"><g class="imagelayer"/><g class="shapelayer"/></g><g class="infolayer"><g class="legend" pointer-events="all" transform="translate(777.6800000000001,60)"><rect class="bg" shape-rendering="crispEdges" style="stroke: rgb(68, 68, 68); stroke-opacity: 1; fill: rgb(255, 255, 255); fill-opacity: 1; stroke-width: 0px;" width="210" height="67" x="0" y="0"/><g class="scrollbox" transform="" clip-path="url(#legende7ee5e)"><text class="legendtitletext" text-anchor="start" x="2" y="18.2" style="font-family: 'Open Sans', verdana, arial, sans-serif; font-size: 14px; fill: rgb(51, 51, 51); fill-opacity: 1; white-space: pre;">type</text><g class="groups" transform=""><g class="traces" transform="translate(0,32.7)" style="opacity: 1;"><text class="legendtext" text-anchor="start" x="40" y="4.680000000000001" style="font-family: 'Open Sans', verdana, arial, sans-serif; font-size: 12px; fill: rgb(51, 51, 51); fill-opacity: 1; white-space: pre;">Successful MEV transaction</text><g class="layers"><g class="legendfill"><path class="js-fill" d="M5,-2h30v6h-30z" style="stroke-width: 0; fill: rgb(248, 118, 109); fill-opacity: 0.5;"/></g><g class="legendlines"><path class="js-line" d="M5,-2h30" style="fill: none; stroke: rgb(248, 118, 109); stroke-opacity: 1; stroke-width: 2px;"/></g><g class="legendsymbols"><g class="legendpoints"/></g></g><rect class="legendtoggle" x="0" y="-9.5" width="204.671875" height="19" style="fill: rgb(0, 0, 0); fill-opacity: 0;"/></g></g><g class="groups" transform=""><g class="traces" transform="translate(0,51.7)" style="opacity: 1;"><text class="legendtext" text-anchor="start" x="40" y="4.680000000000001" style="font-family: 'Open Sans', verdana, arial, sans-serif; font-size: 12px; fill: rgb(51, 51, 51); fill-opacity: 1; white-space: pre;">Failed MEV transaction</text><g class="layers"><g class="legendfill"><path class="js-fill" d="M5,-2h30v6h-30z" style="stroke-width: 0; fill: rgb(163, 165, 0); fill-opacity: 0.5;"/></g><g class="legendlines"><path class="js-line" d="M5,-2h30" style="fill: none; stroke: rgb(163, 165, 0); stroke-opacity: 1; stroke-width: 2px;"/></g><g class="legendsymbols"><g class="legendpoints"/></g></g><rect class="legendtoggle" x="0" y="-9.5" width="204.671875" height="19" style="fill: rgb(0, 0, 0); fill-opacity: 0;"/></g></g></g><rect class="scrollbar" rx="20" ry="3" width="0" height="0" style="fill: rgb(128, 139, 164); fill-opacity: 1;" x="0" y="0"/></g><g class="g-gtitle"><text class="gtitle" x="500" y="30" text-anchor="middle" dy="0em" style="font-family: 'Open Sans', verdana, arial, sans-serif; font-size: 17px; fill: rgb(51, 51, 51); opacity: 1; font-weight: normal; white-space: pre;">Percent of Total Block Gas used by MEV Transactions</text></g><g class="g-xtitle"><text class="xtitle" x="422" y="567.70625" text-anchor="middle" style="font-family: 'Open Sans', verdana, arial, sans-serif; font-size: 14px; fill: rgb(51, 51, 51); opacity: 1; font-weight: normal; white-space: pre;">time</text></g><g class="g-ytitle"><text class="ytitle" transform="rotate(-90,14.262500000000003,290)" x="14.262500000000003" y="290" text-anchor="middle" style="font-family: 'Open Sans', verdana, arial, sans-serif; font-size: 14px; fill: rgb(51, 51, 51); opacity: 1; font-weight: normal; white-space: pre;">value</text></g></g></svg>