<svg class="main-svg" xmlns="http://www.w3.org/2000/svg" xmlns:xlink="http://www.w3.org/1999/xlink" width="1000" height="600" style="" viewBox="0 0 1000 600"><rect x="0" y="0" width="1000" height="600" style="fill: rgb(255, 255, 255); fill-opacity: 1;"/><defs id="defs-0b6e7d"><g class="clips"><clipPath id="clip0b6e7dxyplot" class="plotclip"><rect width="699" height="460"/></clipPath><clipPath class="axesclip" id="clip0b6e7dx"><rect x="80" y="0" width="699" height="600"/></clipPath><clipPath class="axesclip" id="clip0b6e7dy"><rect x="0" y="60" width="1000" height="460"/></clipPath><clipPath class="axesclip" id="clip0b6e7dxy"><rect x="80" y="60" width="699" height="460"/></clipPath></g><g class="gradients"/><g class="patterns"/></defs><g class="bglayer"><rect class="bg" x="80" y="60" width="699" height="460" style="fill: rgb(237, 237, 237); fill-opacity: 1; stroke-width: 0;"/></g><g class="layer-below"><g class="imagelayer"/><g class="shapelayer"/></g><g class="cartesianlayer"><g class="subplot xy"><g class="layer-subplot"><g class="shapelayer"/><g class="imagelayer"/></g><g class="gridlayer"><g class="x"><path class="xgrid crisp" transform="translate(97.25,0)" d="M0,60v460" style="stroke: rgb(255, 255, 255); stroke-opacity: 1; stroke-width: 1px;"/><path class="xgrid crisp" transform="translate(222.84,0)" d="M0,60v460" style="stroke: rgb(255, 255, 255); stroke-opacity: 1; stroke-width: 1px;"/><path class="xgrid crisp" transform="translate(349.8,0)" d="M0,60v460" style="stroke: rgb(255, 255, 255); stroke-opacity: 1; stroke-width: 1px;"/><path class="xgrid crisp" transform="translate(474.7,0)" d="M0,60v460" style="stroke: rgb(255, 255, 255); stroke-opacity: 1; stroke-width: 1px;"/><path class="xgrid crisp" transform="translate(601.66,0)" d="M0,60v460" style="stroke: rgb(255, 255, 255); stroke-opacity: 1; stroke-width: 1px;"/><path class="xgrid crisp" transform="translate(726.56,0)" d="M0,60v460" style="stroke: rgb(255, 255, 255); stroke-opacity: 1; stroke-width: 1px;"/></g><g class="y"><path class="ygrid crisp" transform="translate(0,460.18)" d="M80,0h699" style="stroke: rgb(255, 255, 255); stroke-opacity: 1; stroke-width: 1px;"/><path class="ygrid crisp" transform="translate(0,400.37)" d="M80,0h699" style="stroke: rgb(255, 255, 255); stroke-opacity: 1; stroke-width: 1px;"/><path class="ygrid crisp" transform="translate(0,340.55)" d="M80,0h699" style="stroke: rgb(255, 255, 255); stroke-opacity: 1; stroke-width: 1px;"/><path class="ygrid crisp" transform="translate(0,280.74)" d="M80,0h699" style="stroke: rgb(255, 255, 255); stroke-opacity: 1; stroke-width: 1px;"/><path class="ygrid crisp" transform="translate(0,220.92)" d="M80,0h699" style="stroke: rgb(255, 255, 255); stroke-opacity: 1; stroke-width: 1px;"/><path class="ygrid crisp" transform="translate(0,161.11)" d="M80,0h699" style="stroke: rgb(255, 255, 255); stroke-opacity: 1; stroke-width: 1px;"/><path class="ygrid crisp" transform="translate(0,101.28999999999999)" d="M80,0h699" style="stroke: rgb(255, 255, 255); stroke-opacity: 1; stroke-width: 1px;"/></g></g><g class="zerolinelayer"><path class="yzl zl crisp" transform="translate(0,520)" d="M80,0h699" style="stroke: rgb(255, 255, 255); stroke-opacity: 1; stroke-width: 1px;"/></g><path class="xlines-below"/><path class="ylines-below"/><g class="overlines-below"/><g class="xaxislayer-below"/><g class="yaxislayer-below"/><g class="overaxes-below"/><g class="plot" transform="translate(80,60)" clip-path="url(#clip0b6e7dxyplot)"><g class="scatterlayer mlayer"><g class="trace scatter tracea8c366" style="stroke-miterlimit: 2;"><g class="fills"><g><path class="js-fill" d="M699,460L0,460L0,460L0.69,458.35L1.38,460L3.45,458.97L4.14,460L5.52,459.61L6.21,455.32L6.9,452.7L7.59,456.15L8.28,460L8.97,459.58L10.35,460L11.04,458.54L11.73,457.4L12.42,459.27L13.11,457.38L13.8,459.29L15.18,460L15.87,460L21.39,459.69L22.08,458.77L24.15,460L24.84,460L26.22,458.69L26.91,459.55L27.6,458.54L28.29,459.23L28.98,458.75L29.67,456.74L30.36,457.14L31.05,460L32.43,458.34L33.12,460L33.81,459.53L34.5,460L35.88,459.63L36.57,459.08L37.26,458.01L37.95,459.6L39.33,458.87L40.02,459.81L41.4,459.44L42.09,458.48L44.16,459.68L44.85,459L45.54,458.51L46.23,456.06L47.61,459.44L48.3,458L48.99,453.38L49.68,458.21L50.37,456.98L51.06,459.36L51.75,457.86L52.44,459.65L55.2,458.28L55.89,454.82L56.58,455.5L57.27,458.91L60.03,459.68L60.72,459.55L62.1,458.44L62.79,459.09L63.48,450.48L64.17,454.34L64.86,458.9L65.55,451.44L66.24,342.54L66.93,399.98L68.31,457.8L69,426.52L70.38,458.57L71.07,458.63L71.76,456.29L72.45,459.44L73.83,456.14L74.52,458.35L75.9,459.9L76.59,458.87L79.35,459.88L80.04,459.76L81.42,459.21L82.11,459.64L82.8,459.92L83.49,458.41L85.56,459.83L86.25,459.76L88.32,459.71L89.01,457.91L89.7,458.16L90.39,459.37L91.08,458.89L91.77,459.39L93.15,459.24L93.84,459.75L94.53,459.88L95.22,458.89L96.6,458.01L97.29,459.19L97.98,459.4L98.67,458.28L99.36,457.79L100.05,458.61L101.43,457.14L102.12,458.84L102.81,458.43L103.5,459.8L104.88,458.36L105.57,458.9L106.26,455.14L106.95,457.45L107.64,457.68L108.33,457L109.02,458.57L109.71,457.97L111.09,459.8L111.78,459.18L113.16,459.39L113.85,458.86L115.23,458.44L115.92,458.36L117.31,457L118,454.72L119.38,458.05L120.07,452.84L120.76,455.07L121.45,453.66L122.14,454.59L122.83,454.14L123.52,453.3L124.21,454.19L124.9,453.41L125.59,451.45L126.97,454.36L127.66,452.79L129.04,451.55L129.73,453.14L131.11,450.79L131.8,447.75L132.49,448.26L133.18,444.23L134.56,427.11L135.25,431.68L135.94,410.79L136.63,419.4L137.32,400.86L138.01,361.4L138.7,379.28L139.39,372.3L140.08,372L140.77,383.36L141.46,383.04L142.15,408.53L142.84,403.08L143.53,380.69L144.91,391.12L145.6,393.31L148.36,372.15L149.05,375.05L149.74,383.85L150.43,353.08L151.12,362.77L151.81,384.25L153.19,399.9L153.88,377.55L155.26,277.73L155.95,315.73L158.02,356.3L158.71,343.52L159.4,321.15L160.09,336.23L161.47,361.78L162.16,315.71L162.85,343.15L163.54,343.07L164.23,322.95L164.92,355.96L165.61,350.59L166.99,343.04L167.68,325.21L168.37,301.91L169.06,230.75L169.75,238.32L170.44,254.33L171.13,281.31L171.82,180.65L173.2,271.86L173.89,268.13L175.96,235.89L176.65,257.06L177.34,208.3L178.03,217.91L178.72,194.82L179.41,206.07L180.79,271.68L181.48,268.93L182.17,286.58L182.86,270.57L184.24,162.77L184.93,262.78L185.62,236.08L186.31,293.1L188.38,206.8L189.07,199.09L189.76,229.44L190.45,209L191.83,147.61L192.52,180.34L193.9,127.37L194.59,166.42L195.28,144.22L195.97,147.96L196.66,304.71L197.35,254.56L198.04,145.4L198.73,151.98L199.42,185.22L200.8,159.51L201.49,176.67L202.87,210.53L203.56,210.04L204.25,249.83L204.94,264.28L205.63,259.01L207.01,194.64L207.7,224.12L208.39,125.34L209.08,153.72L210.46,163.97L211.15,93.39L212.53,181L213.22,147.38L213.91,229.23L214.6,224.86L215.29,230.53L216.67,322.13L217.36,164.5L218.74,268.51L219.43,271.64L220.12,319.56L220.81,310.25L221.5,306.14L222.19,252.68L222.88,267.85L223.57,253.4L224.26,242.59L224.95,274.14L225.64,285.8L226.33,263.81L227.71,276.61L228.4,301.68L230.47,246.15L231.16,275.48L231.85,186.36L232.54,254.26L233.92,226.87L234.61,242.34L235.3,262.46L235.99,252.73L237.37,185.99L238.06,251.9L239.44,322.26L240.13,273.65L240.82,273.14L241.51,265.76L242.2,251.49L242.89,285.26L244.27,247.6L244.96,167.69L245.65,238.87L246.34,212.03L247.03,192.97L247.72,273.86L248.41,292.26L249.1,190.44L249.79,165.82L250.48,208.09L251.86,153.34L252.55,166.21L253.93,229.72L254.62,150.01L256,243.16L256.69,246.3L257.38,242.94L258.07,294.15L258.76,279.86L259.45,312.27L261.52,213.22L262.21,202.66L262.9,207.13L263.59,240.81L264.28,219.44L264.97,294.19L265.66,297.23L266.35,239.22L267.04,199.09L267.73,258.44L269.11,302.08L269.8,277.46L270.49,301.04L271.18,291.75L271.87,308.17L272.56,287.27L273.25,286.99L273.94,277.37L274.63,286.65L275.32,281.4L276.7,238.75L277.39,266.23L278.08,240.51L278.77,243.64L280.15,228.88L280.84,204.11L281.53,204.46L282.22,240.28L282.91,261.78L283.6,241.82L284.29,250.49L284.98,224.53L285.67,209.33L286.36,258.05L288.43,229.73L289.12,220.34L290.5,264.46L291.19,266.52L291.88,266.36L292.57,242.3L293.26,191.87L293.95,240.48L296.02,293.73L296.71,302.22L297.4,296.89L298.09,256.82L298.78,260.49L299.47,246.25L300.85,269.23L301.54,316.2L302.23,271.52L302.92,282.44L303.61,307.87L304.3,297.34L304.99,321.47L305.68,320.24L306.37,290.02L307.06,334.32L307.75,313.79L309.13,305.26L309.82,270.74L311.89,315.66L312.58,295.13L313.27,286.58L313.96,312.52L314.65,317.12L315.34,307.52L316.03,301.02L316.72,312.78L317.41,301.26L318.1,336.15L319.48,310.06L320.17,327.83L320.86,328.27L321.55,334.29L322.24,311.59L322.93,314.62L323.62,326.25L324.31,312.31L325.69,313.6L326.38,298.66L327.07,322.05L327.76,321.97L328.45,329.82L329.83,297.62L330.52,317.12L331.21,348.66L331.9,346.14L332.59,340.2L333.28,340.29L333.97,327.72L334.66,325.18L335.35,290.59L336.04,286.97L336.73,268.3L337.42,304.71L338.11,304.3L338.8,323.62L339.49,300.99L340.18,320.54L340.87,319.66L341.56,295.83L342.94,371.76L343.63,293.88L345.01,356.9L345.7,364.83L347.08,299.53L347.77,351.31L349.15,310.1L349.85,326.71L350.54,327.16L351.23,332.38L351.92,310.88L352.61,320.06L353.99,309.3L354.68,291.13L355.37,315.69L356.06,313.46L356.75,314.23L357.44,333.29L358.82,353.48L359.51,388.18L360.89,325.8L361.58,361.01L362.27,351.98L362.96,315.88L363.65,289.86L364.34,315.36L365.03,99.84L365.72,191.59L366.41,180.94L367.1,184.63L367.79,29.79L368.48,159.08L369.86,258.41L370.55,288.13L371.24,268.15L371.93,282.09L372.62,288.63L373.31,278.58L374,309.16L374.69,308.2L375.38,301.88L376.07,259.41L376.76,279.58L377.45,317.52L378.14,262.28L378.83,218.3L379.52,257.88L380.21,278.45L380.9,240.79L381.59,242.69L382.28,253.98L383.66,305.56L384.35,292.24L385.04,299.52L385.73,287.93L386.42,308.51L387.11,251.17L387.8,249.91L388.49,226.41L389.87,289.84L390.56,273.22L391.25,40.34L391.94,279.87L393.32,321.37L394.01,314.36L394.7,328.18L395.39,321.56L396.08,315.94L396.77,286.92L397.46,288.91L398.15,320.54L398.84,342.06L399.53,331.07L400.22,339.18L400.91,332.08L401.6,330.98L402.29,356.69L404.36,323.25L405.05,333.63L405.74,337.11L406.43,327.1L407.12,329.23L407.81,292.71L408.5,298.07L409.19,345.84L410.57,294.05L411.26,315.08L411.95,296.45L412.64,333.92L413.33,348.32L414.02,337.93L414.71,337.96L415.4,343.65L416.09,329.15L416.78,350.99L417.47,355.19L418.16,351.83L418.85,340.58L419.54,349.24L420.23,344.64L420.92,347.54L421.61,340.25L422.3,361.35L422.99,334.54L423.68,340.43L425.06,368.42L425.75,363.2L426.44,350.03L427.13,319.4L427.82,320.7L428.51,316.23L429.2,320.34L429.89,336.07L430.58,340.31L431.27,350.73L432.65,369.87L433.34,365.15L434.03,386.17L434.72,385.41L435.41,384.97L436.1,365.64L436.79,370.61L437.48,378.16L438.17,394.56L438.86,392.59L439.55,400.52L440.24,398.57L440.93,384.53L441.62,324.4L442.31,340.49L443,364.23L443.69,336.13L445.07,370.58L445.76,353.81L447.14,366.11L447.83,366.05L449.21,379.6L449.9,379.2L450.59,334.11L451.28,342.05L451.97,352.94L452.66,379.96L453.35,354.85L454.04,370.26L454.73,332.49L455.42,377.63L456.11,390.8L456.8,385.07L457.49,387.36L458.18,382.31L458.87,386.29L459.56,395.59L460.25,385.33L460.94,387.8L461.63,386.11L462.32,359.73L463.7,397.69L464.39,388.39L465.77,375.44L466.46,381.65L467.15,377.85L467.84,341.79L468.53,386.55L469.22,381.26L469.91,384.65L470.6,376.59L471.29,369.47L471.98,379.69L473.36,390.31L474.05,372.31L474.74,394.16L475.43,384.93L476.12,356.03L476.81,373.83L477.5,395.14L478.19,380.68L478.88,375.94L479.57,397.06L481.64,373.95L482.33,381.41L483.02,387.44L483.71,386L484.4,375.13L485.09,384.68L485.78,380.14L486.47,397.61L487.16,404.5L487.85,394.48L488.54,402.59L489.23,399.48L489.92,380.26L490.61,390.64L491.3,377.82L491.99,393.85L492.68,398.94L493.37,394.08L494.06,396.02L494.75,383.1L495.44,384.62L496.13,371.8L496.82,356.49L497.51,386.4L498.2,377.41L498.89,396.4L499.58,392.48L500.27,403.53L501.65,390.8L502.34,334.25L503.03,389.78L503.72,357.65L504.41,396.15L505.1,395.88L505.79,391.01L506.48,380.35L507.17,400.76L507.86,407.97L508.55,386.59L509.24,389.54L509.93,396.39L511.31,407.18L512,405.39L512.69,406L513.38,401.11L514.07,405.65L514.76,403.77L515.45,398.22L516.14,400.26L516.83,389.06L517.52,411.47L518.21,417.01L518.9,407.88L519.59,406.8L520.28,416.87L520.97,410.05L521.66,420.97L522.35,423.78L523.04,420.23L523.73,420.2L524.42,403.34L525.8,389.06L526.49,414.17L527.18,433.68L527.87,407.28L528.56,430.43L529.25,424.71L529.94,433.24L530.63,433.12L531.32,437.53L532.01,436.35L532.7,421.75L534.08,423.58L534.77,422.45L536.15,340.01L536.84,417.36L537.53,364.4L538.22,427.13L538.91,411.25L539.6,419.4L540.29,428.91L540.98,427.61L541.67,432.51L542.36,420.94L543.05,431.33L543.74,429.22L544.43,426.68L545.12,421.09L545.81,420.87L546.5,432.17L547.19,428.6L547.88,420.49L548.57,424.57L549.26,422.51L549.95,414.36L550.64,422.65L551.33,430.94L552.02,429.14L553.4,416.64L554.09,418.09L555.47,428.88L556.16,415.7L557.54,419.46L558.23,426.39L558.92,355.98L559.61,414.01L560.3,418.2L560.99,408.11L561.68,419.22L562.37,413.45L563.75,425.25L564.44,409.24L565.13,422.34L565.82,410.57L566.51,394.73L567.2,414.36L568.58,413.09L569.27,407.11L569.96,423.47L570.65,411.18L571.34,412.39L572.03,399.83L573.41,416.02L574.1,401.23L576.17,420.29L576.86,412.58L577.55,410.5L578.24,392.47L578.93,421L579.62,412.27L580.31,410.07L581,415.67L582.38,402.84L583.08,415.63L584.46,413.17L585.15,423.04L585.84,425.26L586.53,432.81L587.22,415.04L587.91,430.14L589.98,420.65L590.67,392.77L591.36,408.72L592.05,406.35L593.43,423.26L594.12,422.03L595.5,407.15L596.19,421.87L597.57,424.78L598.26,423.27L599.64,435.31L600.33,418.8L601.02,422.58L601.71,402.32L602.4,419.35L603.09,411.48L603.78,404.33L604.47,425.42L605.85,435.69L606.54,426.19L607.23,426.99L607.92,423.21L608.61,423.08L609.3,392.28L609.99,357.15L610.68,379.66L612.06,296.74L612.75,356.57L613.44,334.27L614.13,348L615.51,401.04L616.2,383.04L616.89,358.16L617.58,397.24L618.27,402.34L618.96,396.02L619.65,368.99L620.34,402.49L621.03,415.27L621.72,381.86L622.41,378.32L623.1,381.48L623.79,406.09L624.48,392.94L625.17,416.79L625.86,413.79L626.55,434.37L627.24,432.86L627.93,433.74L629.31,421.55L630,397L631.38,425.02L632.07,407.94L634.14,214.97L634.83,265.69L635.52,249.79L636.21,336.81L636.9,376.5L637.59,249.98L638.28,264.74L638.97,306.75L639.66,364.53L640.35,357.84L641.04,385.46L641.73,365.36L643.8,408.25L644.49,380.59L645.18,377.48L645.87,365.14L647.25,347.62L647.94,362.56L650.01,400.11L650.7,394.47L651.39,384.5L652.08,385.45L652.77,393.33L653.46,388.57L654.15,392.62L654.84,384.34L655.53,381.96L656.22,385.88L656.91,340.18L657.6,379.53L658.29,346.12L658.98,380.08L659.67,367.42L660.36,386.69L662.43,343.69L663.12,364.73L663.81,387.32L664.5,331.83L665.19,325.15L665.88,349.48L666.57,310.7L667.26,316.33L667.95,384.52L668.64,362.06L669.33,388.01L670.02,197.23L671.4,372.53L672.09,393.43L672.78,384.38L673.47,390.73L674.16,349.28L674.85,375.5L675.54,394.56L676.23,309.07L678.3,386.2L678.99,347.78L679.68,390.72L680.37,322.4L681.06,256.66L681.75,310.33L682.44,374.86L683.13,372.57L683.82,392.24L684.51,396.48L685.2,320.95L685.89,323.19L686.58,374.97L687.27,354.94L687.96,356.13L688.65,399.96L689.34,399.24L690.03,363.38L691.41,399.1L692.1,390.07L692.79,317.29L693.48,351.17L694.17,384.32L694.86,350.54L695.55,378.2L696.24,368.99L696.93,380.99L697.62,332.14L698.31,337.08L699,355.53" style="fill: rgb(248, 118, 109); fill-opacity: 0.5; stroke-width: 0;"/></g><g><path class="js-fill" d="M0,460L0.69,458.35L1.38,460L2.76,459L3.45,458.42L4.14,460L4.83,459.42L5.52,459.61L6.21,455.01L6.9,452.7L7.59,456.15L8.28,460L8.97,459.58L10.35,460L11.04,458.54L11.73,456.11L12.42,459.27L13.11,456.93L13.8,459.29L15.18,460L15.87,460L21.39,459.69L22.08,458.25L23.46,460L24.15,460L24.84,460L25.53,458.84L26.22,457.86L26.91,459.55L27.6,458.54L28.29,459.23L28.98,458.75L29.67,455.73L30.36,452.65L31.05,460L31.74,459.26L32.43,456.53L33.12,460L33.81,459.53L35.19,460L35.88,458.47L37.26,457.66L37.95,459.6L39.33,457.86L40.02,459.81L41.4,459.44L42.09,458.48L44.85,459L45.54,457.87L46.23,455.61L46.92,457.59L47.61,459.44L48.3,458L48.99,453.38L49.68,458.21L50.37,456.98L51.06,459.36L51.75,456.23L52.44,459.65L55.2,458.28L55.89,454.82L56.58,455.11L57.27,458.91L60.03,459.68L60.72,459.3L61.41,459.37L62.1,458.44L62.79,459.09L63.48,449.17L64.86,458.9L65.55,451.05L66.24,328.14L66.93,398.63L68.31,457.8L69,424.94L70.38,458.29L71.07,458.55L71.76,456.22L72.45,459.44L73.14,458.29L73.83,455.34L75.21,459.55L75.9,459.9L76.59,457.59L77.28,459.26L78.66,459.38L79.35,459.88L81.42,459.21L82.11,459.64L82.8,459.92L83.49,458.41L85.56,459.83L86.25,459.76L87.63,459.8L88.32,458.64L89.01,457.24L89.7,457.91L90.39,459.37L91.08,458.89L92.46,459.22L93.15,459.24L94.53,459.88L95.22,458.89L95.91,457.56L96.6,458.01L97.98,458.98L98.67,458.28L99.36,457.79L100.05,458.43L101.43,457.09L102.12,458.84L102.81,458.43L103.5,459.8L104.19,457.25L104.88,458.36L105.57,458.53L106.26,455.08L107.64,457.62L108.33,457L109.02,458.49L109.71,457.85L111.09,459.8L111.78,456.57L112.47,459.72L113.16,459.14L117.31,457L118,454.72L119.38,458.05L120.07,452.75L120.76,455.07L121.45,453.59L122.14,454.59L122.83,454.14L123.52,453.3L124.21,454.19L124.9,453.41L125.59,451.45L126.28,452.3L126.97,454.36L128.35,452.04L129.04,451.29L129.73,453.05L130.42,452.1L133.18,443.67L133.87,435.94L134.56,426.94L135.25,431.31L135.94,409.44L136.63,418.43L137.32,400.21L138.01,360.12L138.7,378.45L139.39,371.94L140.08,371.06L140.77,382.82L141.46,383.04L142.15,408.06L142.84,401.79L143.53,380.62L144.91,390.94L145.6,391.74L148.36,372.15L149.05,374.68L149.74,382.2L150.43,351.05L151.12,361.32L151.81,383.5L153.19,399.42L153.88,376.01L155.26,273.28L155.95,313.82L158.02,351.71L158.71,338.43L159.4,314.88L160.09,333.13L161.47,358.89L162.16,314.79L163.54,342.34L164.23,322.27L164.92,354.91L165.61,348.83L166.99,341.24L167.68,323.99L168.37,301L169.06,229.22L169.75,229.74L170.44,252L171.13,280.46L171.82,178.16L173.2,269.47L173.89,267.55L175.96,235.11L176.65,256.37L177.34,207.3L178.03,216.69L178.72,193.8L179.41,205.59L180.79,269.6L181.48,268.19L182.17,285.92L182.86,269.87L184.24,161.78L184.93,261.12L185.62,233.83L186.31,292.41L188.38,205.15L189.07,197.99L189.76,226.44L190.45,206.38L191.83,141.49L192.52,179.63L193.9,124.78L194.59,165.38L195.28,143.12L195.97,146.75L196.66,303.38L197.35,254.21L198.04,144.95L198.73,151.29L199.42,184.01L200.8,157.58L201.49,176.2L203.56,208.91L204.25,247.36L204.94,262.13L205.63,255.66L207.01,192.91L207.7,220.33L208.39,122.48L209.08,151.74L209.77,153.3L210.46,159.5L211.15,23L211.84,146.04L212.53,177.25L213.22,142.92L213.91,221.54L214.6,217.08L215.29,214.47L216.67,317.89L217.36,126.06L218.74,265.29L219.43,226.96L220.12,314.33L220.81,305.21L221.5,302.4L222.19,251.2L222.88,255.85L223.57,247.37L224.26,236.22L224.95,271.35L225.64,282.02L226.33,262.08L228.4,299.87L229.09,271.68L229.78,244.39L230.47,244.96L231.16,274.11L231.85,170.83L232.54,252.41L233.92,225.29L234.61,240.34L235.3,258.51L235.99,251.21L237.37,182.95L238.06,249.32L239.44,318.41L240.13,270.41L240.82,271.55L241.51,263.85L242.2,249.99L242.89,283.2L244.27,246.32L244.96,160.09L245.65,236.77L246.34,210.91L247.03,190.91L247.72,272.76L248.41,290.83L249.1,189.46L249.79,164.48L250.48,206.57L251.86,151.94L252.55,163.73L253.24,183.09L253.93,227.57L254.62,147.99L255.31,238.42L256.69,244.59L257.38,240.43L258.07,291.54L258.76,278.59L259.45,309.91L260.14,273.26L261.52,209.42L262.21,201.68L262.9,206L263.59,239.45L264.28,218.68L264.97,293.51L265.66,296.15L266.35,237.52L267.04,198.32L267.73,257.61L269.11,301L269.8,275.61L270.49,300.39L271.18,290.72L271.87,307.37L272.56,285.61L273.25,285.77L273.94,275.77L275.32,278.21L276.01,265.27L276.7,234.66L277.39,263.65L278.08,236.75L278.77,241.85L280.15,227.51L280.84,202.76L281.53,203.65L282.22,240.03L282.91,261.31L283.6,240.16L284.29,248.64L284.98,223.59L285.67,207.85L286.36,257.42L289.12,219.96L289.81,258.96L291.19,265.9L291.88,265.67L292.57,241.92L293.26,191.76L294.64,263.42L295.33,279.94L296.71,301.74L297.4,296.41L298.09,256.67L298.78,260.18L299.47,246.25L300.16,260.99L300.85,268.99L301.54,315.89L302.23,270.52L302.92,282.2L303.61,307.57L304.3,297.34L304.99,321.36L305.68,319.82L306.37,288.8L307.06,334.32L307.75,313.21L309.13,305.26L309.82,268.2L311.2,304.76L311.89,313.1L313.27,286.13L313.96,306.5L314.65,316.7L315.34,307.34L316.03,300.21L316.72,311.25L317.41,300.39L318.1,335.91L319.48,309.99L320.17,327.27L320.86,327.76L321.55,333.7L322.24,311.51L322.93,312.89L323.62,325.35L324.31,310.88L325,312.7L325.69,312.75L326.38,297.74L327.07,321.82L327.76,321.61L328.45,329.58L329.83,297.07L330.52,316.64L331.21,348.03L331.9,345.57L332.59,339.91L333.28,339.5L333.97,326.48L334.66,323.01L335.35,290L336.04,286.04L336.73,267.3L337.42,303.99L338.11,303.61L338.8,322.51L339.49,300.49L340.18,319.87L340.87,319.22L341.56,295.18L342.94,371.47L343.63,293L345.01,356.81L345.7,364.83L347.08,299.01L347.77,350.64L349.15,309.65L349.85,326.2L350.54,326.81L351.23,332.33L351.92,310.85L352.61,319.64L353.99,309.09L354.68,290.56L355.37,315.42L356.06,312.42L356.75,313.74L357.44,332.61L358.82,353.06L359.51,388.09L360.89,325.19L361.58,360.65L362.27,351.64L362.96,315.18L363.65,288.76L364.34,305.75L365.03,79.64L365.72,188.16L366.41,176.09L367.1,179.09L367.79,25.77L368.48,156.29L369.86,255.6L370.55,287.07L371.24,267.86L371.93,282.01L372.62,288.18L373.31,278.17L374,308.93L374.69,307.81L375.38,301.66L376.07,258.15L376.76,278.93L377.45,315.78L378.14,261.73L378.83,216.75L379.52,256.45L380.21,277.68L380.9,240L381.59,242.09L382.28,252.8L383.66,303.05L384.35,291.68L385.04,299.34L385.73,287.63L386.42,308.08L387.11,247.41L387.8,247.25L388.49,225.32L389.87,289.54L390.56,272.58L391.25,39.32L391.94,279.63L393.32,321.02L394.01,313.65L394.7,327.7L395.39,321.28L396.77,286.58L397.46,288.46L398.84,341.33L399.53,330.78L400.22,336.65L400.91,331.64L401.6,329.39L402.29,354.78L404.36,322.98L405.05,333.36L405.74,336.54L406.43,326.25L407.12,328.99L407.81,291.57L408.5,297.54L409.19,345.15L410.57,290.65L411.26,314.47L411.95,296.03L412.64,333.59L413.33,348.12L414.02,337.64L414.71,337.11L415.4,343.55L416.09,328.58L416.78,350.94L417.47,355.17L418.16,351.73L418.85,340.24L419.54,348.46L420.23,344.43L420.92,347.1L421.61,339.61L422.3,360.83L422.99,333.75L423.68,340.08L425.06,367.56L425.75,362.77L426.44,349.48L427.13,317.72L427.82,320.16L428.51,314.08L429.2,319.92L429.89,335.51L430.58,339.77L431.27,350.46L432.65,369.53L433.34,363.87L434.03,385.33L434.72,384.99L435.41,384.52L436.1,365.09L436.79,370.22L437.48,377.9L438.17,394.29L438.86,392.27L439.55,400.23L440.24,398.35L440.93,383.62L441.62,323.05L442.31,340.13L443,363.78L443.69,334.49L445.07,370.34L445.76,353.49L447.14,365.91L447.83,365L449.21,379.38L449.9,378.71L450.59,331.52L451.28,341.78L451.97,352.74L452.66,379.51L453.35,354.57L454.04,369.87L454.73,332.04L455.42,377.3L456.11,390.2L456.8,384.82L457.49,387.28L458.18,381.99L458.87,385.76L459.56,395.03L460.25,384.75L460.94,387.14L461.63,385.48L462.32,359.24L463.7,397.43L464.39,387.8L465.77,375.19L466.46,381.25L467.15,377.39L467.84,340.99L468.53,386.38L469.22,380.91L469.91,384.52L470.6,376.22L471.29,369.07L471.98,379.52L473.36,389.97L474.05,372.06L474.74,393.89L475.43,384.83L476.12,355.21L476.81,373.2L477.5,394.88L478.19,379.95L478.88,375.05L479.57,392.44L480.95,385.38L481.64,373.59L483.02,387.17L483.71,385.64L484.4,374.73L485.09,383.76L485.78,379.19L486.47,397.3L487.16,403.93L487.85,393.52L488.54,402.33L489.23,399.24L489.92,379.64L490.61,390.14L491.3,377.25L491.99,393.5L492.68,398.45L493.37,393.81L494.06,395.85L494.75,382.77L495.44,384.45L496.13,371.5L496.82,356.23L497.51,386.15L498.2,377L498.89,396.22L499.58,392.04L500.27,403.44L501.65,390.7L502.34,332.5L503.03,389.06L503.72,357.29L504.41,395.89L505.1,395.78L505.79,390.21L506.48,380.11L507.17,400.58L507.86,407.57L508.55,386.27L509.24,389.06L509.93,396.23L511.31,407.04L512,405.28L512.69,405.89L513.38,400.85L514.07,405.4L514.76,403.62L515.45,398.01L516.14,400.08L516.83,388.79L517.52,411.3L518.21,416.82L518.9,407.73L519.59,406.4L520.28,416.67L520.97,409.92L521.66,420.76L522.35,423.71L523.04,420.17L523.73,420.12L524.42,403.2L525.8,388.76L526.49,414.03L527.18,433.6L527.87,407.06L528.56,430.25L529.25,424.65L529.94,433.14L530.63,432.89L531.32,437.49L532.01,436.27L532.7,421.61L534.08,423.49L534.77,422.43L536.15,339.56L536.84,417.34L537.53,364.18L538.22,427.08L538.91,411.09L539.6,419.18L540.29,428.88L540.98,427.44L541.67,432.45L542.36,420.72L543.05,430.46L543.74,428.55L545.81,420.55L546.5,432.03L547.19,428.38L547.88,420.27L548.57,424.41L549.26,422.29L549.95,414.1L550.64,422.52L551.33,430.86L552.02,429.12L552.71,424.37L553.4,411.46L555.47,428.8L556.16,415.61L557.54,419L558.23,426.09L558.92,355.25L559.61,413.96L560.3,417.99L560.99,407.4L561.68,418.98L562.37,413.33L563.75,425.01L564.44,408.97L565.13,422.15L565.82,410.21L566.51,394.11L567.2,413.95L568.58,412.89L569.27,406.99L569.96,423.14L570.65,411.03L571.34,412.03L572.03,399.44L573.41,415.39L574.1,400.48L576.17,419.96L576.86,412.33L577.55,410.24L578.24,392.02L578.93,420.3L579.62,412.05L580.31,409.57L581,415.6L582.38,402.5L583.08,415.49L584.46,412.9L585.15,422.88L585.84,425.18L586.53,432.71L587.22,414.82L587.91,429.97L589.98,420.12L590.67,392.21L591.36,408.22L592.05,405.44L593.43,422.81L594.12,421.4L595.5,406.03L596.19,421.04L597.57,424.23L598.26,423.05L599.64,435.04L600.33,417.45L601.02,421.84L601.71,401.6L602.4,418.27L603.09,410.68L603.78,402.77L604.47,424.8L605.85,434.76L606.54,419.49L607.23,423.74L607.92,422.79L608.61,421.53L609.3,390.82L609.99,354.71L610.68,378.29L612.06,292.65L612.75,355.85L613.44,333.03L614.13,346.28L615.51,400.2L616.2,382.43L616.89,357.33L617.58,396.73L618.27,401.64L618.96,395.37L619.65,367.84L620.34,401.83L621.03,414.61L621.72,380.17L622.41,376.07L623.1,380.23L623.79,405.49L624.48,391.17L625.17,416.02L625.86,413.56L626.55,434.14L627.24,432.68L627.93,433.7L629.31,421.34L630,396.47L631.38,424.6L632.07,407.04L634.14,210.59L634.83,262.29L635.52,246.32L636.21,335.99L636.9,376.06L637.59,248.22L638.28,262.34L638.97,303.48L639.66,363.65L640.35,357.07L641.04,385.04L641.73,365.18L643.8,408.25L644.49,380.33L645.18,377.35L645.87,364.68L647.25,347.38L647.94,362.03L650.01,399.66L650.7,393.98L651.39,384.2L652.08,385.21L652.77,393.15L653.46,388.27L654.15,392.01L654.84,382.88L655.53,381.54L656.22,385.52L656.91,339.05L657.6,378.78L658.29,345.03L658.98,379.53L659.67,366.63L660.36,386.04L662.43,341.72L663.12,363.32L663.81,386.43L664.5,329.82L665.19,323.89L665.88,347.65L666.57,309.52L667.26,314.96L667.95,382.71L668.64,360.53L669.33,386.62L670.02,196.43L671.4,371.76L672.09,393.08L672.78,383.18L673.47,389.42L674.16,347.69L674.85,373.46L675.54,392.89L676.23,307.24L678.3,384.94L678.99,344.62L679.68,389.53L680.37,319.52L681.06,254.81L681.75,307.72L682.44,370.41L683.13,370.27L683.82,388.96L684.51,393.8L685.2,317.11L685.89,321.84L686.58,373.89L687.27,352.72L687.96,354.72L688.65,398.75L689.34,397.78L690.03,361.44L691.41,397.53L692.1,387.78L692.79,315.64L693.48,349.08L694.17,380.75L694.86,346.95L695.55,376.14L696.24,367.38L696.93,379.31L697.62,329.36L698.31,333.58L699,352.31L699,355.53L698.31,337.08L697.62,332.14L696.93,380.99L696.24,368.99L695.55,378.2L694.86,350.54L694.17,384.32L693.48,351.17L692.79,317.29L692.1,390.07L691.41,399.1L690.03,363.38L689.34,399.24L688.65,399.96L687.96,356.13L687.27,354.94L686.58,374.97L685.89,323.19L685.2,320.95L684.51,396.48L683.82,392.24L683.13,372.57L682.44,374.86L681.75,310.33L681.06,256.66L680.37,322.4L679.68,390.72L678.99,347.78L678.3,386.2L676.23,309.07L675.54,394.56L674.85,375.5L674.16,349.28L673.47,390.73L672.78,384.38L672.09,393.43L671.4,372.53L670.02,197.23L669.33,388.01L668.64,362.06L667.95,384.52L667.26,316.33L666.57,310.7L665.88,349.48L665.19,325.15L664.5,331.83L663.81,387.32L663.12,364.73L662.43,343.69L660.36,386.69L659.67,367.42L658.98,380.08L658.29,346.12L657.6,379.53L656.91,340.18L656.22,385.88L655.53,381.96L654.84,384.34L654.15,392.62L653.46,388.57L652.77,393.33L652.08,385.45L651.39,384.5L650.7,394.47L650.01,400.11L647.94,362.56L647.25,347.62L645.87,365.14L645.18,377.48L644.49,380.59L643.8,408.25L641.73,365.36L641.04,385.46L640.35,357.84L639.66,364.53L638.97,306.75L638.28,264.74L637.59,249.98L636.9,376.5L636.21,336.81L635.52,249.79L634.83,265.69L634.14,214.97L632.07,407.94L631.38,425.02L630,397L629.31,421.55L627.93,433.74L627.24,432.86L626.55,434.37L625.86,413.79L625.17,416.79L624.48,392.94L623.79,406.09L623.1,381.48L622.41,378.32L621.72,381.86L621.03,415.27L620.34,402.49L619.65,368.99L618.96,396.02L618.27,402.34L617.58,397.24L616.89,358.16L616.2,383.04L615.51,401.04L614.13,348L613.44,334.27L612.75,356.57L612.06,296.74L610.68,379.66L609.99,357.15L609.3,392.28L608.61,423.08L607.92,423.21L607.23,426.99L606.54,426.19L605.85,435.69L604.47,425.42L603.78,404.33L603.09,411.48L602.4,419.35L601.71,402.32L601.02,422.58L600.33,418.8L599.64,435.31L598.26,423.27L597.57,424.78L596.19,421.87L595.5,407.15L594.12,422.03L593.43,423.26L592.05,406.35L591.36,408.72L590.67,392.77L589.98,420.65L587.91,430.14L587.22,415.04L586.53,432.81L585.84,425.26L585.15,423.04L584.46,413.17L583.08,415.63L582.38,402.84L581,415.67L580.31,410.07L579.62,412.27L578.93,421L578.24,392.47L577.55,410.5L576.86,412.58L576.17,420.29L574.1,401.23L573.41,416.02L572.03,399.83L571.34,412.39L570.65,411.18L569.96,423.47L569.27,407.11L568.58,413.09L567.2,414.36L566.51,394.73L565.82,410.57L565.13,422.34L564.44,409.24L563.75,425.25L562.37,413.45L561.68,419.22L560.99,408.11L560.3,418.2L559.61,414.01L558.92,355.98L558.23,426.39L557.54,419.46L556.16,415.7L555.47,428.88L554.09,418.09L553.4,416.64L552.02,429.14L551.33,430.94L550.64,422.65L549.95,414.36L549.26,422.51L548.57,424.57L547.88,420.49L547.19,428.6L546.5,432.17L545.81,420.87L545.12,421.09L544.43,426.68L543.74,429.22L543.05,431.33L542.36,420.94L541.67,432.51L540.98,427.61L540.29,428.91L539.6,419.4L538.91,411.25L538.22,427.13L537.53,364.4L536.84,417.36L536.15,340.01L534.77,422.45L534.08,423.58L532.7,421.75L532.01,436.35L531.32,437.53L530.63,433.12L529.94,433.24L529.25,424.71L528.56,430.43L527.87,407.28L527.18,433.68L526.49,414.17L525.8,389.06L524.42,403.34L523.73,420.2L523.04,420.23L522.35,423.78L521.66,420.97L520.97,410.05L520.28,416.87L519.59,406.8L518.9,407.88L518.21,417.01L517.52,411.47L516.83,389.06L516.14,400.26L515.45,398.22L514.76,403.77L514.07,405.65L513.38,401.11L512.69,406L512,405.39L511.31,407.18L509.93,396.39L509.24,389.54L508.55,386.59L507.86,407.97L507.17,400.76L506.48,380.35L505.79,391.01L505.1,395.88L504.41,396.15L503.72,357.65L503.03,389.78L502.34,334.25L501.65,390.8L500.27,403.53L499.58,392.48L498.89,396.4L498.2,377.41L497.51,386.4L496.82,356.49L496.13,371.8L495.44,384.62L494.75,383.1L494.06,396.02L493.37,394.08L492.68,398.94L491.99,393.85L491.3,377.82L490.61,390.64L489.92,380.26L489.23,399.48L488.54,402.59L487.85,394.48L487.16,404.5L486.47,397.61L485.78,380.14L485.09,384.68L484.4,375.13L483.71,386L483.02,387.44L482.33,381.41L481.64,373.95L479.57,397.06L478.88,375.94L478.19,380.68L477.5,395.14L476.81,373.83L476.12,356.03L475.43,384.93L474.74,394.16L474.05,372.31L473.36,390.31L471.98,379.69L471.29,369.47L470.6,376.59L469.91,384.65L469.22,381.26L468.53,386.55L467.84,341.79L467.15,377.85L466.46,381.65L465.77,375.44L464.39,388.39L463.7,397.69L462.32,359.73L461.63,386.11L460.94,387.8L460.25,385.33L459.56,395.59L458.87,386.29L458.18,382.31L457.49,387.36L456.8,385.07L456.11,390.8L455.42,377.63L454.73,332.49L454.04,370.26L453.35,354.85L452.66,379.96L451.97,352.94L451.28,342.05L450.59,334.11L449.9,379.2L449.21,379.6L447.83,366.05L447.14,366.11L445.76,353.81L445.07,370.58L443.69,336.13L443,364.23L442.31,340.49L441.62,324.4L440.93,384.53L440.24,398.57L439.55,400.52L438.86,392.59L438.17,394.56L437.48,378.16L436.79,370.61L436.1,365.64L435.41,384.97L434.72,385.41L434.03,386.17L433.34,365.15L432.65,369.87L431.27,350.73L430.58,340.31L429.89,336.07L429.2,320.34L428.51,316.23L427.82,320.7L427.13,319.4L426.44,350.03L425.75,363.2L425.06,368.42L423.68,340.43L422.99,334.54L422.3,361.35L421.61,340.25L420.92,347.54L420.23,344.64L419.54,349.24L418.85,340.58L418.16,351.83L417.47,355.19L416.78,350.99L416.09,329.15L415.4,343.65L414.71,337.96L414.02,337.93L413.33,348.32L412.64,333.92L411.95,296.45L411.26,315.08L410.57,294.05L409.19,345.84L408.5,298.07L407.81,292.71L407.12,329.23L406.43,327.1L405.74,337.11L405.05,333.63L404.36,323.25L402.29,356.69L401.6,330.98L400.91,332.08L400.22,339.18L399.53,331.07L398.84,342.06L398.15,320.54L397.46,288.91L396.77,286.92L396.08,315.94L395.39,321.56L394.7,328.18L394.01,314.36L393.32,321.37L391.94,279.87L391.25,40.34L390.56,273.22L389.87,289.84L388.49,226.41L387.8,249.91L387.11,251.17L386.42,308.51L385.73,287.93L385.04,299.52L384.35,292.24L383.66,305.56L382.28,253.98L381.59,242.69L380.9,240.79L380.21,278.45L379.52,257.88L378.83,218.3L378.14,262.28L377.45,317.52L376.76,279.58L376.07,259.41L375.38,301.88L374.69,308.2L374,309.16L373.31,278.58L372.62,288.63L371.93,282.09L371.24,268.15L370.55,288.13L369.86,258.41L368.48,159.08L367.79,29.79L367.1,184.63L366.41,180.94L365.72,191.59L365.03,99.84L364.34,315.36L363.65,289.86L362.96,315.88L362.27,351.98L361.58,361.01L360.89,325.8L359.51,388.18L358.82,353.48L357.44,333.29L356.75,314.23L356.06,313.46L355.37,315.69L354.68,291.13L353.99,309.3L352.61,320.06L351.92,310.88L351.23,332.38L350.54,327.16L349.85,326.71L349.15,310.1L347.77,351.31L347.08,299.53L345.7,364.83L345.01,356.9L343.63,293.88L342.94,371.76L341.56,295.83L340.87,319.66L340.18,320.54L339.49,300.99L338.8,323.62L338.11,304.3L337.42,304.71L336.73,268.3L336.04,286.97L335.35,290.59L334.66,325.18L333.97,327.72L333.28,340.29L332.59,340.2L331.9,346.14L331.21,348.66L330.52,317.12L329.83,297.62L328.45,329.82L327.76,321.97L327.07,322.05L326.38,298.66L325.69,313.6L324.31,312.31L323.62,326.25L322.93,314.62L322.24,311.59L321.55,334.29L320.86,328.27L320.17,327.83L319.48,310.06L318.1,336.15L317.41,301.26L316.72,312.78L316.03,301.02L315.34,307.52L314.65,317.12L313.96,312.52L313.27,286.58L312.58,295.13L311.89,315.66L309.82,270.74L309.13,305.26L307.75,313.79L307.06,334.32L306.37,290.02L305.68,320.24L304.99,321.47L304.3,297.34L303.61,307.87L302.92,282.44L302.23,271.52L301.54,316.2L300.85,269.23L299.47,246.25L298.78,260.49L298.09,256.82L297.4,296.89L296.71,302.22L296.02,293.73L293.95,240.48L293.26,191.87L292.57,242.3L291.88,266.36L291.19,266.52L290.5,264.46L289.12,220.34L288.43,229.73L286.36,258.05L285.67,209.33L284.98,224.53L284.29,250.49L283.6,241.82L282.91,261.78L282.22,240.28L281.53,204.46L280.84,204.11L280.15,228.88L278.77,243.64L278.08,240.51L277.39,266.23L276.7,238.75L275.32,281.4L274.63,286.65L273.94,277.37L273.25,286.99L272.56,287.27L271.87,308.17L271.18,291.75L270.49,301.04L269.8,277.46L269.11,302.08L267.73,258.44L267.04,199.09L266.35,239.22L265.66,297.23L264.97,294.19L264.28,219.44L263.59,240.81L262.9,207.13L262.21,202.66L261.52,213.22L259.45,312.27L258.76,279.86L258.07,294.15L257.38,242.94L256.69,246.3L256,243.16L254.62,150.01L253.93,229.72L252.55,166.21L251.86,153.34L250.48,208.09L249.79,165.82L249.1,190.44L248.41,292.26L247.72,273.86L247.03,192.97L246.34,212.03L245.65,238.87L244.96,167.69L244.27,247.6L242.89,285.26L242.2,251.49L241.51,265.76L240.82,273.14L240.13,273.65L239.44,322.26L238.06,251.9L237.37,185.99L235.99,252.73L235.3,262.46L234.61,242.34L233.92,226.87L232.54,254.26L231.85,186.36L231.16,275.48L230.47,246.15L228.4,301.68L227.71,276.61L226.33,263.81L225.64,285.8L224.95,274.14L224.26,242.59L223.57,253.4L222.88,267.85L222.19,252.68L221.5,306.14L220.81,310.25L220.12,319.56L219.43,271.64L218.74,268.51L217.36,164.5L216.67,322.13L215.29,230.53L214.6,224.86L213.91,229.23L213.22,147.38L212.53,181L211.15,93.39L210.46,163.97L209.08,153.72L208.39,125.34L207.7,224.12L207.01,194.64L205.63,259.01L204.94,264.28L204.25,249.83L203.56,210.04L202.87,210.53L201.49,176.67L200.8,159.51L199.42,185.22L198.73,151.98L198.04,145.4L197.35,254.56L196.66,304.71L195.97,147.96L195.28,144.22L194.59,166.42L193.9,127.37L192.52,180.34L191.83,147.61L190.45,209L189.76,229.44L189.07,199.09L188.38,206.8L186.31,293.1L185.62,236.08L184.93,262.78L184.24,162.77L182.86,270.57L182.17,286.58L181.48,268.93L180.79,271.68L179.41,206.07L178.72,194.82L178.03,217.91L177.34,208.3L176.65,257.06L175.96,235.89L173.89,268.13L173.2,271.86L171.82,180.65L171.13,281.31L170.44,254.33L169.75,238.32L169.06,230.75L168.37,301.91L167.68,325.21L166.99,343.04L165.61,350.59L164.92,355.96L164.23,322.95L163.54,343.07L162.85,343.15L162.16,315.71L161.47,361.78L160.09,336.23L159.4,321.15L158.71,343.52L158.02,356.3L155.95,315.73L155.26,277.73L153.88,377.55L153.19,399.9L151.81,384.25L151.12,362.77L150.43,353.08L149.74,383.85L149.05,375.05L148.36,372.15L145.6,393.31L144.91,391.12L143.53,380.69L142.84,403.08L142.15,408.53L141.46,383.04L140.77,383.36L140.08,372L139.39,372.3L138.7,379.28L138.01,361.4L137.32,400.86L136.63,419.4L135.94,410.79L135.25,431.68L134.56,427.11L133.18,444.23L132.49,448.26L131.8,447.75L131.11,450.79L129.73,453.14L129.04,451.55L127.66,452.79L126.97,454.36L125.59,451.45L124.9,453.41L124.21,454.19L123.52,453.3L122.83,454.14L122.14,454.59L121.45,453.66L120.76,455.07L120.07,452.84L119.38,458.05L118,454.72L117.31,457L115.92,458.36L115.23,458.44L113.85,458.86L113.16,459.39L111.78,459.18L111.09,459.8L109.71,457.97L109.02,458.57L108.33,457L107.64,457.68L106.95,457.45L106.26,455.14L105.57,458.9L104.88,458.36L103.5,459.8L102.81,458.43L102.12,458.84L101.43,457.14L100.05,458.61L99.36,457.79L98.67,458.28L97.98,459.4L97.29,459.19L96.6,458.01L95.22,458.89L94.53,459.88L93.84,459.75L93.15,459.24L91.77,459.39L91.08,458.89L90.39,459.37L89.7,458.16L89.01,457.91L88.32,459.71L86.25,459.76L85.56,459.83L83.49,458.41L82.8,459.92L82.11,459.64L81.42,459.21L80.04,459.76L79.35,459.88L76.59,458.87L75.9,459.9L74.52,458.35L73.83,456.14L72.45,459.44L71.76,456.29L71.07,458.63L70.38,458.57L69,426.52L68.31,457.8L66.93,399.98L66.24,342.54L65.55,451.44L64.86,458.9L64.17,454.34L63.48,450.48L62.79,459.09L62.1,458.44L60.72,459.55L60.03,459.68L57.27,458.91L56.58,455.5L55.89,454.82L55.2,458.28L52.44,459.65L51.75,457.86L51.06,459.36L50.37,456.98L49.68,458.21L48.99,453.38L48.3,458L47.61,459.44L46.23,456.06L45.54,458.51L44.85,459L44.16,459.68L42.09,458.48L41.4,459.44L40.02,459.81L39.33,458.87L37.95,459.6L37.26,458.01L36.57,459.08L35.88,459.63L34.5,460L33.81,459.53L33.12,460L32.43,458.34L31.05,460L30.36,457.14L29.67,456.74L28.98,458.75L28.29,459.23L27.6,458.54L26.91,459.55L26.22,458.69L24.84,460L24.15,460L22.08,458.77L21.39,459.69L15.87,460L15.18,460L13.8,459.29L13.11,457.38L12.42,459.27L11.73,457.4L11.04,458.54L10.35,460L8.97,459.58L8.28,460L7.59,456.15L6.9,452.7L6.21,455.32L5.52,459.61L4.14,460L3.45,458.97L1.38,460L0.69,458.35L0,460Z" style="fill: rgb(163, 165, 0); fill-opacity: 0.5; stroke-width: 0;"/></g></g><g class="errorbars"/><g class="lines"><path class="js-line" d="M0,460L0.69,458.35L1.38,460L3.45,458.97L4.14,460L5.52,459.61L6.21,455.32L6.9,452.7L7.59,456.15L8.28,460L8.97,459.58L10.35,460L11.04,458.54L11.73,457.4L12.42,459.27L13.11,457.38L13.8,459.29L15.18,460L15.87,460L21.39,459.69L22.08,458.77L24.15,460L24.84,460L26.22,458.69L26.91,459.55L27.6,458.54L28.29,459.23L28.98,458.75L29.67,456.74L30.36,457.14L31.05,460L32.43,458.34L33.12,460L33.81,459.53L34.5,460L35.88,459.63L36.57,459.08L37.26,458.01L37.95,459.6L39.33,458.87L40.02,459.81L41.4,459.44L42.09,458.48L44.16,459.68L44.85,459L45.54,458.51L46.23,456.06L47.61,459.44L48.3,458L48.99,453.38L49.68,458.21L50.37,456.98L51.06,459.36L51.75,457.86L52.44,459.65L55.2,458.28L55.89,454.82L56.58,455.5L57.27,458.91L60.03,459.68L60.72,459.55L62.1,458.44L62.79,459.09L63.48,450.48L64.17,454.34L64.86,458.9L65.55,451.44L66.24,342.54L66.93,399.98L68.31,457.8L69,426.52L70.38,458.57L71.07,458.63L71.76,456.29L72.45,459.44L73.83,456.14L74.52,458.35L75.9,459.9L76.59,458.87L79.35,459.88L80.04,459.76L81.42,459.21L82.11,459.64L82.8,459.92L83.49,458.41L85.56,459.83L86.25,459.76L88.32,459.71L89.01,457.91L89.7,458.16L90.39,459.37L91.08,458.89L91.77,459.39L93.15,459.24L93.84,459.75L94.53,459.88L95.22,458.89L96.6,458.01L97.29,459.19L97.98,459.4L98.67,458.28L99.36,457.79L100.05,458.61L101.43,457.14L102.12,458.84L102.81,458.43L103.5,459.8L104.88,458.36L105.57,458.9L106.26,455.14L106.95,457.45L107.64,457.68L108.33,457L109.02,458.57L109.71,457.97L111.09,459.8L111.78,459.18L113.16,459.39L113.85,458.86L115.23,458.44L115.92,458.36L117.31,457L118,454.72L119.38,458.05L120.07,452.84L120.76,455.07L121.45,453.66L122.14,454.59L122.83,454.14L123.52,453.3L124.21,454.19L124.9,453.41L125.59,451.45L126.97,454.36L127.66,452.79L129.04,451.55L129.73,453.14L131.11,450.79L131.8,447.75L132.49,448.26L133.18,444.23L134.56,427.11L135.25,431.68L135.94,410.79L136.63,419.4L137.32,400.86L138.01,361.4L138.7,379.28L139.39,372.3L140.08,372L140.77,383.36L141.46,383.04L142.15,408.53L142.84,403.08L143.53,380.69L144.91,391.12L145.6,393.31L148.36,372.15L149.05,375.05L149.74,383.85L150.43,353.08L151.12,362.77L151.81,384.25L153.19,399.9L153.88,377.55L155.26,277.73L155.95,315.73L158.02,356.3L158.71,343.52L159.4,321.15L160.09,336.23L161.47,361.78L162.16,315.71L162.85,343.15L163.54,343.07L164.23,322.95L164.92,355.96L165.61,350.59L166.99,343.04L167.68,325.21L168.37,301.91L169.06,230.75L169.75,238.32L170.44,254.33L171.13,281.31L171.82,180.65L173.2,271.86L173.89,268.13L175.96,235.89L176.65,257.06L177.34,208.3L178.03,217.91L178.72,194.82L179.41,206.07L180.79,271.68L181.48,268.93L182.17,286.58L182.86,270.57L184.24,162.77L184.93,262.78L185.62,236.08L186.31,293.1L188.38,206.8L189.07,199.09L189.76,229.44L190.45,209L191.83,147.61L192.52,180.34L193.9,127.37L194.59,166.42L195.28,144.22L195.97,147.96L196.66,304.71L197.35,254.56L198.04,145.4L198.73,151.98L199.42,185.22L200.8,159.51L201.49,176.67L202.87,210.53L203.56,210.04L204.25,249.83L204.94,264.28L205.63,259.01L207.01,194.64L207.7,224.12L208.39,125.34L209.08,153.72L210.46,163.97L211.15,93.39L212.53,181L213.22,147.38L213.91,229.23L214.6,224.86L215.29,230.53L216.67,322.13L217.36,164.5L218.74,268.51L219.43,271.64L220.12,319.56L220.81,310.25L221.5,306.14L222.19,252.68L222.88,267.85L223.57,253.4L224.26,242.59L224.95,274.14L225.64,285.8L226.33,263.81L227.71,276.61L228.4,301.68L230.47,246.15L231.16,275.48L231.85,186.36L232.54,254.26L233.92,226.87L234.61,242.34L235.3,262.46L235.99,252.73L237.37,185.99L238.06,251.9L239.44,322.26L240.13,273.65L240.82,273.14L241.51,265.76L242.2,251.49L242.89,285.26L244.27,247.6L244.96,167.69L245.65,238.87L246.34,212.03L247.03,192.97L247.72,273.86L248.41,292.26L249.1,190.44L249.79,165.82L250.48,208.09L251.86,153.34L252.55,166.21L253.93,229.72L254.62,150.01L256,243.16L256.69,246.3L257.38,242.94L258.07,294.15L258.76,279.86L259.45,312.27L261.52,213.22L262.21,202.66L262.9,207.13L263.59,240.81L264.28,219.44L264.97,294.19L265.66,297.23L266.35,239.22L267.04,199.09L267.73,258.44L269.11,302.08L269.8,277.46L270.49,301.04L271.18,291.75L271.87,308.17L272.56,287.27L273.25,286.99L273.94,277.37L274.63,286.65L275.32,281.4L276.7,238.75L277.39,266.23L278.08,240.51L278.77,243.64L280.15,228.88L280.84,204.11L281.53,204.46L282.22,240.28L282.91,261.78L283.6,241.82L284.29,250.49L284.98,224.53L285.67,209.33L286.36,258.05L288.43,229.73L289.12,220.34L290.5,264.46L291.19,266.52L291.88,266.36L292.57,242.3L293.26,191.87L293.95,240.48L296.02,293.73L296.71,302.22L297.4,296.89L298.09,256.82L298.78,260.49L299.47,246.25L300.85,269.23L301.54,316.2L302.23,271.52L302.92,282.44L303.61,307.87L304.3,297.34L304.99,321.47L305.68,320.24L306.37,290.02L307.06,334.32L307.75,313.79L309.13,305.26L309.82,270.74L311.89,315.66L312.58,295.13L313.27,286.58L313.96,312.52L314.65,317.12L315.34,307.52L316.03,301.02L316.72,312.78L317.41,301.26L318.1,336.15L319.48,310.06L320.17,327.83L320.86,328.27L321.55,334.29L322.24,311.59L322.93,314.62L323.62,326.25L324.31,312.31L325.69,313.6L326.38,298.66L327.07,322.05L327.76,321.97L328.45,329.82L329.83,297.62L330.52,317.12L331.21,348.66L331.9,346.14L332.59,340.2L333.28,340.29L333.97,327.72L334.66,325.18L335.35,290.59L336.04,286.97L336.73,268.3L337.42,304.71L338.11,304.3L338.8,323.62L339.49,300.99L340.18,320.54L340.87,319.66L341.56,295.83L342.94,371.76L343.63,293.88L345.01,356.9L345.7,364.83L347.08,299.53L347.77,351.31L349.15,310.1L349.85,326.71L350.54,327.16L351.23,332.38L351.92,310.88L352.61,320.06L353.99,309.3L354.68,291.13L355.37,315.69L356.06,313.46L356.75,314.23L357.44,333.29L358.82,353.48L359.51,388.18L360.89,325.8L361.58,361.01L362.27,351.98L362.96,315.88L363.65,289.86L364.34,315.36L365.03,99.84L365.72,191.59L366.41,180.94L367.1,184.63L367.79,29.79L368.48,159.08L369.86,258.41L370.55,288.13L371.24,268.15L371.93,282.09L372.62,288.63L373.31,278.58L374,309.16L374.69,308.2L375.38,301.88L376.07,259.41L376.76,279.58L377.45,317.52L378.14,262.28L378.83,218.3L379.52,257.88L380.21,278.45L380.9,240.79L381.59,242.69L382.28,253.98L383.66,305.56L384.35,292.24L385.04,299.52L385.73,287.93L386.42,308.51L387.11,251.17L387.8,249.91L388.49,226.41L389.87,289.84L390.56,273.22L391.25,40.34L391.94,279.87L393.32,321.37L394.01,314.36L394.7,328.18L395.39,321.56L396.08,315.94L396.77,286.92L397.46,288.91L398.15,320.54L398.84,342.06L399.53,331.07L400.22,339.18L400.91,332.08L401.6,330.98L402.29,356.69L404.36,323.25L405.05,333.63L405.74,337.11L406.43,327.1L407.12,329.23L407.81,292.71L408.5,298.07L409.19,345.84L410.57,294.05L411.26,315.08L411.95,296.45L412.64,333.92L413.33,348.32L414.02,337.93L414.71,337.96L415.4,343.65L416.09,329.15L416.78,350.99L417.47,355.19L418.16,351.83L418.85,340.58L419.54,349.24L420.23,344.64L420.92,347.54L421.61,340.25L422.3,361.35L422.99,334.54L423.68,340.43L425.06,368.42L425.75,363.2L426.44,350.03L427.13,319.4L427.82,320.7L428.51,316.23L429.2,320.34L429.89,336.07L430.58,340.31L431.27,350.73L432.65,369.87L433.34,365.15L434.03,386.17L434.72,385.41L435.41,384.97L436.1,365.64L436.79,370.61L437.48,378.16L438.17,394.56L438.86,392.59L439.55,400.52L440.24,398.57L440.93,384.53L441.62,324.4L442.31,340.49L443,364.23L443.69,336.13L445.07,370.58L445.76,353.81L447.14,366.11L447.83,366.05L449.21,379.6L449.9,379.2L450.59,334.11L451.28,342.05L451.97,352.94L452.66,379.96L453.35,354.85L454.04,370.26L454.73,332.49L455.42,377.63L456.11,390.8L456.8,385.07L457.49,387.36L458.18,382.31L458.87,386.29L459.56,395.59L460.25,385.33L460.94,387.8L461.63,386.11L462.32,359.73L463.7,397.69L464.39,388.39L465.77,375.44L466.46,381.65L467.15,377.85L467.84,341.79L468.53,386.55L469.22,381.26L469.91,384.65L470.6,376.59L471.29,369.47L471.98,379.69L473.36,390.31L474.05,372.31L474.74,394.16L475.43,384.93L476.12,356.03L476.81,373.83L477.5,395.14L478.19,380.68L478.88,375.94L479.57,397.06L481.64,373.95L482.33,381.41L483.02,387.44L483.71,386L484.4,375.13L485.09,384.68L485.78,380.14L486.47,397.61L487.16,404.5L487.85,394.48L488.54,402.59L489.23,399.48L489.92,380.26L490.61,390.64L491.3,377.82L491.99,393.85L492.68,398.94L493.37,394.08L494.06,396.02L494.75,383.1L495.44,384.62L496.13,371.8L496.82,356.49L497.51,386.4L498.2,377.41L498.89,396.4L499.58,392.48L500.27,403.53L501.65,390.8L502.34,334.25L503.03,389.78L503.72,357.65L504.41,396.15L505.1,395.88L505.79,391.01L506.48,380.35L507.17,400.76L507.86,407.97L508.55,386.59L509.24,389.54L509.93,396.39L511.31,407.18L512,405.39L512.69,406L513.38,401.11L514.07,405.65L514.76,403.77L515.45,398.22L516.14,400.26L516.83,389.06L517.52,411.47L518.21,417.01L518.9,407.88L519.59,406.8L520.28,416.87L520.97,410.05L521.66,420.97L522.35,423.78L523.04,420.23L523.73,420.2L524.42,403.34L525.8,389.06L526.49,414.17L527.18,433.68L527.87,407.28L528.56,430.43L529.25,424.71L529.94,433.24L530.63,433.12L531.32,437.53L532.01,436.35L532.7,421.75L534.08,423.58L534.77,422.45L536.15,340.01L536.84,417.36L537.53,364.4L538.22,427.13L538.91,411.25L539.6,419.4L540.29,428.91L540.98,427.61L541.67,432.51L542.36,420.94L543.05,431.33L543.74,429.22L544.43,426.68L545.12,421.09L545.81,420.87L546.5,432.17L547.19,428.6L547.88,420.49L548.57,424.57L549.26,422.51L549.95,414.36L550.64,422.65L551.33,430.94L552.02,429.14L553.4,416.64L554.09,418.09L555.47,428.88L556.16,415.7L557.54,419.46L558.23,426.39L558.92,355.98L559.61,414.01L560.3,418.2L560.99,408.11L561.68,419.22L562.37,413.45L563.75,425.25L564.44,409.24L565.13,422.34L565.82,410.57L566.51,394.73L567.2,414.36L568.58,413.09L569.27,407.11L569.96,423.47L570.65,411.18L571.34,412.39L572.03,399.83L573.41,416.02L574.1,401.23L576.17,420.29L576.86,412.58L577.55,410.5L578.24,392.47L578.93,421L579.62,412.27L580.31,410.07L581,415.67L582.38,402.84L583.08,415.63L584.46,413.17L585.15,423.04L585.84,425.26L586.53,432.81L587.22,415.04L587.91,430.14L589.98,420.65L590.67,392.77L591.36,408.72L592.05,406.35L593.43,423.26L594.12,422.03L595.5,407.15L596.19,421.87L597.57,424.78L598.26,423.27L599.64,435.31L600.33,418.8L601.02,422.58L601.71,402.32L602.4,419.35L603.09,411.48L603.78,404.33L604.47,425.42L605.85,435.69L606.54,426.19L607.23,426.99L607.92,423.21L608.61,423.08L609.3,392.28L609.99,357.15L610.68,379.66L612.06,296.74L612.75,356.57L613.44,334.27L614.13,348L615.51,401.04L616.2,383.04L616.89,358.16L617.58,397.24L618.27,402.34L618.96,396.02L619.65,368.99L620.34,402.49L621.03,415.27L621.72,381.86L622.41,378.32L623.1,381.48L623.79,406.09L624.48,392.94L625.17,416.79L625.86,413.79L626.55,434.37L627.24,432.86L627.93,433.74L629.31,421.55L630,397L631.38,425.02L632.07,407.94L634.14,214.97L634.83,265.69L635.52,249.79L636.21,336.81L636.9,376.5L637.59,249.98L638.28,264.74L638.97,306.75L639.66,364.53L640.35,357.84L641.04,385.46L641.73,365.36L643.8,408.25L644.49,380.59L645.18,377.48L645.87,365.14L647.25,347.62L647.94,362.56L650.01,400.11L650.7,394.47L651.39,384.5L652.08,385.45L652.77,393.33L653.46,388.57L654.15,392.62L654.84,384.34L655.53,381.96L656.22,385.88L656.91,340.18L657.6,379.53L658.29,346.12L658.98,380.08L659.67,367.42L660.36,386.69L662.43,343.69L663.12,364.73L663.81,387.32L664.5,331.83L665.19,325.15L665.88,349.48L666.57,310.7L667.26,316.33L667.95,384.52L668.64,362.06L669.33,388.01L670.02,197.23L671.4,372.53L672.09,393.43L672.78,384.38L673.47,390.73L674.16,349.28L674.85,375.5L675.54,394.56L676.23,309.07L678.3,386.2L678.99,347.78L679.68,390.72L680.37,322.4L681.06,256.66L681.75,310.33L682.44,374.86L683.13,372.57L683.82,392.24L684.51,396.48L685.2,320.95L685.89,323.19L686.58,374.97L687.27,354.94L687.96,356.13L688.65,399.96L689.34,399.24L690.03,363.38L691.41,399.1L692.1,390.07L692.79,317.29L693.48,351.17L694.17,384.32L694.86,350.54L695.55,378.2L696.24,368.99L696.93,380.99L697.62,332.14L698.31,337.08L699,355.53" style="vector-effect: non-scaling-stroke; fill: none; stroke: rgb(248, 118, 109); stroke-opacity: 1; stroke-width: 2px; opacity: 1;"/></g><g class="points"/><g class="text"/></g><g class="trace scatter tracea02cd6" style="stroke-miterlimit: 2;"><g class="fills"/><g class="errorbars"/><g class="lines"><path class="js-line" d="M0,460L0.69,458.35L1.38,460L2.76,459L3.45,458.42L4.14,460L4.83,459.42L5.52,459.61L6.21,455.01L6.9,452.7L7.59,456.15L8.28,460L8.97,459.58L10.35,460L11.04,458.54L11.73,456.11L12.42,459.27L13.11,456.93L13.8,459.29L15.18,460L15.87,460L21.39,459.69L22.08,458.25L23.46,460L24.15,460L24.84,460L25.53,458.84L26.22,457.86L26.91,459.55L27.6,458.54L28.29,459.23L28.98,458.75L29.67,455.73L30.36,452.65L31.05,460L31.74,459.26L32.43,456.53L33.12,460L33.81,459.53L35.19,460L35.88,458.47L37.26,457.66L37.95,459.6L39.33,457.86L40.02,459.81L41.4,459.44L42.09,458.48L44.85,459L45.54,457.87L46.23,455.61L46.92,457.59L47.61,459.44L48.3,458L48.99,453.38L49.68,458.21L50.37,456.98L51.06,459.36L51.75,456.23L52.44,459.65L55.2,458.28L55.89,454.82L56.58,455.11L57.27,458.91L60.03,459.68L60.72,459.3L61.41,459.37L62.1,458.44L62.79,459.09L63.48,449.17L64.86,458.9L65.55,451.05L66.24,328.14L66.93,398.63L68.31,457.8L69,424.94L70.38,458.29L71.07,458.55L71.76,456.22L72.45,459.44L73.14,458.29L73.83,455.34L75.21,459.55L75.9,459.9L76.59,457.59L77.28,459.26L78.66,459.38L79.35,459.88L81.42,459.21L82.11,459.64L82.8,459.92L83.49,458.41L85.56,459.83L86.25,459.76L87.63,459.8L88.32,458.64L89.01,457.24L89.7,457.91L90.39,459.37L91.08,458.89L92.46,459.22L93.15,459.24L94.53,459.88L95.22,458.89L95.91,457.56L96.6,458.01L97.98,458.98L98.67,458.28L99.36,457.79L100.05,458.43L101.43,457.09L102.12,458.84L102.81,458.43L103.5,459.8L104.19,457.25L104.88,458.36L105.57,458.53L106.26,455.08L107.64,457.62L108.33,457L109.02,458.49L109.71,457.85L111.09,459.8L111.78,456.57L112.47,459.72L113.16,459.14L117.31,457L118,454.72L119.38,458.05L120.07,452.75L120.76,455.07L121.45,453.59L122.14,454.59L122.83,454.14L123.52,453.3L124.21,454.19L124.9,453.41L125.59,451.45L126.28,452.3L126.97,454.36L128.35,452.04L129.04,451.29L129.73,453.05L130.42,452.1L133.18,443.67L133.87,435.94L134.56,426.94L135.25,431.31L135.94,409.44L136.63,418.43L137.32,400.21L138.01,360.12L138.7,378.45L139.39,371.94L140.08,371.06L140.77,382.82L141.46,383.04L142.15,408.06L142.84,401.79L143.53,380.62L144.91,390.94L145.6,391.74L148.36,372.15L149.05,374.68L149.74,382.2L150.43,351.05L151.12,361.32L151.81,383.5L153.19,399.42L153.88,376.01L155.26,273.28L155.95,313.82L158.02,351.71L158.71,338.43L159.4,314.88L160.09,333.13L161.47,358.89L162.16,314.79L163.54,342.34L164.23,322.27L164.92,354.91L165.61,348.83L166.99,341.24L167.68,323.99L168.37,301L169.06,229.22L169.75,229.74L170.44,252L171.13,280.46L171.82,178.16L173.2,269.47L173.89,267.55L175.96,235.11L176.65,256.37L177.34,207.3L178.03,216.69L178.72,193.8L179.41,205.59L180.79,269.6L181.48,268.19L182.17,285.92L182.86,269.87L184.24,161.78L184.93,261.12L185.62,233.83L186.31,292.41L188.38,205.15L189.07,197.99L189.76,226.44L190.45,206.38L191.83,141.49L192.52,179.63L193.9,124.78L194.59,165.38L195.28,143.12L195.97,146.75L196.66,303.38L197.35,254.21L198.04,144.95L198.73,151.29L199.42,184.01L200.8,157.58L201.49,176.2L203.56,208.91L204.25,247.36L204.94,262.13L205.63,255.66L207.01,192.91L207.7,220.33L208.39,122.48L209.08,151.74L209.77,153.3L210.46,159.5L211.15,23L211.84,146.04L212.53,177.25L213.22,142.92L213.91,221.54L214.6,217.08L215.29,214.47L216.67,317.89L217.36,126.06L218.74,265.29L219.43,226.96L220.12,314.33L220.81,305.21L221.5,302.4L222.19,251.2L222.88,255.85L223.57,247.37L224.26,236.22L224.95,271.35L225.64,282.02L226.33,262.08L228.4,299.87L229.09,271.68L229.78,244.39L230.47,244.96L231.16,274.11L231.85,170.83L232.54,252.41L233.92,225.29L234.61,240.34L235.3,258.51L235.99,251.21L237.37,182.95L238.06,249.32L239.44,318.41L240.13,270.41L240.82,271.55L241.51,263.85L242.2,249.99L242.89,283.2L244.27,246.32L244.96,160.09L245.65,236.77L246.34,210.91L247.03,190.91L247.72,272.76L248.41,290.83L249.1,189.46L249.79,164.48L250.48,206.57L251.86,151.94L252.55,163.73L253.24,183.09L253.93,227.57L254.62,147.99L255.31,238.42L256.69,244.59L257.38,240.43L258.07,291.54L258.76,278.59L259.45,309.91L260.14,273.26L261.52,209.42L262.21,201.68L262.9,206L263.59,239.45L264.28,218.68L264.97,293.51L265.66,296.15L266.35,237.52L267.04,198.32L267.73,257.61L269.11,301L269.8,275.61L270.49,300.39L271.18,290.72L271.87,307.37L272.56,285.61L273.25,285.77L273.94,275.77L275.32,278.21L276.01,265.27L276.7,234.66L277.39,263.65L278.08,236.75L278.77,241.85L280.15,227.51L280.84,202.76L281.53,203.65L282.22,240.03L282.91,261.31L283.6,240.16L284.29,248.64L284.98,223.59L285.67,207.85L286.36,257.42L289.12,219.96L289.81,258.96L291.19,265.9L291.88,265.67L292.57,241.92L293.26,191.76L294.64,263.42L295.33,279.94L296.71,301.74L297.4,296.41L298.09,256.67L298.78,260.18L299.47,246.25L300.16,260.99L300.85,268.99L301.54,315.89L302.23,270.52L302.92,282.2L303.61,307.57L304.3,297.34L304.99,321.36L305.68,319.82L306.37,288.8L307.06,334.32L307.75,313.21L309.13,305.26L309.82,268.2L311.2,304.76L311.89,313.1L313.27,286.13L313.96,306.5L314.65,316.7L315.34,307.34L316.03,300.21L316.72,311.25L317.41,300.39L318.1,335.91L319.48,309.99L320.17,327.27L320.86,327.76L321.55,333.7L322.24,311.51L322.93,312.89L323.62,325.35L324.31,310.88L325,312.7L325.69,312.75L326.38,297.74L327.07,321.82L327.76,321.61L328.45,329.58L329.83,297.07L330.52,316.64L331.21,348.03L331.9,345.57L332.59,339.91L333.28,339.5L333.97,326.48L334.66,323.01L335.35,290L336.04,286.04L336.73,267.3L337.42,303.99L338.11,303.61L338.8,322.51L339.49,300.49L340.18,319.87L340.87,319.22L341.56,295.18L342.94,371.47L343.63,293L345.01,356.81L345.7,364.83L347.08,299.01L347.77,350.64L349.15,309.65L349.85,326.2L350.54,326.81L351.23,332.33L351.92,310.85L352.61,319.64L353.99,309.09L354.68,290.56L355.37,315.42L356.06,312.42L356.75,313.74L357.44,332.61L358.82,353.06L359.51,388.09L360.89,325.19L361.58,360.65L362.27,351.64L362.96,315.18L363.65,288.76L364.34,305.75L365.03,79.64L365.72,188.16L366.41,176.09L367.1,179.09L367.79,25.77L368.48,156.29L369.86,255.6L370.55,287.07L371.24,267.86L371.93,282.01L372.62,288.18L373.31,278.17L374,308.93L374.69,307.81L375.38,301.66L376.07,258.15L376.76,278.93L377.45,315.78L378.14,261.73L378.83,216.75L379.52,256.45L380.21,277.68L380.9,240L381.59,242.09L382.28,252.8L383.66,303.05L384.35,291.68L385.04,299.34L385.73,287.63L386.42,308.08L387.11,247.41L387.8,247.25L388.49,225.32L389.87,289.54L390.56,272.58L391.25,39.32L391.94,279.63L393.32,321.02L394.01,313.65L394.7,327.7L395.39,321.28L396.77,286.58L397.46,288.46L398.84,341.33L399.53,330.78L400.22,336.65L400.91,331.64L401.6,329.39L402.29,354.78L404.36,322.98L405.05,333.36L405.74,336.54L406.43,326.25L407.12,328.99L407.81,291.57L408.5,297.54L409.19,345.15L410.57,290.65L411.26,314.47L411.95,296.03L412.64,333.59L413.33,348.12L414.02,337.64L414.71,337.11L415.4,343.55L416.09,328.58L416.78,350.94L417.47,355.17L418.16,351.73L418.85,340.24L419.54,348.46L420.23,344.43L420.92,347.1L421.61,339.61L422.3,360.83L422.99,333.75L423.68,340.08L425.06,367.56L425.75,362.77L426.44,349.48L427.13,317.72L427.82,320.16L428.51,314.08L429.2,319.92L429.89,335.51L430.58,339.77L431.27,350.46L432.65,369.53L433.34,363.87L434.03,385.33L434.72,384.99L435.41,384.52L436.1,365.09L436.79,370.22L437.48,377.9L438.17,394.29L438.86,392.27L439.55,400.23L440.24,398.35L440.93,383.62L441.62,323.05L442.31,340.13L443,363.78L443.69,334.49L445.07,370.34L445.76,353.49L447.14,365.91L447.83,365L449.21,379.38L449.9,378.71L450.59,331.52L451.28,341.78L451.97,352.74L452.66,379.51L453.35,354.57L454.04,369.87L454.73,332.04L455.42,377.3L456.11,390.2L456.8,384.82L457.49,387.28L458.18,381.99L458.87,385.76L459.56,395.03L460.25,384.75L460.94,387.14L461.63,385.48L462.32,359.24L463.7,397.43L464.39,387.8L465.77,375.19L466.46,381.25L467.15,377.39L467.84,340.99L468.53,386.38L469.22,380.91L469.91,384.52L470.6,376.22L471.29,369.07L471.98,379.52L473.36,389.97L474.05,372.06L474.74,393.89L475.43,384.83L476.12,355.21L476.81,373.2L477.5,394.88L478.19,379.95L478.88,375.05L479.57,392.44L480.95,385.38L481.64,373.59L483.02,387.17L483.71,385.64L484.4,374.73L485.09,383.76L485.78,379.19L486.47,397.3L487.16,403.93L487.85,393.52L488.54,402.33L489.23,399.24L489.92,379.64L490.61,390.14L491.3,377.25L491.99,393.5L492.68,398.45L493.37,393.81L494.06,395.85L494.75,382.77L495.44,384.45L496.13,371.5L496.82,356.23L497.51,386.15L498.2,377L498.89,396.22L499.58,392.04L500.27,403.44L501.65,390.7L502.34,332.5L503.03,389.06L503.72,357.29L504.41,395.89L505.1,395.78L505.79,390.21L506.48,380.11L507.17,400.58L507.86,407.57L508.55,386.27L509.24,389.06L509.93,396.23L511.31,407.04L512,405.28L512.69,405.89L513.38,400.85L514.07,405.4L514.76,403.62L515.45,398.01L516.14,400.08L516.83,388.79L517.52,411.3L518.21,416.82L518.9,407.73L519.59,406.4L520.28,416.67L520.97,409.92L521.66,420.76L522.35,423.71L523.04,420.17L523.73,420.12L524.42,403.2L525.8,388.76L526.49,414.03L527.18,433.6L527.87,407.06L528.56,430.25L529.25,424.65L529.94,433.14L530.63,432.89L531.32,437.49L532.01,436.27L532.7,421.61L534.08,423.49L534.77,422.43L536.15,339.56L536.84,417.34L537.53,364.18L538.22,427.08L538.91,411.09L539.6,419.18L540.29,428.88L540.98,427.44L541.67,432.45L542.36,420.72L543.05,430.46L543.74,428.55L545.81,420.55L546.5,432.03L547.19,428.38L547.88,420.27L548.57,424.41L549.26,422.29L549.95,414.1L550.64,422.52L551.33,430.86L552.02,429.12L552.71,424.37L553.4,411.46L555.47,428.8L556.16,415.61L557.54,419L558.23,426.09L558.92,355.25L559.61,413.96L560.3,417.99L560.99,407.4L561.68,418.98L562.37,413.33L563.75,425.01L564.44,408.97L565.13,422.15L565.82,410.21L566.51,394.11L567.2,413.95L568.58,412.89L569.27,406.99L569.96,423.14L570.65,411.03L571.34,412.03L572.03,399.44L573.41,415.39L574.1,400.48L576.17,419.96L576.86,412.33L577.55,410.24L578.24,392.02L578.93,420.3L579.62,412.05L580.31,409.57L581,415.6L582.38,402.5L583.08,415.49L584.46,412.9L585.15,422.88L585.84,425.18L586.53,432.71L587.22,414.82L587.91,429.97L589.98,420.12L590.67,392.21L591.36,408.22L592.05,405.44L593.43,422.81L594.12,421.4L595.5,406.03L596.19,421.04L597.57,424.23L598.26,423.05L599.64,435.04L600.33,417.45L601.02,421.84L601.71,401.6L602.4,418.27L603.09,410.68L603.78,402.77L604.47,424.8L605.85,434.76L606.54,419.49L607.23,423.74L607.92,422.79L608.61,421.53L609.3,390.82L609.99,354.71L610.68,378.29L612.06,292.65L612.75,355.85L613.44,333.03L614.13,346.28L615.51,400.2L616.2,382.43L616.89,357.33L617.58,396.73L618.27,401.64L618.96,395.37L619.65,367.84L620.34,401.83L621.03,414.61L621.72,380.17L622.41,376.07L623.1,380.23L623.79,405.49L624.48,391.17L625.17,416.02L625.86,413.56L626.55,434.14L627.24,432.68L627.93,433.7L629.31,421.34L630,396.47L631.38,424.6L632.07,407.04L634.14,210.59L634.83,262.29L635.52,246.32L636.21,335.99L636.9,376.06L637.59,248.22L638.28,262.34L638.97,303.48L639.66,363.65L640.35,357.07L641.04,385.04L641.73,365.18L643.8,408.25L644.49,380.33L645.18,377.35L645.87,364.68L647.25,347.38L647.94,362.03L650.01,399.66L650.7,393.98L651.39,384.2L652.08,385.21L652.77,393.15L653.46,388.27L654.15,392.01L654.84,382.88L655.53,381.54L656.22,385.52L656.91,339.05L657.6,378.78L658.29,345.03L658.98,379.53L659.67,366.63L660.36,386.04L662.43,341.72L663.12,363.32L663.81,386.43L664.5,329.82L665.19,323.89L665.88,347.65L666.57,309.52L667.26,314.96L667.95,382.71L668.64,360.53L669.33,386.62L670.02,196.43L671.4,371.76L672.09,393.08L672.78,383.18L673.47,389.42L674.16,347.69L674.85,373.46L675.54,392.89L676.23,307.24L678.3,384.94L678.99,344.62L679.68,389.53L680.37,319.52L681.06,254.81L681.75,307.72L682.44,370.41L683.13,370.27L683.82,388.96L684.51,393.8L685.2,317.11L685.89,321.84L686.58,373.89L687.27,352.72L687.96,354.72L688.65,398.75L689.34,397.78L690.03,361.44L691.41,397.53L692.1,387.78L692.79,315.64L693.48,349.08L694.17,380.75L694.86,346.95L695.55,376.14L696.24,367.38L696.93,379.31L697.62,329.36L698.31,333.58L699,352.31" style="vector-effect: non-scaling-stroke; fill: none; stroke: rgb(163, 165, 0); stroke-opacity: 1; stroke-width: 2px; opacity: 1;"/></g><g class="points"/><g class="text"/></g></g></g><g class="overplot"/><path class="xlines-above crisp" d="" style="fill: none; stroke-width: 1px; stroke: rgb(0, 0, 0); stroke-opacity: 0;"/><path class="ylines-above crisp" d="" style="fill: none; stroke-width: 1px; stroke: rgb(0, 0, 0); stroke-opacity: 0;"/><g class="overlines-above"/><g class="xaxislayer-above"><path class="xtick ticks crisp" d="M0,521v5" transform="translate(97.25,0)" style="stroke: rgb(51, 51, 51); stroke-opacity: 1; stroke-width: 1px;"/><path class="xtick ticks crisp" d="M0,521v5" transform="translate(222.84,0)" style="stroke: rgb(51, 51, 51); stroke-opacity: 1; stroke-width: 1px;"/><path class="xtick ticks crisp" d="M0,521v5" transform="translate(349.8,0)" style="stroke: rgb(51, 51, 51); stroke-opacity: 1; stroke-width: 1px;"/><path class="xtick ticks crisp" d="M0,521v5" transform="translate(474.7,0)" style="stroke: rgb(51, 51, 51); stroke-opacity: 1; stroke-width: 1px;"/><path class="xtick ticks crisp" d="M0,521v5" transform="translate(601.66,0)" style="stroke: rgb(51, 51, 51); stroke-opacity: 1; stroke-width: 1px;"/><path class="xtick ticks crisp" d="M0,521v5" transform="translate(726.56,0)" style="stroke: rgb(51, 51, 51); stroke-opacity: 1; stroke-width: 1px;"/><g class="xtick"><text text-anchor="middle" x="0" y="540.4" transform="translate(97.25,0)" style="font-family: 'Open Sans', verdana, arial, sans-serif; font-size: 12px; fill: rgb(51, 51, 51); fill-opacity: 1; white-space: pre; opacity: 1;">Jan 2020</text></g><g class="xtick"><text text-anchor="middle" x="0" y="540.4" style="font-family: 'Open Sans', verdana, arial, sans-serif; font-size: 12px; fill: rgb(51, 51, 51); fill-opacity: 1; white-space: pre; opacity: 1;" transform="translate(222.84,0)">Jul 2020</text></g><g class="xtick"><text text-anchor="middle" x="0" y="540.4" style="font-family: 'Open Sans', verdana, arial, sans-serif; font-size: 12px; fill: rgb(51, 51, 51); fill-opacity: 1; white-space: pre; opacity: 1;" transform="translate(349.8,0)">Jan 2021</text></g><g class="xtick"><text text-anchor="middle" x="0" y="540.4" style="font-family: 'Open Sans', verdana, arial, sans-serif; font-size: 12px; fill: rgb(51, 51, 51); fill-opacity: 1; white-space: pre; opacity: 1;" transform="translate(474.7,0)">Jul 2021</text></g><g class="xtick"><text text-anchor="middle" x="0" y="540.4" style="font-family: 'Open Sans', verdana, arial, sans-serif; font-size: 12px; fill: rgb(51, 51, 51); fill-opacity: 1; white-space: pre; opacity: 1;" transform="translate(601.66,0)">Jan 2022</text></g><g class="xtick"><text text-anchor="middle" x="0" y="540.4" style="font-family: 'Open Sans', verdana, arial, sans-serif; font-size: 12px; fill: rgb(51, 51, 51); fill-opacity: 1; white-space: pre; opacity: 1;" transform="translate(726.56,0)">Jul 2022</text></g></g><g class="yaxislayer-above"><path class="ytick ticks crisp" d="M79,0h-5" transform="translate(0,520)" style="stroke: rgb(51, 51, 51); stroke-opacity: 1; stroke-width: 1px;"/><path class="ytick ticks crisp" d="M79,0h-5" transform="translate(0,460.18)" style="stroke: rgb(51, 51, 51); stroke-opacity: 1; stroke-width: 1px;"/><path class="ytick ticks crisp" d="M79,0h-5" transform="translate(0,400.37)" style="stroke: rgb(51, 51, 51); stroke-opacity: 1; stroke-width: 1px;"/><path class="ytick ticks crisp" d="M79,0h-5" transform="translate(0,340.55)" style="stroke: rgb(51, 51, 51); stroke-opacity: 1; stroke-width: 1px;"/><path class="ytick ticks crisp" d="M79,0h-5" transform="translate(0,280.74)" style="stroke: rgb(51, 51, 51); stroke-opacity: 1; stroke-width: 1px;"/><path class="ytick ticks crisp" d="M79,0h-5" transform="translate(0,220.92)" style="stroke: rgb(51, 51, 51); stroke-opacity: 1; stroke-width: 1px;"/><path class="ytick ticks crisp" d="M79,0h-5" transform="translate(0,161.11)" style="stroke: rgb(51, 51, 51); stroke-opacity: 1; stroke-width: 1px;"/><path class="ytick ticks crisp" d="M79,0h-5" transform="translate(0,101.28999999999999)" style="stroke: rgb(51, 51, 51); stroke-opacity: 1; stroke-width: 1px;"/><g class="ytick"><text text-anchor="end" x="71.6" y="4.199999999999999" transform="translate(0,520)" style="font-family: 'Open Sans', verdana, arial, sans-serif; font-size: 12px; fill: rgb(51, 51, 51); fill-opacity: 1; white-space: pre; opacity: 1;">0.0%</text></g><g class="ytick"><text text-anchor="end" x="71.6" y="4.199999999999999" style="font-family: 'Open Sans', verdana, arial, sans-serif; font-size: 12px; fill: rgb(51, 51, 51); fill-opacity: 1; white-space: pre; opacity: 1;" transform="translate(0,460.18)">0.5%</text></g><g class="ytick"><text text-anchor="end" x="71.6" y="4.199999999999999" style="font-family: 'Open Sans', verdana, arial, sans-serif; font-size: 12px; fill: rgb(51, 51, 51); fill-opacity: 1; white-space: pre; opacity: 1;" transform="translate(0,400.37)">1.0%</text></g><g class="ytick"><text text-anchor="end" x="71.6" y="4.199999999999999" style="font-family: 'Open Sans', verdana, arial, sans-serif; font-size: 12px; fill: rgb(51, 51, 51); fill-opacity: 1; white-space: pre; opacity: 1;" transform="translate(0,340.55)">1.5%</text></g><g class="ytick"><text text-anchor="end" x="71.6" y="4.199999999999999" style="font-family: 'Open Sans', verdana, arial, sans-serif; font-size: 12px; fill: rgb(51, 51, 51); fill-opacity: 1; white-space: pre; opacity: 1;" transform="translate(0,280.74)">2.0%</text></g><g class="ytick"><text text-anchor="end" x="71.6" y="4.199999999999999" style="font-family: 'Open Sans', verdana, arial, sans-serif; font-size: 12px; fill: rgb(51, 51, 51); fill-opacity: 1; white-space: pre; opacity: 1;" transform="translate(0,220.92)">2.5%</text></g><g class="ytick"><text text-anchor="end" x="71.6" y="4.199999999999999" style="font-family: 'Open Sans', verdana, arial, sans-serif; font-size: 12px; fill: rgb(51, 51, 51); fill-opacity: 1; white-space: pre; opacity: 1;" transform="translate(0,161.11)">3.0%</text></g><g class="ytick"><text text-anchor="end" x="71.6" y="4.199999999999999" style="font-family: 'Open Sans', verdana, arial, sans-serif; font-size: 12px; fill: rgb(51, 51, 51); fill-opacity: 1; white-space: pre; opacity: 1;" transform="translate(0,101.28999999999999)">3.5%</text></g></g><g class="overaxes-above"/></g></g><g class="polarlayer"/><g class="smithlayer"/><g class="ternarylayer"/><g class="geolayer"/><g class="funnelarealayer"/><g class="pielayer"/><g class="iciclelayer"/><g class="treemaplayer"/><g class="sunburstlayer"/><g class="glimages"/><defs id="topdefs-0b6e7d"><g class="clips"/><clipPath id="legend0b6e7d"><rect width="195" height="67" x="0" y="0"/></clipPath></defs><g class="layer-above"><g class="imagelayer"/><g class="shapelayer"/></g><g class="infolayer"><g class="legend" pointer-events="all" transform="translate(792.98,60)"><rect class="bg" shape-rendering="crispEdges" width="195" height="67" x="0" y="0" style="stroke: rgb(68, 68, 68); stroke-opacity: 1; fill: rgb(255, 255, 255); fill-opacity: 1; stroke-width: 0px;"/><g class="scrollbox" transform="" clip-path="url(#legend0b6e7d)"><text class="legendtitletext" text-anchor="start" x="2" y="18.2" style="font-family: 'Open Sans', verdana, arial, sans-serif; font-size: 14px; fill: rgb(51, 51, 51); fill-opacity: 1; white-space: pre;">type</text><g class="groups" transform=""><g class="traces" transform="translate(0,32.7)" style="opacity: 1;"><text class="legendtext" text-anchor="start" x="40" y="4.680000000000001" style="font-family: 'Open Sans', verdana, arial, sans-serif; font-size: 12px; fill: rgb(51, 51, 51); fill-opacity: 1; white-space: pre;">Successful MEV transaction</text><g class="layers"><g class="legendfill"><path class="js-fill" d="M5,-2h30v6h-30z" style="stroke-width: 0; fill: rgb(248, 118, 109); fill-opacity: 0.5;"/></g><g class="legendlines"><path class="js-line" d="M5,-2h30" style="fill: none; stroke: rgb(248, 118, 109); stroke-opacity: 1; stroke-width: 2px;"/></g><g class="legendsymbols"><g class="legendpoints"/></g></g><rect class="legendtoggle" x="0" y="-9.5" width="189.40625" height="19" style="fill: rgb(0, 0, 0); fill-opacity: 0;"/></g></g><g class="groups" transform=""><g class="traces" transform="translate(0,51.7)" style="opacity: 1;"><text class="legendtext" text-anchor="start" x="40" y="4.680000000000001" style="font-family: 'Open Sans', verdana, arial, sans-serif; font-size: 12px; fill: rgb(51, 51, 51); fill-opacity: 1; white-space: pre;">Failed MEV transaction</text><g class="layers"><g class="legendfill"><path class="js-fill" d="M5,-2h30v6h-30z" style="stroke-width: 0; fill: rgb(163, 165, 0); fill-opacity: 0.5;"/></g><g class="legendlines"><path class="js-line" d="M5,-2h30" style="fill: none; stroke: rgb(163, 165, 0); stroke-opacity: 1; stroke-width: 2px;"/></g><g class="legendsymbols"><g class="legendpoints"/></g></g><rect class="legendtoggle" x="0" y="-9.5" width="189.40625" height="19" style="fill: rgb(0, 0, 0); fill-opacity: 0;"/></g></g></g><rect class="scrollbar" rx="20" ry="3" width="0" height="0" x="0" y="0" style="fill: rgb(128, 139, 164); fill-opacity: 1;"/></g><g class="g-gtitle"><text class="gtitle" x="500" y="30" text-anchor="middle" dy="0em" style="font-family: 'Open Sans', verdana, arial, sans-serif; font-size: 17px; fill: rgb(51, 51, 51); opacity: 1; font-weight: normal; white-space: pre;">Percent of Total Block Gas used by MEV Transactions</text></g><g class="g-xtitle"><text class="xtitle" x="429.5" y="568.20625" text-anchor="middle" style="font-family: 'Open Sans', verdana, arial, sans-serif; font-size: 14px; fill: rgb(51, 51, 51); opacity: 1; font-weight: normal; white-space: pre;">time</text></g><g class="g-ytitle"><text class="ytitle" transform="rotate(-90,19.434375000000003,290)" x="19.434375000000003" y="290" text-anchor="middle" style="font-family: 'Open Sans', verdana, arial, sans-serif; font-size: 14px; fill: rgb(51, 51, 51); opacity: 1; font-weight: normal; white-space: pre;">value</text></g></g></svg>